<svg width="20" height="22" viewBox="0 0 20 22" fill="none" xmlns="http://www.w3.org/2000/svg">
<path d="M5.67701 13.8864C5.52741 13.8864 5.40421 14.0096 5.40421 14.1592V19.2236C5.40421 19.3754 5.52741 19.4964 5.67701 19.4964C5.82661 19.4964 5.94981 19.3732 5.94981 19.2236V14.157C5.94761 14.0074 5.82661 13.8864 5.67701 13.8864Z" fill="black"/>
<path d="M8.5656 13.8864C8.416 13.8864 8.2928 14.0096 8.2928 14.1592V19.2236C8.2928 19.3754 8.416 19.4964 8.5656 19.4964C8.7152 19.4964 8.8384 19.3732 8.8384 19.2236V14.157C8.8384 14.0074 8.7152 13.8864 8.5656 13.8864Z" fill="black"/>
<path d="M11.4212 13.8864C11.2716 13.8864 11.1484 14.0096 11.1484 14.1592V19.2236C11.1484 19.3754 11.2716 19.4964 11.4212 19.4964C11.573 19.4964 11.694 19.3732 11.694 19.2236V14.157C11.694 14.0074 11.573 13.8864 11.4212 13.8864Z" fill="black"/>
<path d="M14.2438 13.8864C14.092 13.8864 13.971 14.0096 13.971 14.1592V19.2236C13.971 19.3754 14.0942 19.4964 14.2438 19.4964C14.3934 19.4964 14.5166 19.3732 14.5166 19.2236V14.157C14.5166 14.0074 14.3934 13.8864 14.2438 13.8864Z" fill="black"/>
<path d="M18.1664 9.84057L19.3082 8.69657C19.5348 8.46777 19.5348 8.09817 19.3082 7.86937L18.4986 7.05977C18.3974 6.96077 18.2478 6.90357 18.0872 6.90357C17.9244 6.90357 17.7748 6.96077 17.6714 7.06197L15.533 9.20257V4.32297C15.533 4.26357 15.533 4.12057 14.565 1.38377L14.5474 1.33537L14.5936 1.31557C14.7894 1.22977 14.9126 1.03617 14.9126 0.824971V0.756771C14.9126 0.461971 14.6728 0.219971 14.3758 0.219971H11.5224C11.2276 0.219971 10.9878 0.459771 10.9878 0.756771V0.824971C10.9878 1.04717 11.1264 1.24737 11.3332 1.32657L11.3838 1.34637L11.3662 1.39697C10.3674 4.12057 10.3674 4.26137 10.3674 4.32297V9.76137L7.0102 6.01477L3.851 8.51397L2.399 7.06197C2.3 6.96297 2.1482 6.90577 1.9876 6.90577C1.8248 6.90577 1.6752 6.96297 1.5718 7.06417L0.764403 7.87377C0.654403 7.98377 0.592803 8.13117 0.592803 8.28737C0.592803 8.44357 0.652203 8.59097 0.764403 8.70097L1.9062 9.84277H0.249603V12.837H1.6224L3.521 21.7382L3.5298 21.78H15.9268L18.3798 12.8348H19.7526V9.84057C19.7504 9.84057 18.1664 9.84057 18.1664 9.84057ZM3.9698 21.2344L2.1834 12.8502H17.8078L15.5088 21.2344H3.9698ZM0.793003 10.3862H3.2218L1.112 8.29617L1.9766 7.40737L4.9378 10.3686L4.9532 10.384H15.1194L18.074 7.40737L18.9628 8.27197L16.8508 10.384H19.207V12.287H0.793003V10.3862ZM14.422 0.893171H13.894L14.004 1.20557C14.6464 3.01397 15.0468 4.20637 15.0622 4.30537L15.0644 9.66897L14.9192 9.81197H10.9482C10.8866 9.81197 10.8338 9.76137 10.8338 9.69757L10.8316 4.35597C10.8514 4.20417 11.2628 3.02717 11.9316 1.20777L12.046 0.890971L11.452 0.877771V0.695171L11.5224 0.686371L14.4506 0.699571L14.422 0.893171ZM5.1798 9.84057L4.214 8.87477L6.9442 6.75617L9.7052 9.84057H5.1798Z" fill="black"/>
</svg>
