<svg width="22" height="22" viewBox="0 0 22 22" fill="none" xmlns="http://www.w3.org/2000/svg">
<path d="M18.1042 7.10413C17.9777 7.10413 17.875 7.00146 17.875 6.87496V2.74996H15.5833V4.58329C15.5833 4.70979 15.4807 4.81246 15.3542 4.81246C15.2277 4.81246 15.125 4.70979 15.125 4.58329V2.74996C15.125 2.49742 15.3303 2.29163 15.5833 2.29163H17.875C18.128 2.29163 18.3333 2.49742 18.3333 2.74996V6.87496C18.3333 7.00146 18.2307 7.10413 18.1042 7.10413Z" fill="black"/>
<path d="M19.6689 11.6843C19.5617 11.6843 19.459 11.6463 19.3756 11.5761L11.1256 4.59664C11.0435 4.52652 10.9235 4.52606 10.8396 4.59664L2.62396 11.5679C2.53092 11.6472 2.41542 11.6857 2.28983 11.6742C2.16792 11.6637 2.05746 11.6055 1.97954 11.5111L1.25171 10.6334C1.09129 10.4413 1.11604 10.1521 1.30717 9.98985L10.565 2.13539C10.8194 1.91906 11.1897 1.91906 11.4441 2.13539L20.6933 9.9981H20.6938C20.883 10.1604 20.9082 10.4482 20.7492 10.6411L20.0195 11.5198C19.9412 11.6142 19.8312 11.6719 19.7092 11.6825C19.696 11.6839 19.6822 11.6843 19.6689 11.6843ZM10.9835 4.08514C11.1393 4.08514 11.2952 4.13923 11.4221 4.24694L19.6726 11.2264L20.5443 10.1723L20.3958 10.3469L11.1471 2.48464C11.0646 2.41498 10.9445 2.4136 10.8611 2.48464L1.60417 10.3391L2.33292 11.2182L10.5435 4.24739C10.6709 4.13923 10.8272 4.08514 10.9835 4.08514Z" fill="black"/>
<path d="M18.3333 20.625H11.2292C11.1027 20.625 11 20.5223 11 20.3958C11 20.2693 11.1027 20.1666 11.2292 20.1666H18.3333V12.1848L11.1476 6.15219C11.0623 6.08069 10.9381 6.08069 10.852 6.15265L3.66667 12.1958V20.1666H5.28458C5.41108 20.1666 5.51375 20.2693 5.51375 20.3958C5.51375 20.5223 5.41108 20.625 5.28458 20.625H3.66667C3.41367 20.625 3.20833 20.4192 3.20833 20.1666V12.089C3.20833 12.0216 3.23812 11.957 3.28992 11.9134L10.5572 5.80156C10.8144 5.58569 11.1861 5.58615 11.4423 5.8011L18.7096 11.9029C18.7619 11.946 18.7917 12.0106 18.7917 12.0784V20.1666C18.7917 20.4192 18.5863 20.625 18.3333 20.625Z" fill="black"/>
<path d="M11 9.62496C10.4945 9.62496 10.0833 9.21383 10.0833 8.70829C10.0833 8.20275 10.4945 7.79163 11 7.79163C11.5055 7.79163 11.9167 8.20275 11.9167 8.70829C11.9167 9.21383 11.5055 9.62496 11 9.62496ZM11 8.24996C10.747 8.24996 10.5417 8.45575 10.5417 8.70829C10.5417 8.96083 10.747 9.16663 11 9.16663C11.253 9.16663 11.4583 8.96083 11.4583 8.70829C11.4583 8.45575 11.253 8.24996 11 8.24996Z" fill="black"/>
<path d="M16.0417 17.875H12.375C12.122 17.875 11.9167 17.6692 11.9167 17.4167V14.8958C11.9167 14.7693 12.0193 14.6667 12.1458 14.6667C12.2723 14.6667 12.375 14.7693 12.375 14.8958V17.4167H16.0417V14.2083H12.1458C12.0193 14.2083 11.9167 14.1057 11.9167 13.9792C11.9167 13.8527 12.0193 13.75 12.1458 13.75H16.0417C16.2947 13.75 16.5 13.9558 16.5 14.2083V17.4167C16.5 17.6692 16.2947 17.875 16.0417 17.875Z" fill="black"/>
<path d="M10.3125 20.625C10.186 20.625 10.0833 20.5223 10.0833 20.3958V14.2083H6.41667V20.3958C6.41667 20.5223 6.314 20.625 6.1875 20.625C6.061 20.625 5.95833 20.5223 5.95833 20.3958V14.2083C5.95833 13.9558 6.16367 13.75 6.41667 13.75H10.0833C10.3363 13.75 10.5417 13.9558 10.5417 14.2083V20.3958C10.5417 20.5223 10.439 20.625 10.3125 20.625Z" fill="black"/>
<path d="M9.39583 17.4167C9.26933 17.4167 9.16666 17.314 9.16666 17.1875V16.7292C9.16666 16.6027 9.26933 16.5 9.39583 16.5C9.52233 16.5 9.625 16.6027 9.625 16.7292V17.1875C9.625 17.314 9.52233 17.4167 9.39583 17.4167Z" fill="black"/>
<path d="M10.3125 20.625H6.1875C6.061 20.625 5.95833 20.5223 5.95833 20.3958C5.95833 20.2693 6.061 20.1666 6.1875 20.1666H10.3125C10.439 20.1666 10.5417 20.2693 10.5417 20.3958C10.5417 20.5223 10.439 20.625 10.3125 20.625Z" fill="black"/>
</svg>
