<svg width="22" height="22" viewBox="0 0 22 22" fill="none" xmlns="http://www.w3.org/2000/svg">
<path d="M14.7812 2.0625H7.21875C6.76291 2.0625 6.32574 2.24358 6.00341 2.56591C5.68108 2.88824 5.5 3.32541 5.5 3.78125V18.2188C5.5 18.6746 5.68108 19.1118 6.00341 19.4341C6.32574 19.7564 6.76291 19.9375 7.21875 19.9375H14.7812C15.007 19.9375 15.2305 19.893 15.439 19.8067C15.6475 19.7203 15.837 19.5937 15.9966 19.4341C16.1562 19.2745 16.2828 19.085 16.3692 18.8765C16.4555 18.668 16.5 18.4445 16.5 18.2188V3.78125C16.5 3.55554 16.4555 3.33204 16.3692 3.12351C16.2828 2.91498 16.1562 2.72551 15.9966 2.56591C15.837 2.40631 15.6475 2.27971 15.439 2.19333C15.2305 2.10696 15.007 2.0625 14.7812 2.0625ZM15.8125 18.2188C15.8125 18.4923 15.7038 18.7546 15.5105 18.948C15.3171 19.1413 15.0548 19.25 14.7812 19.25H7.21875C6.94525 19.25 6.68294 19.1413 6.48955 18.948C6.29615 18.7546 6.1875 18.4923 6.1875 18.2188V3.78125C6.1875 3.50775 6.29615 3.24544 6.48955 3.05205C6.68294 2.85865 6.94525 2.75 7.21875 2.75H14.7812C15.0548 2.75 15.3171 2.85865 15.5105 3.05205C15.7038 3.24544 15.8125 3.50775 15.8125 3.78125V18.2188Z" fill="black"/>
<path d="M6.875 16.5H15.125V4.8125H6.875V16.5ZM7.5625 5.5H14.4375V15.8125H7.5625V5.5Z" fill="black"/>
<path d="M11 18.5625C11.3797 18.5625 11.6875 18.2547 11.6875 17.875C11.6875 17.4953 11.3797 17.1875 11 17.1875C10.6203 17.1875 10.3125 17.4953 10.3125 17.875C10.3125 18.2547 10.6203 18.5625 11 18.5625Z" fill="black"/>
<path d="M12.375 3.4375H9.625V4.125H12.375V3.4375Z" fill="black"/>
</svg>
