<svg width="22" height="22" viewBox="0 0 22 22" fill="none" xmlns="http://www.w3.org/2000/svg">
<path d="M20.2173 5.13354H19.8726V0.252197H11.5998V5.13354H10.9104V0.252197H2.63755V5.13354H2.29285C1.34251 5.13354 0.569344 5.91561 0.569344 6.87688V18.0342C0.569344 18.9955 1.34251 19.7776 2.29285 19.7776H6.77395V21.1723H5.39515V21.8696H17.115V21.1723H15.7362V19.7776H20.2173C21.1676 19.7776 21.9408 18.9955 21.9408 18.0342V6.87688C21.9408 5.91561 21.1676 5.13354 20.2173 5.13354ZM12.2892 0.949532H19.1832V7.22555H15.3915H12.2892V0.949532ZM7.80805 7.92288H10.9104H11.5998H14.7021V14.1989H7.80805V7.92288ZM11.5998 5.83088V7.22555H10.9104V5.83088H11.5998ZM3.32695 0.949532H10.221V7.22555H7.11865H3.32695V0.949532ZM2.29285 5.83088H2.63755V7.92288H7.11865V14.8962H15.3915V7.92288H19.8726V5.83088H20.2173C20.7874 5.83088 21.2514 6.30019 21.2514 6.87688V16.2909H1.25874V6.87688C1.25874 6.30019 1.72271 5.83088 2.29285 5.83088ZM15.0468 21.1723H7.46335V19.7776H15.0468V21.1723ZM20.2173 19.0802H2.29285C1.72271 19.0802 1.25874 18.6109 1.25874 18.0342V16.9882H21.2514V18.0342C21.2514 18.6109 20.7874 19.0802 20.2173 19.0802Z" fill="black"/>
<path d="M10.5375 20.6328H9.7991V21.448H10.5375V20.6328Z" fill="black"/>
<path d="M12.7526 20.6328H11.2758V21.448H12.7526V20.6328Z" fill="black"/>
<path d="M14.2293 20.6328H13.4909V21.448H14.2293V20.6328Z" fill="black"/>
<path d="M9.7991 15.5857L14.6857 12.8881L9.7991 10.1906V15.5857ZM10.5375 11.5096L13.0347 12.8881L10.5375 14.2667V11.5096Z" fill="black"/>
<path d="M19.2769 5.03869C19.593 4.68937 19.7672 4.22551 19.7672 3.73149C19.7672 2.71206 19.0163 1.88257 18.0929 1.88257C17.6459 1.88257 17.225 2.07496 16.909 2.42387L16.8137 2.52904L16.7185 2.42428C16.4024 2.07496 15.9816 1.88257 15.5345 1.88257C14.6111 1.88257 13.8602 2.71206 13.8602 3.73149C13.8602 4.22551 14.0345 4.68978 14.3505 5.03869L16.8137 7.75786L19.2769 5.03869ZM14.5986 3.73149C14.5986 3.16165 15.0187 2.69779 15.5345 2.69779C15.7844 2.69779 16.0192 2.8054 16.1964 3.00064L16.8137 3.68176L17.431 3.00064C17.6078 2.8054 17.843 2.69779 18.0929 2.69779C18.6087 2.69779 19.0288 3.16165 19.0288 3.73149C19.0288 4.00785 18.9314 4.26709 18.7549 4.46233L16.8137 6.60514L14.8725 4.46233C14.696 4.26709 14.5986 4.00744 14.5986 3.73149Z" fill="black"/>
<path d="M9.42986 2.69779V1.88257H7.58391C6.97328 1.88257 6.47635 2.43121 6.47635 3.1054V5.21845C6.36042 5.1728 6.23711 5.14345 6.10716 5.14345C5.49652 5.14345 4.99959 5.69209 4.99959 6.36628C4.99959 7.04047 5.49652 7.58911 6.10716 7.58911C6.7178 7.58911 7.21472 7.04047 7.21472 6.36628V3.1054C7.21472 2.88081 7.38012 2.69779 7.58391 2.69779H9.42986ZM6.10716 6.77389C5.90337 6.77389 5.73797 6.59087 5.73797 6.36628C5.73797 6.14169 5.90337 5.95867 6.10716 5.95867C6.31095 5.95867 6.47635 6.14169 6.47635 6.36628C6.47635 6.59087 6.31095 6.77389 6.10716 6.77389Z" fill="black"/>
</svg>
