<svg width="23" height="22" viewBox="0 0 23 22" fill="none" xmlns="http://www.w3.org/2000/svg">
<path d="M21.122 17.433H18.757V11.1355C18.7555 11.0736 18.7298 11.0147 18.6855 10.9714C18.6412 10.9282 18.5817 10.9039 18.5198 10.9039C18.4578 10.9039 18.3984 10.9282 18.354 10.9714C18.3097 11.0147 18.2841 11.0736 18.2826 11.1355V13.8855H15.4432C15.1707 13.8865 14.9097 13.9957 14.7176 14.1891C14.5255 14.3825 14.4181 14.6442 14.4188 14.9167V17.433H12.872V13.1911H16.0482C16.079 13.1913 16.1095 13.1855 16.1379 13.1738C16.1664 13.1621 16.1923 13.1449 16.214 13.1232C16.2358 13.1014 16.253 13.0756 16.2646 13.0471C16.2763 13.0186 16.2822 12.9881 16.282 12.9574V12.1667C16.2822 12.136 16.2763 12.1055 16.2647 12.077C16.253 12.0485 16.2358 12.0227 16.214 12.0009C16.1923 11.9791 16.1664 11.9619 16.138 11.9503C16.1095 11.9386 16.079 11.9327 16.0482 11.933H7.84633C7.78347 11.9322 7.72287 11.9564 7.67778 12.0002C7.63269 12.044 7.60678 12.1039 7.60571 12.1667V12.9574C7.60679 13.0202 7.63271 13.0801 7.6778 13.1239C7.72289 13.1677 7.78348 13.1918 7.84633 13.1911H11.0226V17.433H9.47571V14.9167C9.47646 14.6442 9.36899 14.3825 9.17692 14.1891C8.98485 13.9958 8.72388 13.8866 8.45133 13.8855H5.60508V11.1355C5.60508 11.0735 5.58046 11.014 5.53662 10.9702C5.49278 10.9264 5.43333 10.9017 5.37133 10.9017C5.30934 10.9017 5.24988 10.9264 5.20605 10.9702C5.16221 11.014 5.13758 11.0735 5.13758 11.1355V17.433H2.77258C2.71059 17.433 2.65113 17.4576 2.6073 17.5014C2.56346 17.5453 2.53883 17.6047 2.53883 17.6667C2.53883 17.7287 2.56346 17.7882 2.6073 17.832C2.65113 17.8759 2.71059 17.9005 2.77258 17.9005H21.122C21.184 17.9005 21.2434 17.8759 21.2872 17.832C21.3311 17.7882 21.3557 17.7287 21.3557 17.6667C21.3557 17.6047 21.3311 17.5453 21.2872 17.5014C21.2434 17.4576 21.184 17.433 21.122 17.433ZM5.60508 14.3599H8.45133C8.55621 14.3603 8.65886 14.3902 8.74759 14.4461C8.83632 14.502 8.90756 14.5817 8.95321 14.6761H5.60508V14.3599ZM9.00821 17.433H5.60508V15.1505H9.00821V17.433ZM8.08008 12.7236V12.4005H15.8145V12.7236H8.08008ZM12.4045 17.433H11.4901V13.1911H12.4045V17.433ZM18.2826 17.433H14.8863V15.1505H18.2826V17.433ZM18.2826 14.6761H14.9413C14.9862 14.5811 15.0573 14.5009 15.1462 14.4448C15.2351 14.3888 15.3381 14.3593 15.4432 14.3599H18.2826V14.6761Z" fill="black"/>
<path d="M21.3488 7.42976C21.348 7.39271 21.336 7.35678 21.3145 7.32663C21.3076 7.31288 21.3076 7.29913 21.3007 7.29226L18.6401 4.18476C18.6182 4.15871 18.5908 4.13781 18.5599 4.12355C18.529 4.10929 18.4954 4.10202 18.4613 4.10226H5.43321C5.39908 4.10132 5.36519 4.10828 5.33418 4.12259C5.30318 4.1369 5.2759 4.15818 5.25446 4.18476L2.59383 7.29226C2.58008 7.29913 2.58696 7.31288 2.58008 7.32663C2.5594 7.35781 2.54536 7.39291 2.53883 7.42976C2.5351 7.43346 2.53268 7.43829 2.53196 7.44351L2.53883 7.45038C2.53701 7.45038 2.53526 7.4511 2.53397 7.45239C2.53268 7.45368 2.53196 7.45543 2.53196 7.45726C2.53336 7.92662 2.72091 8.37626 3.05344 8.70751C3.38598 9.03875 3.83634 9.22455 4.30571 9.22413C4.61909 9.22396 4.92669 9.13966 5.19637 8.98003C5.46605 8.8204 5.68793 8.59129 5.83883 8.31663C5.99104 8.59212 6.21445 8.82168 6.48571 8.98131C6.75697 9.14094 7.06612 9.22479 7.38087 9.22409C7.69561 9.22338 8.00439 9.13816 8.27493 8.97732C8.54548 8.81648 8.76786 8.58593 8.91883 8.30975C9.06764 8.57689 9.28367 8.80049 9.54553 8.95839C9.80738 9.1163 10.106 9.20303 10.4117 9.20997C10.7174 9.21692 11.0196 9.14385 11.2883 8.998C11.5571 8.85216 11.7831 8.6386 11.9438 8.37851C12.1053 8.63917 12.3322 8.85304 12.602 8.99886C12.8717 9.14468 13.1749 9.21738 13.4814 9.20974C13.788 9.20209 14.0872 9.11436 14.3493 8.95527C14.6115 8.79619 14.8274 8.57127 14.9757 8.30288C15.1288 8.57722 15.3521 8.80587 15.6227 8.96535C15.8934 9.12484 16.2016 9.20941 16.5157 9.21038C16.8291 9.2102 17.1367 9.1259 17.4064 8.96627C17.676 8.80664 17.8979 8.57753 18.0488 8.30288C18.2379 8.64323 18.5343 8.91147 18.8918 9.06582C19.2492 9.22017 19.6477 9.25196 20.0251 9.15623C20.4025 9.06051 20.7376 8.84265 20.9783 8.53659C21.219 8.23053 21.3517 7.85346 21.3557 7.46413V7.44351C21.355 7.43829 21.3526 7.43347 21.3488 7.42976ZM11.6688 4.58351V7.22351H9.23508L10.067 4.58351H11.6688ZM4.30571 8.74288C4.00461 8.74227 3.7131 8.63701 3.48107 8.44511C3.24904 8.25322 3.09094 7.98664 3.03383 7.69101H5.58446C5.52582 7.98718 5.36635 8.25388 5.13318 8.4457C4.90001 8.63751 4.60764 8.74244 4.30571 8.74288ZM5.71508 7.22351H3.28133L5.53633 4.58351H7.43383L5.71508 7.22351ZM7.37883 8.74288C7.07695 8.74239 6.78456 8.63732 6.55142 8.44554C6.31827 8.25377 6.15878 7.98713 6.10008 7.69101H8.65758C8.59895 7.98717 8.43948 8.25386 8.20633 8.44568C7.97318 8.63749 7.68075 8.74243 7.37883 8.74288ZM8.74009 7.22351H6.27196L7.99758 4.58351H9.57883L8.74009 7.22351ZM10.452 8.74288C10.1501 8.74239 9.85768 8.63732 9.62454 8.44554C9.3914 8.25377 9.23191 7.98713 9.17321 7.69101H11.6963C11.6952 7.71868 11.6975 7.7464 11.7032 7.77351C11.6308 8.0505 11.4688 8.29578 11.2425 8.47114C11.0162 8.64649 10.7383 8.74195 10.452 8.74288ZM12.2188 4.56976H13.8207L14.6595 7.22351H12.2188V4.56976ZM13.4426 8.74288C13.1555 8.74212 12.8766 8.64674 12.6492 8.4715C12.4217 8.29626 12.2584 8.05094 12.1845 7.77351C12.1913 7.74601 12.1913 7.71851 12.1982 7.69101H14.7213C14.6627 7.98716 14.5032 8.25384 14.2701 8.44564C14.0369 8.63745 13.7445 8.7424 13.4426 8.74288ZM14.3157 4.56976H15.897L17.6226 7.22351H15.1545L14.3157 4.56976ZM16.5157 8.74288C16.2138 8.74243 15.9214 8.63738 15.6883 8.44559C15.4551 8.25381 15.2956 7.98715 15.237 7.69101H17.7876C17.7315 7.98714 17.5737 8.25437 17.3414 8.44647C17.1092 8.63858 16.8171 8.74333 16.5157 8.74288ZM16.4538 4.56976H18.3513L20.6201 7.22351H18.1863L16.4538 4.56976ZM19.5888 8.74288C19.2869 8.74241 18.9945 8.63734 18.7614 8.44556C18.5283 8.25378 18.3688 7.98713 18.3101 7.69101H20.8607C20.8036 7.98667 20.6455 8.25329 20.4135 8.4452C20.1814 8.63712 19.89 8.74227 19.5888 8.74288Z" fill="black"/>
</svg>
