<svg width="23" height="22" viewBox="0 0 23 22" fill="none" xmlns="http://www.w3.org/2000/svg">
<g clip-path="url(#clip0_327_935)">
<path d="M6.22611 0C4.86486 0 3.8697 0.175313 3.18736 0.77C2.50501 1.36469 2.26611 2.30141 2.26611 3.52V5.28H1.82611C1.34486 5.28 0.946106 5.67875 0.946106 6.16V9.68C0.946106 10.1613 1.34486 10.56 1.82611 10.56H2.26611V18.04C2.26611 18.578 2.43454 19.03 2.70611 19.3738V20.68C2.70611 21.4036 3.30251 22 4.02611 22H5.78611C6.5097 22 7.10611 21.4036 7.10611 20.68V20.24H16.7861V20.68C16.7861 21.4036 17.3825 22 18.1061 22H19.8661C20.5897 22 21.1861 21.4036 21.1861 20.68V19.3738C21.4577 19.03 21.6261 18.578 21.6261 18.04V10.56H22.0661C22.5474 10.56 22.9461 10.1613 22.9461 9.68V6.16C22.9461 5.67875 22.5474 5.28 22.0661 5.28H21.6261V3.96C21.6261 2.79641 21.5333 1.84422 21.0624 1.11375C20.5914 0.383281 19.7286 0 18.5461 0H6.22611ZM6.22611 0.88H18.5461C19.5636 0.88 20.0208 1.11891 20.3199 1.58125C20.6189 2.04359 20.7461 2.85313 20.7461 3.96V18.04C20.7461 18.6502 20.5708 18.8908 20.2099 19.085C19.8489 19.2792 19.2439 19.36 18.5461 19.36H5.34611C4.64829 19.36 4.04329 19.2792 3.68236 19.085C3.32142 18.8908 3.14611 18.6502 3.14611 18.04V3.52C3.14611 2.41313 3.3472 1.80813 3.76486 1.44375C4.18251 1.07938 4.94736 0.88 6.22611 0.88ZM7.54611 1.32C7.06486 1.32 6.66611 1.71875 6.66611 2.2V3.08C6.66611 3.56125 7.06486 3.96 7.54611 3.96H16.7861C17.2674 3.96 17.6661 3.56125 17.6661 3.08V2.2C17.6661 1.71875 17.2674 1.32 16.7861 1.32H7.54611ZM7.54611 2.2H16.7861V3.08H7.54611V2.2ZM5.78611 4.4C5.2722 4.4 4.80298 4.53062 4.47986 4.85375C4.15673 5.17688 4.02611 5.64609 4.02611 6.16V11.44C4.02611 11.9539 4.15673 12.4231 4.47986 12.7463C4.80298 13.0694 5.2722 13.2 5.78611 13.2L18.1061 13.1725C18.4653 13.1725 18.852 13.035 19.2061 12.76C19.5602 12.485 19.8661 12.0227 19.8661 11.44V6.16C19.8661 5.64609 19.7355 5.17688 19.4124 4.85375C19.0892 4.53062 18.62 4.4 18.1061 4.4H5.78611ZM5.78611 5.28H18.1061C18.4722 5.28 18.663 5.36937 18.7799 5.48625C18.8967 5.60313 18.9861 5.79391 18.9861 6.16V11.44C18.9861 11.7373 18.8606 11.9109 18.6699 12.0588C18.4791 12.2066 18.2075 12.2925 18.1061 12.2925L5.78611 12.32C5.42001 12.32 5.22923 12.2306 5.11236 12.1137C4.99548 11.9969 4.90611 11.8061 4.90611 11.44V6.16C4.90611 5.79391 4.99548 5.60313 5.11236 5.48625C5.22923 5.36937 5.42001 5.28 5.78611 5.28ZM1.82611 6.16H2.26611V9.68H1.82611V6.16ZM21.6261 6.16H22.0661V9.68H21.6261V6.16ZM6.00611 14.52C4.91814 14.52 4.02611 15.412 4.02611 16.5C4.02611 17.588 4.91814 18.48 6.00611 18.48C7.09407 18.48 7.98611 17.588 7.98611 16.5C7.98611 15.412 7.09407 14.52 6.00611 14.52ZM17.8861 14.52C16.7981 14.52 15.9061 15.412 15.9061 16.5C15.9061 17.588 16.7981 18.48 17.8861 18.48C18.9741 18.48 19.8661 17.588 19.8661 16.5C19.8661 15.412 18.9741 14.52 17.8861 14.52ZM6.00611 15.4C6.61798 15.4 7.10611 15.8881 7.10611 16.5C7.10611 17.1119 6.61798 17.6 6.00611 17.6C5.39423 17.6 4.90611 17.1119 4.90611 16.5C4.90611 15.8881 5.39423 15.4 6.00611 15.4ZM17.8861 15.4C18.498 15.4 18.9861 15.8881 18.9861 16.5C18.9861 17.1119 18.498 17.6 17.8861 17.6C17.2742 17.6 16.7861 17.1119 16.7861 16.5C16.7861 15.8881 17.2742 15.4 17.8861 15.4ZM3.58611 19.9925C4.11376 20.1919 4.71532 20.24 5.34611 20.24H6.22611V20.68C6.22611 20.9275 6.03361 21.12 5.78611 21.12H4.02611C3.77861 21.12 3.58611 20.9275 3.58611 20.68V19.9925ZM20.3061 19.9925V20.68C20.3061 20.9275 20.1136 21.12 19.8661 21.12H18.1061C17.8586 21.12 17.6661 20.9275 17.6661 20.68V20.24H18.5461C19.1769 20.24 19.7785 20.1919 20.3061 19.9925Z" fill="black"/>
</g>
<defs>
<clipPath id="clip0_327_935">
<rect width="22" height="22" fill="white" transform="translate(0.946106)"/>
</clipPath>
</defs>
</svg>
