<svg width="16" height="22" viewBox="0 0 16 22" fill="none" xmlns="http://www.w3.org/2000/svg">
<path d="M1.50713 4.22902L4.06619 5.34655C3.55879 6.09157 3.29406 6.94616 3.29406 7.84456C3.29406 10.2987 5.3016 12.3147 7.79449 12.3147C10.2874 12.3147 12.2949 10.3207 12.2949 7.84456C12.2949 6.96807 12.0302 6.09157 11.5448 5.36847L13.7951 4.31667V8.56767L13.1112 10.0139C13.067 10.1234 13.067 10.233 13.1332 10.3207C13.1994 10.4083 13.3097 10.474 13.42 10.474H14.7216C14.8319 10.474 14.9422 10.4302 14.9863 10.3207C15.0525 10.233 15.0525 10.1234 15.0084 10.0139L14.4128 8.56767V4.03181C14.4128 3.85651 14.3907 3.72504 14.0818 3.59357C14.0157 3.57165 7.94891 0.898347 7.94891 0.898347C7.86067 0.854522 7.77243 0.854522 7.68418 0.898347L1.50713 3.61548C1.39682 3.6593 1.30858 3.79078 1.30858 3.92225C1.30858 4.05373 1.37476 4.16329 1.50713 4.22902ZM11.611 7.84456C11.611 9.94815 9.89027 11.6573 7.77242 11.6573C5.65458 11.6573 3.93383 9.94815 3.93383 7.84456C3.93383 7.0338 4.19856 6.26687 4.66184 5.6095L7.66212 6.94616C7.70624 6.96807 7.75036 6.96807 7.79449 6.96807C7.83861 6.96807 7.88273 6.96807 7.92685 6.94616L10.883 5.63141C11.3684 6.28878 11.611 7.05572 11.611 7.84456ZM13.9274 9.81667L14.0818 9.48799L14.2142 9.81667H13.9274ZM7.81655 1.55572L13.1773 3.92225L7.81655 6.28878L2.45575 3.92225L7.81655 1.55572Z" fill="black"/>
<path d="M7.90479 13.1035C3.60292 13.1035 0.0952301 16.5876 0.0952301 20.8605C0.0952301 21.0358 0.249656 21.1892 0.426144 21.1892H15.3834C15.5599 21.1892 15.7144 21.0358 15.7144 20.8605C15.7144 16.5876 12.2067 13.1035 7.90479 13.1035ZM0.779118 20.5318C0.955606 16.7629 4.08825 13.7609 7.92685 13.7609C11.7655 13.7609 14.876 16.7848 15.0525 20.5318H0.779118Z" fill="black"/>
</svg>
