<svg width="23" height="22" viewBox="0 0 23 22" fill="none" xmlns="http://www.w3.org/2000/svg">
<g clip-path="url(#clip0_327_942)">
<path d="M17.944 22H15.3635C15.0641 22 14.8214 21.7589 14.8214 21.4615V19.411H7.34113V21.4615C7.34113 21.7589 7.09839 22 6.799 22H4.21852C3.91913 22 3.67639 21.7589 3.67639 21.4615V20.9945H1.63811C1.33871 20.9945 1.09597 20.7533 1.09597 20.456V15.0795C1.09597 14.7821 1.33871 14.541 1.63811 14.541H3.67632V14.074C3.67632 13.7766 3.91906 13.5355 4.21845 13.5355H6.79893C7.09833 13.5355 7.34107 13.7766 7.34107 14.074V16.1246H14.8214V14.074C14.8214 13.7766 15.0641 13.5355 15.3635 13.5355H17.944C18.2434 13.5355 18.4862 13.7766 18.4862 14.074V14.541H20.5244C20.8238 14.541 21.0665 14.7821 21.0665 15.0795V20.4559C21.0665 20.7533 20.8238 20.9944 20.5244 20.9944H18.4862V21.4615C18.4862 21.7589 18.2435 22 17.944 22ZM15.9057 20.923H17.402V14.6125H15.9057V20.923ZM4.76065 20.923H6.25687V14.6125H4.76065V20.923ZM18.4862 19.9174H19.9822V15.618H18.4862V19.9174ZM2.18024 19.9174H3.67632V15.618H2.18024V19.9174ZM7.34113 18.334H14.8215V17.2015H7.34113V18.334ZM9.86286 15.0355C9.77266 15.0355 9.68125 15.0131 9.59708 14.966C9.33625 14.82 9.24409 14.4915 9.39107 14.2325C10.3583 12.5287 11.6642 11.0883 13.2005 9.97975C12.53 9.05739 11.7641 8.21804 10.9181 7.47399C8.81601 9.72235 5.94704 11.2364 2.7593 11.6202C2.82992 11.9035 2.91537 12.1835 3.01573 12.4595C3.11745 12.7391 2.97168 13.0478 2.69005 13.1488C2.40827 13.2499 2.0977 13.105 1.99598 12.8253C1.61845 11.7871 1.42701 10.6983 1.42701 9.58921C1.42701 4.30166 5.7579 0 11.0813 0C16.4046 0 20.7355 4.30166 20.7355 9.58921C20.7355 10.5436 20.5929 11.4874 20.3116 12.3947C20.2234 12.679 19.9199 12.8382 19.6339 12.7508C19.3477 12.6633 19.1873 12.362 19.2754 12.0777C19.5247 11.2733 19.6512 10.436 19.6512 9.58921C19.6512 9.26148 19.6325 8.93812 19.596 8.61995C17.8428 8.82167 16.1804 9.39543 14.7052 10.2799C15.0246 10.785 15.3162 11.3066 15.5775 11.8417C15.7082 12.1092 15.5958 12.4314 15.3264 12.5612C15.057 12.6907 14.7326 12.5793 14.602 12.3116C14.3599 11.8158 14.0937 11.3366 13.805 10.8752C12.4071 11.891 11.2181 13.2069 10.3357 14.7614C10.2359 14.9369 10.0521 15.0355 9.86286 15.0355ZM4.52001 4.11891C3.26687 5.59933 2.51128 7.50825 2.51128 9.58921C2.51128 9.91459 2.52985 10.238 2.56678 10.5584C5.49816 10.2206 8.13942 8.84308 10.0803 6.78823C8.44735 5.54575 6.56378 4.63188 4.52001 4.11891ZM11.6171 6.66357C12.5404 7.47453 13.3747 8.39102 14.0981 9.38573C15.6972 8.41795 17.5012 7.78658 19.4047 7.55793C18.7279 4.82278 16.7166 2.60289 14.0986 1.62157C13.6362 3.49589 12.7761 5.2053 11.6171 6.66357ZM5.382 3.23735C7.32568 3.80666 9.1711 4.74221 10.7817 5.97748C11.8505 4.6269 12.6409 3.04235 13.06 1.30602C12.4248 1.15632 11.762 1.07696 11.0813 1.07696C8.89509 1.07696 6.8976 1.89411 5.382 3.23735Z" fill="black"/>
</g>
<defs>
<clipPath id="clip0_327_942">
<rect width="22.1492" height="22" fill="white" transform="translate(0.00669479)"/>
</clipPath>
</defs>
</svg>
