<svg width="23" height="22" viewBox="0 0 23 22" fill="none" xmlns="http://www.w3.org/2000/svg">
<path d="M20.8314 4.44935H16.6309C16.7559 4.36208 16.8733 4.26342 16.981 4.15247C17.4234 3.69858 17.6667 3.10133 17.6667 2.46941C17.6667 1.13544 16.5748 0.0500488 15.2314 0.0500488C14.7718 0.0500488 14.3767 0.197366 14.1828 0.285524L14.1793 0.28682C13.5992 0.553478 12.0994 1.84494 11.0813 2.75224C10.0632 1.84494 8.56345 0.553478 7.98283 0.28682L7.97974 0.285524C7.78546 0.197843 7.3908 0.0500488 6.93116 0.0500488C5.58766 0.0500488 4.49539 1.13538 4.49539 2.46941C4.49539 3.10092 4.73864 3.69858 5.18105 4.15247C5.28924 4.26301 5.40665 4.36208 5.53112 4.44935H1.33123C0.600991 4.44935 0.00669861 5.03958 0.00669861 5.7649V8.84995C0.00669861 9.57528 0.600991 10.1656 1.33123 10.1656H2.03365V20.2399C2.03365 21.1827 2.80628 21.9502 3.75553 21.9502H8.96567H9.84869H12.3136H13.1966H18.4076C19.3569 21.9502 20.1286 21.1827 20.1286 20.2399V10.1655H20.8315C21.5618 10.1655 22.156 9.57521 22.156 8.84989V5.7649C22.1559 5.03958 21.5616 4.44935 20.8314 4.44935ZM14.7047 1.4182C14.8747 1.34144 15.0711 1.29586 15.2314 1.29586C15.8826 1.29586 16.4128 1.82256 16.4128 2.46935C16.4128 3.10303 15.9153 3.61697 15.2791 3.64194H11.9634C13.0888 2.64129 14.34 1.58708 14.7047 1.4182ZM6.93164 1.29586C7.09149 1.29586 7.28838 1.34144 7.45792 1.4182C7.82263 1.58701 9.0738 2.64123 10.1997 3.64194H6.88355C6.24776 3.61697 5.7502 3.10296 5.7502 2.46935C5.7502 1.82256 6.27998 1.29586 6.93164 1.29586ZM1.33123 9.28849C1.0875 9.28849 0.889722 9.09157 0.889722 8.84995V5.7649C0.889722 5.52328 1.0875 5.32636 1.33123 5.32636H8.96567V9.28842H2.03365L1.33123 9.28849ZM8.9656 21.073H3.75594C3.29327 21.073 2.91709 20.699 2.91709 20.2398V10.1655H8.96608V21.073H8.9656ZM12.3135 21.073H9.84862V10.1655V9.28842V5.32636H12.3135V9.28842V10.1655V21.073ZM19.2455 20.2394C19.2455 20.699 18.8693 21.0726 18.4076 21.0726H13.1965V10.1655H19.2455V20.2394ZM21.2729 8.84995C21.2729 9.09157 21.0746 9.28849 20.8314 9.28849H20.1285H13.1965V5.32636H20.8314C21.0746 5.32636 21.2729 5.52328 21.2729 5.7649V8.84995Z" fill="black"/>
</svg>
