<svg width="22" height="19" viewBox="0 0 22 19" fill="none" xmlns="http://www.w3.org/2000/svg">
<path d="M20.9149 6.625H16.4461V5.25H16.7899C16.881 5.25 16.9685 5.21378 17.0329 5.14932C17.0974 5.08485 17.1336 4.99742 17.1336 4.90625V3.53125C17.1336 3.44008 17.0974 3.35265 17.0329 3.28818C16.9685 3.22372 16.881 3.1875 16.7899 3.1875H14.3836V1.125C14.3836 1.03383 14.3474 0.946398 14.2829 0.881932C14.2185 0.817466 14.131 0.78125 14.0399 0.78125H7.85236C7.76119 0.78125 7.67375 0.817466 7.60929 0.881932C7.54482 0.946398 7.50861 1.03383 7.50861 1.125V3.1875H5.10236C5.01119 3.1875 4.92375 3.22372 4.85929 3.28818C4.79482 3.35265 4.75861 3.44008 4.75861 3.53125V4.90625C4.75861 4.99742 4.79482 5.08485 4.85929 5.14932C4.92375 5.21378 5.01119 5.25 5.10236 5.25H5.44611V6.625H0.977356C0.886188 6.625 0.798754 6.66122 0.734288 6.72568C0.669822 6.79015 0.633606 6.87758 0.633606 6.96875V17.9688C0.633606 18.0599 0.669822 18.1474 0.734288 18.2118C0.798754 18.2763 0.886188 18.3125 0.977356 18.3125H20.9149C21.006 18.3125 21.0935 18.2763 21.1579 18.2118C21.2224 18.1474 21.2586 18.0599 21.2586 17.9688V6.96875C21.2586 6.87758 21.2224 6.79015 21.1579 6.72568C21.0935 6.66122 21.006 6.625 20.9149 6.625ZM5.44611 17.625H1.32111V7.3125H5.44611V17.625ZM8.19611 1.46875H13.6961V6.96875H8.19611V1.46875ZM5.44611 4.5625V3.875H7.50861V4.5625H5.44611ZM10.6024 17.625H9.22736V14.875H10.6024V17.625ZM12.6649 17.625H11.2899V14.875H12.6649V17.625ZM15.7586 17.625H13.3524V14.5312C13.3524 14.4401 13.3161 14.3526 13.2517 14.2882C13.1872 14.2237 13.0998 14.1875 13.0086 14.1875H8.88361C8.79244 14.1875 8.705 14.2237 8.64054 14.2882C8.57607 14.3526 8.53986 14.4401 8.53986 14.5312V17.625H6.13361V5.25H7.50861V7.3125C7.50861 7.40367 7.54482 7.4911 7.60929 7.55557C7.67375 7.62003 7.76119 7.65625 7.85236 7.65625H14.0399C14.131 7.65625 14.2185 7.62003 14.2829 7.55557C14.3474 7.4911 14.3836 7.40367 14.3836 7.3125V5.25H15.7586V17.625ZM14.3836 4.5625V3.875H16.4461V4.5625H14.3836ZM20.5711 17.625H16.4461V7.3125H20.5711V17.625Z" fill="black"/>
<path d="M12.6649 3.1875H11.9774V2.5C11.9774 2.40883 11.9411 2.3214 11.8767 2.25693C11.8122 2.19247 11.7248 2.15625 11.6336 2.15625H10.2586C10.1674 2.15625 10.08 2.19247 10.0155 2.25693C9.95107 2.3214 9.91486 2.40883 9.91486 2.5V3.1875H9.22736C9.13619 3.1875 9.04875 3.22372 8.98429 3.28818C8.91982 3.35265 8.88361 3.44008 8.88361 3.53125V4.90625C8.88361 4.99742 8.91982 5.08485 8.98429 5.14932C9.04875 5.21378 9.13619 5.25 9.22736 5.25H9.91486V5.9375C9.91486 6.02867 9.95107 6.1161 10.0155 6.18057C10.08 6.24503 10.1674 6.28125 10.2586 6.28125H11.6336C11.7248 6.28125 11.8122 6.24503 11.8767 6.18057C11.9411 6.1161 11.9774 6.02867 11.9774 5.9375V5.25H12.6649C12.756 5.25 12.8435 5.21378 12.9079 5.14932C12.9724 5.08485 13.0086 4.99742 13.0086 4.90625V3.53125C13.0086 3.44008 12.9724 3.35265 12.9079 3.28818C12.8435 3.22372 12.756 3.1875 12.6649 3.1875ZM12.3211 4.5625H11.6336C11.5424 4.5625 11.455 4.59872 11.3905 4.66318C11.3261 4.72765 11.2899 4.81508 11.2899 4.90625V5.59375H10.6024V4.90625C10.6024 4.81508 10.5661 4.72765 10.5017 4.66318C10.4372 4.59872 10.3498 4.5625 10.2586 4.5625H9.57111V3.875H10.2586C10.3498 3.875 10.4372 3.83878 10.5017 3.77432C10.5661 3.70985 10.6024 3.62242 10.6024 3.53125V2.84375H11.2899V3.53125C11.2899 3.62242 11.3261 3.70985 11.3905 3.77432C11.455 3.83878 11.5424 3.875 11.6336 3.875H12.3211V4.5625Z" fill="black"/>
<path d="M7.85236 8.6875H7.16486V9.375H7.85236V8.6875Z" fill="black"/>
<path d="M9.22736 8.6875H8.53986V9.375H9.22736V8.6875Z" fill="black"/>
<path d="M10.6024 8.6875H9.91486V9.375H10.6024V8.6875Z" fill="black"/>
<path d="M11.9774 8.6875H11.2899V9.375H11.9774V8.6875Z" fill="black"/>
<path d="M13.3524 8.6875H12.6649V9.375H13.3524V8.6875Z" fill="black"/>
<path d="M14.7274 8.6875H14.0399V9.375H14.7274V8.6875Z" fill="black"/>
<path d="M7.85236 10.0625H7.16486V10.75H7.85236V10.0625Z" fill="black"/>
<path d="M9.22736 10.0625H8.53986V10.75H9.22736V10.0625Z" fill="black"/>
<path d="M10.6024 10.0625H9.91486V10.75H10.6024V10.0625Z" fill="black"/>
<path d="M11.9774 10.0625H11.2899V10.75H11.9774V10.0625Z" fill="black"/>
<path d="M13.3524 10.0625H12.6649V10.75H13.3524V10.0625Z" fill="black"/>
<path d="M14.7274 10.0625H14.0399V10.75H14.7274V10.0625Z" fill="black"/>
<path d="M18.1649 8.6875H17.4774V9.375H18.1649V8.6875Z" fill="black"/>
<path d="M19.5399 8.6875H18.8524V9.375H19.5399V8.6875Z" fill="black"/>
<path d="M18.1649 10.0625H17.4774V10.75H18.1649V10.0625Z" fill="black"/>
<path d="M19.5399 10.0625H18.8524V10.75H19.5399V10.0625Z" fill="black"/>
<path d="M18.1649 11.4375H17.4774V12.125H18.1649V11.4375Z" fill="black"/>
<path d="M19.5399 11.4375H18.8524V12.125H19.5399V11.4375Z" fill="black"/>
<path d="M18.1649 12.8125H17.4774V13.5H18.1649V12.8125Z" fill="black"/>
<path d="M19.5399 12.8125H18.8524V13.5H19.5399V12.8125Z" fill="black"/>
<path d="M18.1649 14.1875H17.4774V14.875H18.1649V14.1875Z" fill="black"/>
<path d="M19.5399 14.1875H18.8524V14.875H19.5399V14.1875Z" fill="black"/>
<path d="M18.1649 15.5625H17.4774V16.25H18.1649V15.5625Z" fill="black"/>
<path d="M19.5399 15.5625H18.8524V16.25H19.5399V15.5625Z" fill="black"/>
<path d="M3.03986 8.6875H2.35236V9.375H3.03986V8.6875Z" fill="black"/>
<path d="M4.41486 8.6875H3.72736V9.375H4.41486V8.6875Z" fill="black"/>
<path d="M3.03986 10.0625H2.35236V10.75H3.03986V10.0625Z" fill="black"/>
<path d="M4.41486 10.0625H3.72736V10.75H4.41486V10.0625Z" fill="black"/>
<path d="M3.03986 11.4375H2.35236V12.125H3.03986V11.4375Z" fill="black"/>
<path d="M4.41486 11.4375H3.72736V12.125H4.41486V11.4375Z" fill="black"/>
<path d="M3.03986 12.8125H2.35236V13.5H3.03986V12.8125Z" fill="black"/>
<path d="M4.41486 12.8125H3.72736V13.5H4.41486V12.8125Z" fill="black"/>
<path d="M3.03986 15.5625H2.35236V16.25H3.03986V15.5625Z" fill="black"/>
<path d="M4.41486 15.5625H3.72736V16.25H4.41486V15.5625Z" fill="black"/>
<path d="M3.03986 14.1875H2.35236V14.875H3.03986V14.1875Z" fill="black"/>
<path d="M4.41486 14.1875H3.72736V14.875H4.41486V14.1875Z" fill="black"/>
<path d="M7.85236 11.4375H7.16486V12.125H7.85236V11.4375Z" fill="black"/>
<path d="M9.22736 11.4375H8.53986V12.125H9.22736V11.4375Z" fill="black"/>
<path d="M10.6024 11.4375H9.91486V12.125H10.6024V11.4375Z" fill="black"/>
<path d="M11.9774 11.4375H11.2899V12.125H11.9774V11.4375Z" fill="black"/>
<path d="M13.3524 11.4375H12.6649V12.125H13.3524V11.4375Z" fill="black"/>
<path d="M14.7274 11.4375H14.0399V12.125H14.7274V11.4375Z" fill="black"/>
<path d="M7.85236 12.8125H7.16486V13.5H7.85236V12.8125Z" fill="black"/>
<path d="M9.22736 12.8125H8.53986V13.5H9.22736V12.8125Z" fill="black"/>
<path d="M10.6024 12.8125H9.91486V13.5H10.6024V12.8125Z" fill="black"/>
<path d="M11.9774 12.8125H11.2899V13.5H11.9774V12.8125Z" fill="black"/>
<path d="M13.3524 12.8125H12.6649V13.5H13.3524V12.8125Z" fill="black"/>
<path d="M14.7274 12.8125H14.0399V13.5H14.7274V12.8125Z" fill="black"/>
</svg>
