<svg width="23" height="22" viewBox="0 0 23 22" fill="none" xmlns="http://www.w3.org/2000/svg">
<g clip-path="url(#clip0_327_875)">
<path d="M8.4972 5.13333H13.6653C13.8698 5.13333 14.0345 5.29687 14.0345 5.5C14.0345 5.70313 13.8698 5.86667 13.6653 5.86667H8.4972C8.29269 5.86667 8.12805 5.70313 8.12805 5.5C8.12805 5.29687 8.29269 5.13333 8.4972 5.13333ZM3.32907 5.13333C2.7207 5.13333 2.2792 5.64227 2.22309 6.19667L0.746477 20.8633C0.681506 21.5087 1.24409 22 1.85246 22H20.3101C20.9184 22 21.481 21.5072 21.4161 20.8633L19.9395 6.19667C19.8833 5.643 19.4418 5.13333 18.8335 5.13333H16.6186C16.1239 5.13333 16.1387 5.86667 16.6186 5.86667H18.8335C19.0432 5.86667 19.1783 6.01627 19.2041 6.27L20.6807 20.9367C20.6977 21.1017 20.5198 21.2667 20.3101 21.2667H1.85246C1.64278 21.2667 1.46485 21.1017 1.48183 20.9367L2.95844 6.27C2.98428 6.01627 3.11939 5.86667 3.32907 5.86667H5.54398C6.03865 5.86667 6.02683 5.13333 5.54398 5.13333H3.32907ZM11.0813 0C8.63896 0 6.65144 1.97413 6.65144 4.4V7.7C6.65144 8.18767 7.38975 8.18767 7.38975 7.7V4.4C7.38975 2.37087 9.03838 0.733333 11.0813 0.733333C13.1242 0.733333 14.7728 2.37087 14.7728 4.4V7.7C14.7728 8.18767 15.5111 8.1818 15.5111 7.7V4.4C15.5111 1.97413 13.5236 0 11.0813 0Z" fill="black"/>
</g>
<defs>
<clipPath id="clip0_327_875">
<rect width="22.1492" height="22" fill="white" transform="translate(0.00669861)"/>
</clipPath>
</defs>
</svg>
