<svg width="39" height="39" viewBox="0 0 39 39" fill="none" xmlns="http://www.w3.org/2000/svg">
<path d="M36.9053 15.1201H27.2041C27.2219 15.0085 27.2314 14.894 27.2314 14.7773C27.2314 13.6482 26.3644 12.7177 25.2611 12.616V11.1592H32.6016C33.7147 11.1592 34.6201 10.2537 34.6201 9.14062V4.83691C34.6201 3.72379 33.7147 2.81836 32.6016 2.81836H6.39844C5.28532 2.81836 4.37988 3.72379 4.37988 4.83691V9.14062C4.37988 10.2537 5.28532 11.1592 6.39844 11.1592H13.7389V12.616C12.6356 12.7177 11.7686 13.6479 11.7686 14.7773C11.7686 14.894 11.7781 15.0085 11.7959 15.1201H2.09473C0.939652 15.1201 0 16.0598 0 17.2148V34.125C0 35.2801 0.939652 36.2197 2.09473 36.2197H26.124C26.4397 36.2197 26.6953 35.9638 26.6953 35.6484C26.6953 35.333 26.4397 35.0771 26.124 35.0771H2.09473C1.56956 35.0771 1.14258 34.6502 1.14258 34.125V17.2148C1.14258 16.6897 1.56956 16.2627 2.09473 16.2627H12.3583C12.7546 16.6843 13.3167 16.9482 13.9395 16.9482H25.0605C25.6833 16.9482 26.2454 16.6843 26.6417 16.2627H36.9053C37.4304 16.2627 37.8574 16.6897 37.8574 17.2148V34.125C37.8574 34.6502 37.4304 35.0771 36.9053 35.0771H28.793C28.4773 35.0771 28.2217 35.333 28.2217 35.6484C28.2217 35.9638 28.4773 36.2197 28.793 36.2197H36.9053C38.0603 36.2197 39 35.2801 39 34.125V17.2148C39 16.0598 38.0603 15.1201 36.9053 15.1201ZM22.1136 11.1592C22.429 11.1592 22.6849 10.9033 22.6849 10.5879C22.6849 10.2725 22.429 10.0166 22.1136 10.0166H6.39844C5.91552 10.0166 5.52246 9.62354 5.52246 9.14062V4.83691C5.52246 4.354 5.91552 3.96094 6.39844 3.96094H32.6016C33.0845 3.96094 33.4775 4.354 33.4775 4.83691V9.14062C33.4775 9.62354 33.0845 10.0166 32.6016 10.0166H24.6901C24.3744 10.0166 24.1188 10.2725 24.1188 10.5879V12.6064H14.8815V11.1592H22.1136ZM25.0605 15.8057H13.9395C13.3723 15.8057 12.9111 15.3445 12.9111 14.7773C12.9111 14.2102 13.3723 13.749 13.9395 13.749H25.0605C25.6277 13.749 26.0889 14.2102 26.0889 14.7773C26.0889 15.3445 25.6277 15.8057 25.0605 15.8057Z" fill="black"/>
<path d="M8.15753 28.419C7.92545 28.2053 7.56422 28.2199 7.35029 28.452C7.13635 28.6841 7.15123 29.0456 7.38332 29.2592C9.2159 30.9478 11.5984 31.8779 14.0918 31.8779H24.9082C30.3685 31.8779 34.8105 27.4356 34.8105 21.9756V19.2715C34.8105 18.2423 33.9735 17.4053 32.9443 17.4053H6.05566C5.02675 17.4053 4.18945 18.2423 4.18945 19.2715V21.9756C4.18945 23.7647 4.67207 25.5185 5.58495 27.0467C5.74651 27.3177 6.09732 27.4058 6.36839 27.2442C6.63915 27.0824 6.72752 26.7316 6.56566 26.4608C5.75871 25.1096 5.33203 23.5585 5.33203 21.9756V19.2715C5.33203 18.8725 5.65665 18.5479 6.05566 18.5479H32.9443C33.3433 18.5479 33.668 18.8725 33.668 19.2715V21.9756C33.668 26.8057 29.7383 30.7354 24.9082 30.7354H14.0918C11.8861 30.7354 9.77856 29.9126 8.15753 28.419Z" fill="black"/>
<path d="M18.7558 28.0937C18.9599 28.291 19.2226 28.3898 19.4857 28.3898C19.7463 28.3898 20.0073 28.2925 20.2114 28.0982C20.9865 27.3585 22.8399 25.5881 23.3071 25.1236C23.8831 24.5514 24.4172 23.8772 24.4243 22.8289C24.4297 22.036 24.1262 21.2885 23.5695 20.7241C23.0125 20.1593 22.2692 19.8457 21.4762 19.8404C20.7416 19.8386 20.048 20.0957 19.5071 20.5685C18.9629 20.0858 18.2648 19.8204 17.515 19.8282C16.7185 19.8356 15.974 20.1593 15.4185 20.7396C14.8564 21.3266 14.55 22.1312 14.5779 22.9465C14.6089 23.859 14.9784 24.3916 15.6946 25.1123C16.2707 25.6922 18.0271 27.3906 18.7558 28.0937ZM16.2439 21.5295C16.5846 21.1737 17.0398 20.9752 17.5257 20.9707C17.5317 20.9707 17.5376 20.9704 17.5436 20.9704C18.1158 20.9704 18.6433 21.2305 18.9926 21.6852C19.1155 21.8449 19.3015 21.9369 19.5029 21.9375H19.5047C19.7055 21.9375 19.8912 21.8467 20.0141 21.6884C20.3637 21.2394 20.8886 20.9829 21.4557 20.9829H21.4685C21.9562 20.9862 22.4135 21.1793 22.7557 21.5266C23.0982 21.8735 23.285 22.3335 23.2818 22.8212C23.2782 23.3541 23.0738 23.7448 22.5016 24.3134C22.0538 24.7582 20.2917 26.442 19.486 27.2109C18.7266 26.4774 17.0577 24.8632 16.5051 24.3071C15.8517 23.6499 15.736 23.3812 15.7196 22.9075C15.7024 22.3981 15.8934 21.8958 16.2439 21.5295Z" fill="black"/>
</svg>
