<svg width="39" height="39" viewBox="0 0 39 39" fill="none" xmlns="http://www.w3.org/2000/svg">
<g clip-path="url(#clip0_508_3413)">
<path d="M38.9719 36.356L37.5371 27.6831C37.1051 25.071 35.8384 22.668 33.9431 20.8369V9.0347C33.9431 8.97192 33.9327 8.90913 33.9124 8.84962L33.3025 7.07089C33.1769 6.70491 32.8457 6.46836 32.4589 6.46836C32.0721 6.46836 31.7409 6.70491 31.6154 7.07089L31.0054 8.84962C30.9852 8.90943 30.9748 8.97192 30.9748 9.0347V18.7213C30.0452 18.2485 29.0592 17.895 28.0406 17.6701L28.0755 9.86158C28.2216 9.68871 28.354 9.50214 28.4697 9.30368L30.4329 5.93784C30.8486 5.22521 31.0238 4.42303 30.9399 3.61787C30.9072 3.30455 30.6272 3.07603 30.3127 3.10936C29.9991 3.14209 29.7715 3.42297 29.8042 3.73659C29.8628 4.29865 29.7393 4.86102 29.4469 5.36238L27.4836 8.72823C27.4226 8.83237 27.3551 8.93145 27.2828 9.02577L23.0157 9.00673C22.9443 8.91181 22.8776 8.81243 22.8178 8.7077L20.8844 5.3243C20.4012 4.47897 20.4056 3.47177 20.8963 2.63061C21.3848 1.79301 22.2537 1.29433 23.2225 1.29433H23.2353L27.1319 1.31158C27.7312 1.31426 28.293 1.5041 28.756 1.86056C29.0062 2.05307 29.3644 2.00636 29.5566 1.75642C29.7492 1.50677 29.7024 1.14823 29.4528 0.956017C28.7896 0.445427 27.9889 0.17347 27.137 0.169601L23.2403 0.152344C23.2341 0.152344 23.2284 0.152344 23.2222 0.152344C21.8431 0.152344 20.6059 0.862885 19.9102 2.05545C19.2116 3.25307 19.2053 4.68695 19.8932 5.89082L21.8264 9.27393C21.9195 9.43728 22.0249 9.5923 22.1388 9.73899L22.1046 17.3803H19.9614L19.9917 13.4789C20.8683 12.7031 21.5042 11.3341 21.5042 10.1639C21.5042 8.42205 20.0872 7.00484 18.3454 7.00484C16.6036 7.00484 15.1864 8.42205 15.1864 10.1639C15.1864 11.3193 15.8115 12.6782 16.6741 13.4571L16.6437 17.3803H13.6109C13.4356 17.3803 13.2609 17.385 13.0869 17.3925V4.23914C13.0869 3.46284 12.4552 2.83115 11.6786 2.83115H10.0802C9.30357 2.83115 8.67188 3.46284 8.67188 4.23914V18.4089C8.55852 18.4583 8.44605 18.5095 8.33447 18.5624V8.73031C8.33447 7.95371 7.70278 7.32202 6.92618 7.32202H6.30699C5.53069 7.32202 4.899 7.95401 4.899 8.73031V20.9889C4.29587 21.5941 3.74958 22.2663 3.2735 23.0015C3.10212 23.266 3.1774 23.6195 3.44221 23.7912C3.70673 23.9626 4.06022 23.887 4.2316 23.6225C6.30074 20.4286 9.80702 18.522 13.6109 18.522H25.3895C30.8795 18.522 35.5147 22.4531 36.4106 27.8697L37.8454 36.5423C37.8918 36.8232 37.813 37.1091 37.6285 37.326C37.4443 37.5435 37.1753 37.6679 36.8906 37.6679H35.8465C35.5311 37.6679 35.2755 37.9235 35.2755 38.2389C35.2755 38.554 35.5311 38.8099 35.8465 38.8099H36.8906C37.5112 38.8099 38.0977 38.5382 38.4994 38.0648C38.9008 37.5914 39.0731 36.9687 38.9719 36.356ZM10.0802 3.97284H11.6786C11.8256 3.97284 11.9449 4.09245 11.9449 4.23914V9.07278H9.81387V4.23914C9.81357 4.09245 9.93318 3.97284 10.0802 3.97284ZM9.81357 10.2145H11.9449V17.493C11.2165 17.5915 10.5033 17.7528 9.81357 17.9754V10.2145ZM6.04068 14.6402H7.19278V19.1795C6.79437 19.4229 6.40964 19.6889 6.04068 19.9773V14.6402ZM6.30699 8.464H6.92618C7.07317 8.464 7.19278 8.58332 7.19278 8.73031V13.4985H6.04068V8.73031C6.04068 8.58332 6.1603 8.464 6.30699 8.464ZM32.1164 9.12991L32.4589 8.13075L32.8014 9.12991V19.8621C32.5782 19.6937 32.3497 19.5333 32.1164 19.3813V9.12991ZM16.328 10.1639C16.328 9.05166 17.2329 8.14682 18.3451 8.14682C19.4573 8.14682 20.3622 9.05166 20.3622 10.1639C20.3622 11.0107 19.8662 12.0721 19.2306 12.6285L17.451 12.6204C16.8205 12.0625 16.328 11.0033 16.328 10.1639ZM17.8137 13.7639L18.8477 13.7684L18.8197 17.3803H17.7854L17.8137 13.7639ZM23.2463 17.3803L23.2787 10.1496L26.9323 10.1657L26.8996 17.474C26.4006 17.4121 25.8965 17.3803 25.3895 17.3803H23.2463Z" fill="black"/>
<path d="M33.3721 37.6679H2.10953C1.82478 37.6679 1.5558 37.5435 1.37162 37.3263C1.18744 37.1091 1.10829 36.8234 1.15471 36.5423L2.58947 27.8697C2.69867 27.2097 2.86738 26.5575 3.09084 25.9312C3.19677 25.6342 3.04204 25.3075 2.74509 25.2016C2.44814 25.0956 2.12143 25.2504 2.01551 25.5473C1.76914 26.2376 1.58317 26.9562 1.46296 27.6831L0.0284944 36.356C-0.0729688 36.9686 0.0993104 37.5914 0.500998 38.0648C0.902387 38.5382 1.48885 38.8099 2.10953 38.8099H33.3721C33.6875 38.8099 33.9431 38.5543 33.9431 38.2389C33.9428 37.9238 33.6875 37.6679 33.3721 37.6679Z" fill="black"/>
</g>
<defs>
<clipPath id="clip0_508_3413">
<rect width="39" height="39" fill="white"/>
</clipPath>
</defs>
</svg>
