<svg width="39" height="39" viewBox="0 0 39 39" fill="none" xmlns="http://www.w3.org/2000/svg">
<path d="M9.14062 39H15.2284C16.9033 39 18.2655 37.6411 18.2738 35.9671C18.2738 35.9623 18.2765 35.9585 18.2765 35.9543V22.5487C18.2765 22.2118 18.0039 21.9393 17.6671 21.9393H17.0625V12.9085C17.0625 12.8876 17.0527 12.8701 17.0503 12.8498C17.0527 12.8299 17.0625 12.812 17.0625 12.7915C17.0625 12.4544 16.7902 12.1821 16.4531 12.1821H15.8438V0.609375C15.8438 0.272255 15.5715 0 15.2344 0C11.5386 0 8.53125 3.0073 8.53125 6.70312V12.1821H7.92188C7.58475 12.1821 7.3125 12.4544 7.3125 12.7915V21.9393H6.70312C6.366 21.9393 6.09375 22.2118 6.09375 22.5487V35.9543V35.9555C6.09554 37.6343 7.46127 39 9.14062 39ZM14.583 1.2607C14.2849 3.76396 12.2961 5.75246 9.79255 6.0512C10.0907 3.54765 12.0789 1.56004 14.583 1.2607ZM9.75 7.28156C11.7647 7.09856 13.5214 6.02174 14.625 4.451V12.1821H9.75V7.28156ZM8.53125 13.4009H15.8438V21.9393H8.53125V13.4009ZM7.3125 23.158H17.0577V35.9472C17.0577 35.9496 17.0565 35.9507 17.0565 35.9531C17.0565 36.9609 16.2362 37.7812 15.2284 37.7812H9.14062C8.13284 37.7812 7.3125 36.9609 7.3125 35.9531V23.158Z" fill="black"/>
<path d="M29.8545 36.5637C30.1913 36.5637 30.4639 36.2915 30.4639 35.9543V23.7686C30.4639 23.4318 30.1913 23.1592 29.8545 23.1592C29.5174 23.1592 29.2451 23.4318 29.2451 23.7686V35.9543C29.2451 36.2915 29.5174 36.5637 29.8545 36.5637Z" fill="black"/>
<path d="M21.3306 18.8894C20.9937 18.8894 20.7212 19.1617 20.7212 19.4988V35.9543V35.9555C20.723 37.6343 22.0887 39 23.7681 39H29.8559C31.5311 39 32.8929 37.6411 32.9016 35.9671C32.9016 35.9623 32.9039 35.9585 32.9039 35.9543V19.4988C32.9039 19.1617 32.6314 18.8894 32.2946 18.8894H21.3306ZM31.6852 35.9472C31.6852 35.9496 31.684 35.9507 31.684 35.9531C31.684 36.9609 30.8637 37.7812 29.8559 37.7812H23.7681C22.7603 37.7812 21.9399 36.9609 21.9399 35.9531V21.9345H31.6852V35.9472ZM31.6852 20.7158H21.9399V20.1082H31.6852V20.7158Z" fill="black"/>
<path d="M15.2285 36.5625C15.5653 36.5625 15.8379 36.2902 15.8379 35.9531V24.375C15.8379 24.0379 15.5653 23.7656 15.2285 23.7656C14.8914 23.7656 14.6191 24.0379 14.6191 24.375V35.9531C14.6191 36.2902 14.8914 36.5625 15.2285 36.5625Z" fill="black"/>
</svg>
