<svg width="39" height="39" viewBox="0 0 39 39" fill="none" xmlns="http://www.w3.org/2000/svg">
<g clip-path="url(#clip0_508_3363)">
<path d="M38.0226 29.017C38.0015 29.0382 35.8746 31.1389 33.6192 31.1389C32.2981 31.1389 30.998 30.1781 29.6215 29.1607C27.972 27.9415 26.1023 26.5597 23.7738 26.5597C22.1424 26.5597 20.6162 27.0855 19.4998 28.0177C18.3834 27.0855 16.8573 26.5597 15.2259 26.5597C13.1502 26.5597 11.4793 27.6382 10.0762 28.6491L10.7454 29.578C12.0035 28.6716 13.4911 27.7045 15.2259 27.7045C16.7375 27.7045 18.1818 28.262 19.0894 29.1958L19.4998 29.6182L19.9103 29.1958C20.8179 28.262 22.2621 27.7045 23.7738 27.7045C25.0145 27.7045 26.1271 28.1932 27.1794 28.8493H23.7738V29.9941H28.823C28.8624 30.0232 28.9018 30.0523 28.9411 30.0814C29.4433 30.4526 29.9364 30.8167 30.4322 31.1389H26.7503V32.2838H33.6192C35.248 32.2838 36.7564 31.4414 37.7279 30.7424C37.2089 33.427 35.1344 35.8038 32.1509 37.0126L32.5809 38.0736C34.4645 37.3105 36.0606 36.1183 37.1968 34.6261C38.3763 33.077 38.9997 31.2774 38.9998 29.4217V28.0398L38.0226 29.017Z" fill="black"/>
<path d="M27.7427 37.8552C24.6965 37.8552 21.8412 36.7241 19.9089 34.752L19.5 34.3347L19.0911 34.752C17.1588 36.7241 14.3035 37.8552 11.2573 37.8552C6.21863 37.8552 2.02892 34.7662 1.26815 30.7397C2.23941 31.4393 3.74972 32.2838 5.38063 32.2838C6.94345 32.2838 8.31898 31.3638 9.82724 30.2523L9.14813 29.3307C7.75772 30.3552 6.59756 31.1389 5.38063 31.1389C3.13481 31.1389 0.998049 29.0378 0.977213 29.017L0 28.0399V29.4217C0 34.7032 5.05 39 11.2573 39C14.4021 39 17.3725 37.894 19.5 35.9482C21.6275 37.894 24.5979 39 27.7427 39C29.0129 39 30.2597 38.8215 31.4484 38.4695L31.1233 37.3718C30.0402 37.6925 28.9028 37.8552 27.7427 37.8552Z" fill="black"/>
<path d="M9.32969 13.0748C9.80715 13.7566 10.3023 14.4256 10.8015 15.0634L11.703 14.3577C11.2163 13.736 10.7333 13.0834 10.2674 12.4182C8.44528 9.81579 6.92566 7.08915 5.7507 4.31404C5.63187 4.03303 5.57157 3.7366 5.57157 3.43284C5.57157 2.68787 5.93692 1.98724 6.54894 1.55878C6.93573 1.28792 7.3861 1.14481 7.85143 1.14481C8.8027 1.14481 9.64314 1.71852 9.99246 2.60644C10.1417 2.98575 10.2993 3.36926 10.461 3.74629L11.5132 3.29523C11.356 2.92866 11.2028 2.55584 11.0577 2.18728C10.535 0.858534 9.27642 0 7.85143 0C7.15004 0 6.47262 0.214691 5.89227 0.620947C4.97467 1.26349 4.42676 2.31466 4.42676 3.43284C4.42676 3.89077 4.5175 4.33747 4.69655 4.76029C5.90273 7.60927 7.46151 10.4067 9.32969 13.0748Z" fill="black"/>
<path d="M15.0192 11.886C17.0754 14.8227 19.2789 17.2766 21.7553 19.388C22.1296 19.7073 22.3444 20.171 22.3444 20.6605C22.3444 21.2095 22.0866 21.7049 21.6371 22.0196C21.3575 22.2154 21.0288 22.3189 20.6867 22.3189C20.3465 22.3189 20.0174 22.2166 19.7353 22.0232C17.1069 20.2212 14.6426 17.9383 12.4108 15.2379L11.5283 15.9672C12.9018 17.6291 14.3627 19.1372 15.895 20.4802L13.195 23.6979L13.6334 24.0658C14.3115 24.6347 15.1382 24.9125 15.9608 24.9125C16.9961 24.9125 18.0248 24.4723 18.7408 23.619L19.2183 23.05C19.6619 23.3202 20.1658 23.4638 20.6866 23.4638C21.2649 23.4638 21.8206 23.2887 22.2937 22.9574C23.0423 22.4333 23.4891 21.5747 23.4891 20.6605C23.4891 19.9704 23.2357 19.3116 22.7844 18.8L34.8074 4.47164L31.5918 1.77339L30.2763 0.66964C29.7617 0.237816 29.1088 0 28.4378 0C27.589 0 26.7895 0.372675 26.2443 1.0224L25.649 1.7318L26.5259 2.46776L27.1212 1.75836C27.4484 1.36843 27.9283 1.14481 28.4378 1.14481C28.8401 1.14481 29.2317 1.28753 29.5405 1.54664L30.8559 2.65047L24.7237 9.95858L23.4083 8.85483C23.0184 8.52764 22.7948 8.04774 22.7948 7.53814C22.7948 7.13585 22.9375 6.74433 23.1966 6.43553L25.7901 3.34469L24.9132 2.6088L22.3195 5.69965C21.8878 6.21428 21.65 6.86721 21.65 7.53807C21.65 8.38691 22.0227 9.18645 22.6724 9.73168L23.9879 10.8355L19.7417 15.896C18.4122 14.491 17.1591 12.946 15.957 11.2293C14.403 9.00976 13.0623 6.68755 11.9725 4.32702L10.9331 4.80692C12.0514 7.22912 13.4261 9.61087 15.0192 11.886ZM17.864 22.8832C17.1114 23.7801 15.8542 24.0097 14.8508 23.5058L16.7679 21.221C17.264 21.6284 17.7672 22.0186 18.2768 22.3913L17.864 22.8832ZM31.733 3.38628L33.1945 4.61276L21.938 18.0278C21.4639 17.606 21.0001 17.1698 20.5455 16.7189L31.733 3.38628Z" fill="black"/>
<path d="M29.3071 14.6536H30.4519V15.7984H29.3071V14.6536Z" fill="black"/>
<path d="M29.3071 18.4697H30.4519V19.6145H29.3071V18.4697Z" fill="black"/>
<path d="M27.3994 16.5616H28.5442V17.7065H27.3994V16.5616Z" fill="black"/>
<path d="M31.2153 16.5616H32.3601V17.7065H31.2153V16.5616Z" fill="black"/>
<path d="M32.3599 22.2857H33.5047V23.4305H32.3599V22.2857Z" fill="black"/>
<path d="M32.3599 26.1017H33.5047V27.2466H32.3599V26.1017Z" fill="black"/>
<path d="M30.4521 24.1937H31.597V25.3385H30.4521V24.1937Z" fill="black"/>
<path d="M34.2681 24.1937H35.4129V25.3385H34.2681V24.1937Z" fill="black"/>
<path d="M6.41113 18.4697H7.55595V19.6145H6.41113V18.4697Z" fill="black"/>
<path d="M6.41113 22.2857H7.55595V23.4305H6.41113V22.2857Z" fill="black"/>
<path d="M4.50293 20.3777H5.64774V21.5225H4.50293V20.3777Z" fill="black"/>
<path d="M8.31885 20.3777H9.46366V21.5225H8.31885V20.3777Z" fill="black"/>
<path d="M7.36475 2.74756H8.50956V3.89237H7.36475V2.74756Z" fill="black"/>
<path d="M18.6602 19.0039H19.805V20.1487H18.6602V19.0039Z" fill="black"/>
<path d="M27.3184 3.3125L28.0818 2.40301L28.9587 3.13912L28.1953 4.04862L27.3184 3.3125Z" fill="black"/>
</g>
<defs>
<clipPath id="clip0_508_3363">
<rect width="39" height="39" fill="white"/>
</clipPath>
</defs>
</svg>
