<svg width="39" height="39" viewBox="0 0 39 39" fill="none" xmlns="http://www.w3.org/2000/svg">
<path d="M5.59082 34.5896C5.59082 34.8373 5.66425 35.0793 5.80181 35.2852C5.93938 35.4911 6.13491 35.6515 6.36368 35.7463C6.59244 35.8411 6.84417 35.8658 7.08703 35.8175C7.32988 35.7692 7.55296 35.65 7.72805 35.4749C7.90314 35.2998 8.02238 35.0767 8.07069 34.8339C8.11899 34.591 8.0942 34.3393 7.99944 34.1105C7.90468 33.8818 7.74422 33.6862 7.53833 33.5487C7.33245 33.4111 7.0904 33.3377 6.84278 33.3377C6.51085 33.338 6.19262 33.4701 5.95791 33.7048C5.7232 33.9395 5.59118 34.2577 5.59082 34.5896ZM7.18068 34.5896C7.18068 34.6565 7.16086 34.7218 7.12373 34.7774C7.0866 34.8329 7.03383 34.8762 6.97209 34.9018C6.91035 34.9274 6.84241 34.9341 6.77686 34.921C6.71131 34.908 6.65111 34.8758 6.60385 34.8286C6.55659 34.7813 6.52441 34.7211 6.51138 34.6556C6.49834 34.59 6.50503 34.5221 6.5306 34.4603C6.55618 34.3986 6.59949 34.3458 6.65505 34.3087C6.71062 34.2716 6.77595 34.2517 6.84278 34.2517C6.9323 34.2519 7.01809 34.2876 7.08135 34.351C7.14462 34.4143 7.1802 34.5001 7.1803 34.5896H7.18068Z" fill="black"/>
<path d="M34.4161 2.30893C34.3782 2.23283 34.3198 2.16886 34.2474 2.12428C34.175 2.07969 34.0916 2.05626 34.0066 2.05665H13.4789C13.3939 2.05626 13.3105 2.07969 13.2381 2.12428C13.1657 2.16886 13.1073 2.23283 13.0693 2.30893L10.3989 7.7025C10.3244 7.78676 10.2832 7.89532 10.2831 8.0078V24.2009C9.87705 24.4459 9.53564 24.7845 9.28739 25.1885C9.03915 25.5926 8.89129 26.0502 8.8562 26.5231C8.60063 26.718 8.31275 26.8664 8.00574 26.9616L8.0043 26.9503C7.95899 26.8009 7.86704 26.67 7.74192 26.5767C7.61681 26.4833 7.46509 26.4325 7.309 26.4316H2.53531C2.42283 26.4321 2.31197 26.4585 2.21137 26.5088C2.11076 26.5591 2.02311 26.632 1.95524 26.7217C1.88737 26.8114 1.84111 26.9155 1.82005 27.026C1.799 27.1365 1.80372 27.2504 1.83384 27.3587L4.35605 36.4121C4.39915 36.565 4.49101 36.6996 4.61765 36.7955C4.7443 36.8914 4.8988 36.9433 5.05766 36.9434H10.1086C10.2223 36.9438 10.3344 36.9175 10.436 36.8667C10.5377 36.8158 10.6259 36.7418 10.6937 36.6506C10.7615 36.5594 10.8069 36.4535 10.8262 36.3415C10.8456 36.2296 10.8384 36.1146 10.8051 36.0059L10.1476 33.8503L12.5288 32.3452C12.8355 32.1765 13.1948 32.1303 13.5342 32.2162C13.5479 32.2196 13.5618 32.2225 13.5757 32.2247L17.78 32.8748C18.9879 33.0618 20.2226 32.8021 21.2528 32.1443L29.4871 26.8887H36.7356C36.8513 26.8887 36.9622 26.8427 37.044 26.761C37.1258 26.6792 37.1717 26.5682 37.1717 26.4526V8.15839C37.2069 8.04642 37.1974 7.9252 37.1453 7.82004L34.4161 2.30893ZM24.2225 2.97071H33.7228L35.9872 7.54102H24.2225V2.97071ZM23.7426 8.47984C23.7928 8.47975 23.8426 8.47138 23.89 8.45508H26.9647V11.7305H20.7948V8.45508H23.5953C23.6427 8.47137 23.6925 8.47974 23.7426 8.47984ZM5.19873 36.0293L2.78013 27.3457H7.16001L9.82602 36.0293H5.19873ZM20.761 31.3892C19.9173 31.9249 18.9071 32.1346 17.9198 31.979L13.7354 31.3281C13.1724 31.1909 12.5784 31.2719 12.0727 31.555C12.0656 31.559 12.0585 31.5626 12.0516 31.5665L9.8686 32.9461L8.27692 27.8256C8.7692 27.6694 9.2231 27.4114 9.60909 27.0683C9.65688 27.0288 9.69538 26.9793 9.72185 26.9232C9.74831 26.8672 9.76209 26.8059 9.76219 26.7439C9.76284 26.4716 9.81724 26.2021 9.92228 25.9508C10.0273 25.6995 10.1809 25.4715 10.3743 25.2797C10.5676 25.0879 10.797 24.9362 11.0491 24.8332C11.3012 24.7303 11.5712 24.6781 11.8435 24.6797H11.9863C12.4318 24.6773 12.8713 24.5756 13.2727 24.3821C13.674 24.1886 14.0272 23.908 14.3066 23.5609L16.1173 21.3324C16.2919 21.1154 16.5416 20.9718 16.817 20.9301C17.0923 20.8884 17.3734 20.9517 17.6043 21.1074L17.6348 21.1256C17.8706 21.2834 18.0408 21.5217 18.1137 21.7959C18.1866 22.0701 18.1572 22.3614 18.0309 22.6155C17.3072 24.054 16.2312 26.1956 16.2312 26.1956C16.1962 26.268 16.1796 26.3479 16.183 26.4283C16.1864 26.5086 16.2096 26.5869 16.2506 26.656C16.2907 26.7243 16.3473 26.7814 16.4153 26.822C16.4832 26.8627 16.5603 26.8856 16.6394 26.8887H27.8375L20.761 31.3892ZM21.0233 25.9746V21.61L21.3256 21.9262C21.3681 21.9707 21.4191 22.0063 21.4756 22.0307C21.532 22.0552 21.5928 22.0681 21.6544 22.0686C21.7158 22.0687 21.7767 22.0567 21.8334 22.0331C21.8901 22.0096 21.9417 21.9751 21.985 21.9315L22.7821 21.1191L23.5689 21.9299C23.6115 21.9738 23.6625 22.0087 23.7188 22.0326C23.7752 22.0564 23.8357 22.0687 23.8969 22.0687C23.9581 22.0687 24.0187 22.0564 24.075 22.0326C24.1314 22.0087 24.1823 21.9738 24.2249 21.9299L25.0116 21.1193L25.8086 21.9316C25.8517 21.9753 25.9031 22.01 25.9598 22.0335C26.0164 22.057 26.0772 22.069 26.1386 22.0687C26.1977 22.0681 26.256 22.0551 26.3098 22.0306C26.3636 22.0061 26.4117 21.9706 26.4509 21.9264L26.7362 21.61V25.9746H21.0233ZM36.2577 25.9746H27.6502V20.4645C27.6537 20.3743 27.6293 20.2852 27.5805 20.2092C27.5317 20.1333 27.4607 20.0742 27.3772 20.0399C27.2937 20.0055 27.2017 19.9977 27.1136 20.0174C27.0254 20.037 26.9455 20.0833 26.8845 20.1498L26.1257 20.9531L25.3346 20.1574C25.2918 20.1158 25.2409 20.0833 25.1852 20.062C25.1294 20.0407 25.0699 20.0309 25.0103 20.0332H25.0091C24.9489 20.0309 24.8889 20.0409 24.8327 20.0626C24.7766 20.0842 24.7254 20.117 24.6823 20.159L23.8977 20.9615L23.1131 20.1623C23.0702 20.1198 23.0191 20.0865 22.963 20.0643C22.9068 20.0421 22.8467 20.0315 22.7864 20.0332H22.7851C22.7252 20.0309 22.6654 20.0406 22.6093 20.062C22.5533 20.0833 22.5021 20.1158 22.4589 20.1574L21.6656 20.9596L20.903 20.153C20.8402 20.0861 20.7587 20.0396 20.6692 20.0195C20.5796 19.9993 20.4861 20.0065 20.4007 20.04C20.3152 20.0735 20.2418 20.1319 20.1898 20.2075C20.1379 20.2832 20.1098 20.3727 20.1092 20.4645V25.9746H17.3805C17.7563 25.2129 18.3765 23.977 18.8473 23.0408C19.0732 22.5864 19.1265 22.0654 18.9973 21.5747C18.868 21.084 18.565 20.6569 18.1446 20.3727L18.1141 20.3485C17.6952 20.0638 17.1846 19.9469 16.6835 20.0209C16.1824 20.0949 15.7274 20.3544 15.4087 20.7481L13.5981 22.9841C13.4042 23.2258 13.159 23.4213 12.8802 23.5565C12.6014 23.6917 12.2961 23.7631 11.9863 23.7656H11.8435C11.6262 23.7658 11.4094 23.7893 11.1971 23.8358V8.45508H14.0155C14.1367 8.45508 14.2529 8.40693 14.3386 8.32122C14.4244 8.23551 14.4725 8.11926 14.4725 7.99805C14.4725 7.87684 14.4244 7.76059 14.3386 7.67488C14.2529 7.58917 14.1367 7.54102 14.0155 7.54102H11.4983L13.7627 2.97071H23.3084V7.54102H17.0624C16.9411 7.54102 16.8249 7.58917 16.7392 7.67488C16.6535 7.76059 16.6053 7.87684 16.6053 7.99805C16.6053 8.11926 16.6535 8.23551 16.7392 8.32122C16.8249 8.40693 16.9411 8.45508 17.0624 8.45508H19.8807V12.1711C19.8798 12.2938 19.9269 12.4121 20.0121 12.5006C20.0972 12.5891 20.2136 12.6407 20.3363 12.6445H27.4578C27.7101 12.6445 27.8788 12.4236 27.8788 12.1711V8.45508H36.2577V25.9746Z" fill="black"/>
<path d="M13.4062 10.189C13.285 10.189 13.1688 10.2371 13.0831 10.3228C12.9974 10.4085 12.9492 10.5248 12.9492 10.646V11.1259C12.9492 11.2471 12.9974 11.3633 13.0831 11.449C13.1688 11.5348 13.285 11.5829 13.4062 11.5829C13.5275 11.5829 13.6437 11.5348 13.7294 11.449C13.8151 11.3633 13.8633 11.2471 13.8633 11.1259V10.646C13.8633 10.5248 13.8151 10.4085 13.7294 10.3228C13.6437 10.2371 13.5275 10.189 13.4062 10.189Z" fill="black"/>
<path d="M13.4062 12.1158C13.285 12.1158 13.1688 12.1639 13.0831 12.2496C12.9974 12.3353 12.9492 12.4516 12.9492 12.5728V17.6001C12.9492 17.7213 12.9974 17.8376 13.0831 17.9233C13.1688 18.009 13.285 18.0572 13.4062 18.0572C13.5275 18.0572 13.6437 18.009 13.7294 17.9233C13.8151 17.8376 13.8633 17.7213 13.8633 17.6001V12.5728C13.8633 12.4516 13.8151 12.3353 13.7294 12.2496C13.6437 12.1639 13.5275 12.1158 13.4062 12.1158Z" fill="black"/>
</svg>
