<svg width="39" height="39" viewBox="0 0 39 39" fill="none" xmlns="http://www.w3.org/2000/svg">
<g clip-path="url(#clip0_508_3016)">
<path d="M0.044751 34.6737C0.0507812 34.688 0.053955 34.7023 0.059668 34.7166C0.0656983 34.7309 0.0644287 34.7328 0.0682373 34.7404L1.36824 37.3404C1.47837 37.561 1.70371 37.7 1.95 37.7H9.75C9.99629 37.7 10.2216 37.561 10.3318 37.3404L11.6318 34.7404C11.6356 34.7328 11.6362 34.7242 11.6403 34.7166C11.6441 34.7087 11.6492 34.688 11.6552 34.6737C11.6791 34.6093 11.6927 34.5417 11.6956 34.4735C11.6956 34.4655 11.7 34.4586 11.7 34.45V20.15C11.7 20.1414 11.6956 20.1344 11.6956 20.1265C11.6927 20.0583 11.6791 19.9907 11.6552 19.9262C11.6492 19.912 11.646 19.8977 11.6403 19.8834C11.6343 19.8691 11.6356 19.8672 11.6318 19.8596L10.3318 17.2596C10.2216 17.039 9.99629 16.9 9.75 16.9H1.95C1.70371 16.9 1.47837 17.039 1.36824 17.2596L0.0682373 19.8596C0.0644287 19.8672 0.0637939 19.8758 0.059668 19.8834C0.0558594 19.8913 0.0507812 19.912 0.044751 19.9262C0.0209472 19.9904 0.00729981 20.0576 0.00444336 20.1259C0.00444336 20.1344 0 20.1414 0 20.15V34.45C0 34.4586 0.00444336 34.4655 0.00444336 34.4741C0.00729981 34.5424 0.0209472 34.6096 0.044751 34.6737ZM9.34819 36.4H2.35181L1.70181 35.1H9.99819L9.34819 36.4ZM2.35181 18.2H9.34819L9.99819 19.5H1.70181L2.35181 18.2ZM1.3 20.8H10.4V22.3101L9.36914 22.7227C8.25005 23.1712 7.05542 23.4009 5.85 23.4C4.47922 23.3987 3.12083 23.6606 1.84875 24.1709L1.3 24.3899V20.8ZM1.3 25.7899L2.33086 25.3773C3.44995 24.9288 4.64458 24.699 5.85 24.7C7.22078 24.7013 8.57917 24.4394 9.85124 23.9291L10.4 23.7101V28.8101L9.36914 29.2227C8.25005 29.6712 7.05542 29.9009 5.85 29.9C4.47922 29.8987 3.12083 30.1606 1.84875 30.6709L1.3 30.8899V25.7899ZM1.3 32.2899L2.33086 31.8773C3.44995 31.4288 4.64458 31.199 5.85 31.2C7.22078 31.2013 8.57917 30.9394 9.85124 30.4291L10.4 30.2101V33.8H1.3V32.2899Z" fill="black"/>
<path d="M14.95 37.7H22.75C23.8269 37.7 24.7 36.8269 24.7 35.75V20.8962C24.6987 18.5913 24.1113 16.3246 22.9931 14.3092C21.9823 12.4868 21.4513 10.4374 21.45 8.35382V1.94999C21.45 1.59103 21.159 1.29999 20.8 1.29999H16.9C16.541 1.29999 16.25 1.59103 16.25 1.94999V8.35382C16.2487 10.4374 15.7177 12.4868 14.7069 14.3092C13.5887 16.3246 13.0013 18.5913 13 20.8962V35.75C13 36.8269 13.8731 37.7 14.95 37.7ZM23.4 20.8962V30.55H16.9V20.8H23.3968C23.4 20.8317 23.4 20.8651 23.4 20.8962ZM17.55 2.59999H20.15V3.89999H17.55V2.59999ZM14.3 20.8962C14.3013 18.8125 14.8323 16.7632 15.8431 14.9408C16.9613 12.9254 17.5487 10.6587 17.55 8.35382V5.19999H20.15V8.35382C20.1513 10.6587 20.7387 12.9254 21.8569 14.9408C22.6373 16.3503 23.1331 17.8994 23.3156 19.5H16.25C15.891 19.5 15.6 19.791 15.6 20.15V31.2C15.6 31.5589 15.891 31.85 16.25 31.85H23.4V35.75C23.4 36.109 23.109 36.4 22.75 36.4H14.95C14.591 36.4 14.3 36.109 14.3 35.75V20.8962Z" fill="black"/>
<path d="M28.6 37.7C29.3395 37.6994 30.0441 37.3845 30.5376 36.8335L30.5506 36.8193C31.0442 37.3788 31.7545 37.6994 32.5006 37.6994C33.2468 37.6994 33.9571 37.3788 34.4506 36.8193C35.166 37.6295 36.308 37.913 37.3191 37.5308C38.3303 37.1487 38.9994 36.181 39 35.1V17.55C38.9952 14.9681 37.4651 12.6331 35.1 11.5978V11.05H35.75V9.74999H35.1V8.44999C35.1 7.73207 34.5179 7.14999 33.8 7.14999H31.2C30.4821 7.14999 29.9 7.73207 29.9 8.44999V9.74999H29.25V11.05H29.9V11.5978C27.5349 12.6331 26.0048 14.9681 26 17.55V35.1C26 36.5358 27.1642 37.7 28.6 37.7ZM31.2 8.44999H33.8V9.74999H31.2V8.44999ZM27.3 17.55C27.3044 15.3489 28.6924 13.3882 30.7671 12.6528C31.0267 12.5611 31.2 12.3154 31.2 12.0399V11.05H33.8V12.0399C33.8 12.3154 33.9733 12.5611 34.2329 12.6528C36.3076 13.3882 37.6956 15.3489 37.7 17.55V18.2H27.3V17.55ZM27.3 19.5H37.7V30.55H27.3V19.5ZM27.3 31.85H37.7V35.1C37.7 35.8179 37.1179 36.4 36.4 36.4C35.6821 36.4 35.1 35.8179 35.1 35.1C35.1 34.741 34.809 34.45 34.45 34.45C34.091 34.45 33.8 34.741 33.8 35.1C33.8 35.8179 33.2179 36.4 32.5 36.4C31.7821 36.4 31.2 35.8179 31.2 35.1C31.2 34.741 30.909 34.45 30.55 34.45C30.191 34.45 29.9 34.741 29.9 35.1C29.9 35.8179 29.3179 36.4 28.6 36.4C27.8821 36.4 27.3 35.8179 27.3 35.1V31.85Z" fill="black"/>
</g>
<defs>
<clipPath id="clip0_508_3016">
<rect width="39" height="39" fill="white"/>
</clipPath>
</defs>
</svg>
