<svg width="39" height="39" viewBox="0 0 39 39" fill="none" xmlns="http://www.w3.org/2000/svg">
<path d="M28.2895 18.4571H26.6872C26.3262 18.4571 26.0335 18.7498 26.0335 19.1108V29.0642C26.0335 29.4253 26.3262 29.718 26.6872 29.718H28.2895C31.3941 29.718 33.9199 27.1922 33.9199 24.0876C33.9199 20.983 31.3942 18.4571 28.2895 18.4571ZM28.2895 28.4105H27.3409V19.7646H28.2895C30.6732 19.7646 32.6125 21.7038 32.6125 24.0875C32.6125 26.4712 30.6732 28.4105 28.2895 28.4105ZM28.3966 14.887H27.3409V9.35207C27.3409 9.11485 27.2141 8.90771 27.025 8.79314C28.0957 7.87573 28.7762 6.51527 28.7762 4.99807C28.7762 2.24208 26.5341 0 23.7781 0C21.9197 0 20.295 1.01955 19.4337 2.52858C18.5726 1.01955 16.9479 0 15.0895 0C13.231 0 11.6064 1.01955 10.7451 2.52858C9.88399 1.01955 8.25926 0 6.4009 0C3.645 0 1.40283 2.24208 1.40283 4.99799C1.40283 6.51519 2.08327 7.87573 3.15398 8.79306C2.96481 8.90763 2.83799 9.11477 2.83799 9.35199V36.712C2.83799 37.9736 3.8644 39 5.12599 39H25.0528C26.3144 39 27.3408 37.9736 27.3408 36.712V33.2881H28.3965C33.4697 33.2881 37.597 29.1607 37.597 24.0875C37.597 19.0143 33.4698 14.887 28.3966 14.887ZM2.71027 4.99799C2.71027 2.96305 4.36588 1.30743 6.4009 1.30743C8.43364 1.30743 10.0879 2.95921 10.0915 4.99113C10.0914 4.99521 10.0914 4.9993 10.0914 5.00289C10.0914 5.36391 10.3843 5.65661 10.7453 5.65661C11.1064 5.65661 11.3991 5.36391 11.3991 5.00289C11.3991 4.99864 11.3991 4.99399 11.3989 4.98925C11.4035 2.95815 13.0574 1.30743 15.0895 1.30743C17.1222 1.30743 18.7764 2.95921 18.7801 4.99113C18.78 4.99521 18.78 4.9993 18.78 5.00289C18.78 5.36391 19.0729 5.65661 19.434 5.65661C19.7951 5.65661 20.0877 5.36391 20.0877 5.00289C20.0877 4.9993 20.0877 4.99521 20.0876 4.99113C20.0911 2.95921 21.7453 1.30743 23.7781 1.30743C25.8131 1.30743 27.4687 2.96305 27.4687 4.99799C27.4687 7.03301 25.8131 8.68863 23.7781 8.68863H6.4009C4.36588 8.68863 2.71027 7.03301 2.71027 4.99799ZM28.3966 31.9806H26.6872C26.3262 31.9806 26.0335 32.2733 26.0335 32.6344V36.712C26.0335 37.2527 25.5936 37.6926 25.0529 37.6926H5.12608C4.58537 37.6926 4.1455 37.2527 4.1455 36.712V14.4675H20.813C21.174 14.4675 21.4667 14.1748 21.4667 13.8138C21.4667 13.4528 21.174 13.1601 20.813 13.1601H4.1455V10.0057H26.0335V13.1601H24.9967C24.6357 13.1601 24.343 13.4528 24.343 13.8138C24.343 14.1748 24.6357 14.4675 24.9967 14.4675H26.0335V15.5407C26.0335 15.9017 26.3262 16.1944 26.6872 16.1944H28.3966C32.7489 16.1944 36.2896 19.7353 36.2896 24.0876C36.2896 28.4399 32.7489 31.9806 28.3966 31.9806ZM21.1819 18.6257V31.8798C21.1819 32.1907 21.4349 32.4436 21.7458 32.4436C22.0566 32.4436 22.3096 32.1906 22.3096 31.8798V22.6379C22.3096 22.2769 22.6023 21.9842 22.9633 21.9842C23.3243 21.9842 23.617 22.2769 23.617 22.6379V31.8798C23.617 32.9116 22.7776 33.7511 21.7458 33.7511C20.7139 33.7511 19.8745 32.9116 19.8745 31.8798V18.6257C19.8745 17.5939 20.7139 16.7545 21.7458 16.7545C22.7776 16.7545 23.617 17.5939 23.617 18.6257C23.617 18.9867 23.3243 19.2794 22.9633 19.2794C22.6023 19.2794 22.3096 18.9867 22.3096 18.6257C22.3096 18.3148 22.0567 18.0619 21.7458 18.0619C21.4348 18.0619 21.1819 18.3148 21.1819 18.6257ZM14.5256 18.6257V31.8798C14.5256 32.1907 14.7785 32.4436 15.0895 32.4436C15.4004 32.4436 15.6533 32.1906 15.6533 31.8798V22.6379C15.6533 22.2769 15.946 21.9842 16.307 21.9842C16.668 21.9842 16.9607 22.2769 16.9607 22.6379V31.8798C16.9607 32.9116 16.1213 33.7511 15.0895 33.7511C14.0576 33.7511 13.2182 32.9116 13.2182 31.8798V18.6257C13.2182 17.5939 14.0576 16.7545 15.0895 16.7545C16.1213 16.7545 16.9607 17.5939 16.9607 18.6257C16.9607 18.9867 16.668 19.2794 16.307 19.2794C15.946 19.2794 15.6533 18.9867 15.6533 18.6257C15.6533 18.3148 15.4004 18.0619 15.0895 18.0619C14.7785 18.0619 14.5256 18.3148 14.5256 18.6257ZM7.86932 18.6257V31.8798C7.86932 32.1907 8.12222 32.4436 8.43315 32.4436C8.74407 32.4436 8.99698 32.1906 8.99698 31.8798V22.6379C8.99698 22.2769 9.28968 21.9842 9.65069 21.9842C10.0117 21.9842 10.3044 22.2769 10.3044 22.6379V31.8798C10.3044 32.9116 9.46496 33.7511 8.43315 33.7511C7.40134 33.7511 6.56188 32.9116 6.56188 31.8798V18.6257C6.56188 17.5939 7.40134 16.7545 8.43315 16.7545C9.46496 16.7545 10.3044 17.5939 10.3044 18.6257C10.3044 18.9867 10.0117 19.2794 9.65069 19.2794C9.28968 19.2794 8.99698 18.9867 8.99698 18.6257C8.99698 18.3148 8.74407 18.0619 8.43315 18.0619C8.12222 18.0619 7.86932 18.3148 7.86932 18.6257Z" fill="black"/>
</svg>
