<svg width="39" height="39" viewBox="0 0 39 39" fill="none" xmlns="http://www.w3.org/2000/svg">
<path d="M24.6407 3.04688C24.6407 2.03897 23.8205 1.21875 22.8126 1.21875H3.04688C2.03897 1.21875 1.21875 2.03897 1.21875 3.04688V6.60563C1.21875 7.61353 2.03897 8.43375 3.04688 8.43375H3.55387V35.9531C3.55387 36.961 4.37409 37.7812 5.382 37.7812H20.4774C21.4853 37.7812 22.3056 36.961 22.3056 35.9531V8.43375H22.8126C23.8205 8.43375 24.6407 7.61353 24.6407 6.60563V3.04688ZM4.77262 26.8509H9.78047C10.1168 26.8509 10.3898 26.5779 10.3898 26.2415C10.3898 25.9051 10.1168 25.6321 9.78047 25.6321H4.77262V23.1075H9.78047C10.1168 23.1075 10.3898 22.8345 10.3898 22.4981C10.3898 22.1617 10.1168 21.8887 9.78047 21.8887H4.77262V19.3641H9.78047C10.1168 19.3641 10.3898 19.0911 10.3898 18.7547C10.3898 18.4184 10.1168 18.1454 9.78047 18.1454H4.77262V15.6951H12.9602C13.9681 15.6951 14.7883 16.5153 14.7883 17.5232V27.4725C14.7883 28.4804 13.9681 29.3006 12.9602 29.3006H4.77262V26.8509ZM21.0868 35.9531C21.0868 36.2889 20.8132 36.5625 20.4774 36.5625H5.382C5.04623 36.5625 4.77262 36.2889 4.77262 35.9531V30.5193H12.9602C14.6402 30.5193 16.0071 29.1525 16.0071 27.4725V17.5238C16.0071 15.8438 14.6402 14.4769 12.9602 14.4769H4.77262V8.43375H21.0868V35.9531ZM23.4219 6.60563C23.4219 6.94139 23.1483 7.215 22.8126 7.215H20.8516V5.53252C20.8516 5.19614 20.5786 4.92314 20.2422 4.92314C19.9058 4.92314 19.6328 5.19614 19.6328 5.53252V7.215H17.1953V5.53252C17.1953 5.19614 16.9223 4.92314 16.586 4.92314C16.2496 4.92314 15.9766 5.19614 15.9766 5.53252V7.215H13.5391V5.53252C13.5391 5.19614 13.2661 4.92314 12.9297 4.92314C12.5933 4.92314 12.3203 5.19614 12.3203 5.53252V7.215H9.88284V5.53252C9.88284 5.19614 9.60984 4.92314 9.27347 4.92314C8.93709 4.92314 8.66409 5.19614 8.66409 5.53252V7.215H6.22659V5.53252C6.22659 5.19614 5.95359 4.92314 5.61722 4.92314C5.28084 4.92314 5.00784 5.19614 5.00784 5.53252V7.215H3.04688C2.71111 7.215 2.4375 6.94139 2.4375 6.60563V3.04688C2.4375 2.71111 2.71111 2.4375 3.04688 2.4375H22.8126C23.1483 2.4375 23.4219 2.71111 23.4219 3.04688V6.60563Z" fill="black"/>
<path d="M31.0781 24.375C27.3823 24.375 24.375 27.3823 24.375 31.0781C24.375 34.774 27.3823 37.7812 31.0781 37.7812C34.774 37.7812 37.7812 34.774 37.7812 31.0781C37.7812 27.3823 34.774 24.375 31.0781 24.375ZM31.0781 25.5938C32.3712 25.5938 33.5589 26.0459 34.4973 26.7973L26.7973 34.4973C26.0459 33.5589 25.5938 32.3712 25.5938 31.0781C25.5938 28.0544 28.0544 25.5938 31.0781 25.5938ZM31.0781 36.5625C29.785 36.5625 28.5974 36.1103 27.6589 35.359L35.359 27.6589C36.1103 28.5974 36.5625 29.785 36.5625 31.0781C36.5625 34.1018 34.1018 36.5625 31.0781 36.5625Z" fill="black"/>
</svg>
