<svg width="39" height="39" viewBox="0 0 39 39" fill="none" xmlns="http://www.w3.org/2000/svg">
<g clip-path="url(#clip0_505_1841)">
<path d="M2.95465 21.9227H21.2138C21.5683 21.9227 21.8046 21.6863 21.8046 21.3318V15.4228C21.8046 15.0682 21.5092 14.8319 21.2138 14.8319H2.95465C2.60007 14.8319 2.36377 15.0683 2.36377 15.4228V21.3318C2.36377 21.6863 2.60007 21.9227 2.95465 21.9227ZM3.54552 16.0136H20.6228V20.7409H3.54552V16.0136Z" fill="black"/>
<path d="M5.79092 22.9864H3.30914C2.95457 22.9864 2.71826 23.2227 2.71826 23.5772V26C2.71826 26.3546 2.95464 26.5909 3.30914 26.5909H5.7319C6.08647 26.5909 6.32278 26.3545 6.32278 26V23.5181C6.38187 23.2227 6.08639 22.9864 5.79092 22.9864ZM3.90002 25.4091V24.1091H5.14094V25.4091H3.90002Z" fill="black"/>
<path d="M5.79092 27.95H3.30914C2.95457 27.95 2.71826 28.1864 2.71826 28.5409V31.0227C2.71826 31.3773 2.95464 31.6136 3.30914 31.6136H5.7319C6.08647 31.6136 6.32278 31.3772 6.32278 31.0227V28.5409C6.38187 28.1864 6.08639 27.95 5.79092 27.95ZM3.90002 30.4318V29.1318H5.14094V30.4318H3.90002Z" fill="black"/>
<path d="M5.79092 32.9136H3.30914C2.95457 32.9136 2.71826 33.15 2.71826 33.5045V35.9864C2.71826 36.3409 2.95464 36.5772 3.30914 36.5772H5.7319C6.08647 36.5772 6.32278 36.3409 6.32278 35.9864V33.5045C6.38187 33.2091 6.08639 32.9136 5.79092 32.9136ZM3.90002 35.3955V34.0955H5.14094V35.3955H3.90002Z" fill="black"/>
<path d="M10.8135 22.9864H8.3316C7.97703 22.9864 7.74072 23.2227 7.74072 23.5772V26C7.74072 26.3546 7.9771 26.5909 8.3316 26.5909H10.8135C11.168 26.5909 11.4043 26.3545 11.4043 26V23.5181C11.4044 23.2227 11.1089 22.9864 10.8135 22.9864ZM10.2226 25.4091H8.92256V24.1091H10.2226V25.4091Z" fill="black"/>
<path d="M10.8135 27.95H8.3316C7.97703 27.95 7.74072 28.1864 7.74072 28.5409V31.0227C7.74072 31.3773 7.9771 31.6136 8.3316 31.6136H10.8135C11.168 31.6136 11.4043 31.3772 11.4043 31.0227V28.5409C11.4044 28.1864 11.1089 27.95 10.8135 27.95ZM10.2226 30.4318H8.92256V29.1318H10.2226V30.4318Z" fill="black"/>
<path d="M10.8135 32.9136H8.3316C7.97703 32.9136 7.74072 33.15 7.74072 33.5045V35.9864C7.74072 36.3409 7.9771 36.5772 8.3316 36.5772H10.8135C11.168 36.5772 11.4043 36.3409 11.4043 35.9864V33.5045C11.4044 33.2091 11.1089 32.9136 10.8135 32.9136ZM10.2226 35.3955H8.92256V34.0955H10.2226V35.3955Z" fill="black"/>
<path d="M15.8364 22.9864H13.4136C13.0591 22.9864 12.8228 23.2227 12.8228 23.5772V26C12.8228 26.3546 13.0591 26.5909 13.4136 26.5909H15.8364C16.191 26.5909 16.4273 26.3545 16.4273 26V23.5181C16.4273 23.2227 16.1319 22.9864 15.8364 22.9864ZM15.2455 25.4091H14.0046V24.1091H15.2455V25.4091Z" fill="black"/>
<path d="M15.8364 27.95H13.4136C13.0591 27.95 12.8228 28.1864 12.8228 28.5409V31.0227C12.8228 31.3773 13.0591 31.6136 13.4136 31.6136H15.8364C16.191 31.6136 16.4273 31.3772 16.4273 31.0227V28.5409C16.4273 28.1864 16.1319 27.95 15.8364 27.95ZM15.2455 30.4318H14.0046V29.1318H15.2455V30.4318Z" fill="black"/>
<path d="M15.8364 32.9136H13.4136C13.0591 32.9136 12.8228 33.15 12.8228 33.5045V35.9864C12.8228 36.3409 13.0591 36.5772 13.4136 36.5772H15.8364C16.191 36.5772 16.4273 36.3409 16.4273 35.9864V33.5045C16.4273 33.2091 16.1319 32.9136 15.8364 32.9136ZM15.2455 35.3955H14.0046V34.0955H15.2455V35.3955Z" fill="black"/>
<path d="M20.7998 22.9864H18.377C18.0224 22.9864 17.7861 23.2227 17.7861 23.5772V26C17.7861 26.3546 18.0225 26.5909 18.377 26.5909H20.7998C21.1543 26.5909 21.3906 26.3545 21.3906 26V23.5181C21.3907 23.2227 21.1543 22.9864 20.7998 22.9864ZM20.2089 25.4091H18.968V24.1091H20.2089V25.4091Z" fill="black"/>
<path d="M20.7998 27.95H18.377C18.0224 27.95 17.7861 28.1864 17.7861 28.5409V35.9863C17.7861 36.3409 18.0225 36.5772 18.377 36.5772H20.7998C21.1543 36.5772 21.3906 36.3408 21.3906 35.9863V28.5409C21.3907 28.1864 21.1543 27.95 20.7998 27.95ZM20.2089 35.3955H18.968V29.1318H20.2089V35.3955Z" fill="black"/>
<path d="M38.8227 10.2818L28.3046 0.177287C28.1864 0.0590955 28.0091 0 27.8909 0H7.5636C7.20903 0 6.97272 0.236382 6.97272 0.590877V12.2909H0.590877C0.236304 12.2909 0 12.5272 0 12.8817V38.409C0 38.7636 0.236382 38.9999 0.590877 38.9999C0.945372 38.9999 2.12721 38.9999 38.409 38.9999C38.7636 38.9999 38.9999 38.7635 38.9999 38.409C38.9999 35.9272 38.9999 43.7863 38.9999 10.6954C39 10.5772 38.9409 10.3409 38.8227 10.2818ZM28.4819 1.95L36.9318 10.0455H28.4819V1.95ZM22.9864 37.8182H1.18183V13.4728H22.9864V37.8182ZM37.8182 37.8182H24.1682V12.8818C24.1682 12.5272 23.9318 12.2909 23.5773 12.2909H8.15456V1.18183H27.3V10.6955C27.3 11.0501 27.5364 11.2864 27.8909 11.2864H37.8182C37.8182 31.5546 37.8182 37.5228 37.8182 37.8182Z" fill="black"/>
<path d="M23.2225 3.72272H11.3453C10.9907 3.72272 10.7544 3.9591 10.7544 4.31359C10.7544 4.66809 10.9908 4.90447 11.3453 4.90447H23.2225C23.5771 4.90447 23.8134 4.66809 23.8134 4.31359C23.8134 3.9591 23.5771 3.72272 23.2225 3.72272Z" fill="black"/>
<path d="M23.2225 7.20911H11.3453C10.9907 7.20911 10.7544 7.44549 10.7544 7.79998C10.7544 8.15448 10.9908 8.39086 11.3453 8.39086H23.2225C23.5771 8.39086 23.8134 8.15448 23.8134 7.79998C23.8134 7.44549 23.5771 7.20911 23.2225 7.20911Z" fill="black"/>
<path d="M31.0819 24.9364C27.9501 24.9364 25.4092 27.4772 25.4092 30.6682C25.4092 33.8 27.9501 36.4 31.0819 36.4C34.2137 36.4 36.7546 33.8591 36.7546 30.6682C36.7546 27.4773 34.2137 24.9364 31.0819 24.9364ZM31.0819 35.1591C28.6 35.1591 26.5909 33.15 26.5909 30.6091C26.5909 28.0681 28.6 26.0591 31.0819 26.0591C33.5637 26.0591 35.5728 28.0682 35.5728 30.6091C35.5728 33.1499 33.5637 35.1591 31.0819 35.1591Z" fill="black"/>
<path d="M32.8545 30.7273C32.5591 30.4318 32.0864 30.1955 31.4363 30.0773V28.4819C31.85 28.541 32.2636 28.7182 32.6181 28.9545L33.1499 28.1864C32.6181 27.8318 32.0272 27.5955 31.4363 27.5364V27.1227H30.9045V27.5364C30.3728 27.5364 29.9 27.7137 29.6045 28.0682C29.2499 28.3637 29.0727 28.7773 29.0727 29.25C29.0727 29.7227 29.1909 30.0773 29.4864 30.3728C29.7819 30.6091 30.2546 30.8455 30.8455 30.9636V32.6182C30.3728 32.5591 29.841 32.3227 29.4273 31.9091L28.8364 32.6182C29.4273 33.1499 30.1364 33.4454 30.9046 33.5636V34.1545H31.4364V33.5636C32.0273 33.5636 32.4409 33.3863 32.7955 33.0318C33.1501 32.7363 33.3273 32.3228 33.3273 31.85C33.3273 31.3773 33.15 30.9636 32.8545 30.7273ZM30.9045 29.9C30.6091 29.7818 30.3727 29.7227 30.2546 29.6045C30.1364 29.4863 30.0773 29.3681 30.0773 29.1318C30.0773 28.9545 30.1364 28.7773 30.3137 28.6591C30.4318 28.5409 30.6682 28.4818 30.9045 28.4227V29.9ZM32.0273 32.3819C31.85 32.5 31.6727 32.6182 31.3773 32.6182V31.0819C31.7319 31.2001 31.9682 31.3183 32.0864 31.3774C32.2046 31.4956 32.2637 31.6729 32.2637 31.8501C32.2637 32.0864 32.2046 32.2637 32.0273 32.3819Z" fill="black"/>
<path d="M27.1821 20.2091C27.123 20.2091 27.1821 20.2091 27.1821 20.2682L24.7593 25.4091C24.6411 25.6455 24.7002 25.9409 24.9366 26.1182C25.1139 26.2955 25.4093 26.2955 25.6456 26.1773L30.3138 22.9864L30.3729 22.9273C30.3729 22.9273 30.432 22.9273 30.432 22.8682L36.932 15.2455C37.7002 14.3591 37.582 13.0591 36.6956 12.2909C36.3411 11.9954 35.8684 11.8182 35.3365 11.8182C34.7457 11.8182 34.1547 12.0546 33.7411 12.5273L27.2411 20.15C27.2411 20.15 27.2411 20.2091 27.1821 20.2091ZM34.6866 13.2955C34.982 12.9409 35.5729 12.8818 35.9275 13.1773C36.3412 13.5319 36.3412 14.0636 36.0457 14.4773L29.9002 21.6273L28.5411 20.4455L34.6866 13.2955ZM29.0139 22.3955L26.7684 23.9318L27.9502 21.4499L29.0139 22.3955Z" fill="black"/>
</g>
<defs>
<clipPath id="clip0_505_1841">
<rect width="39" height="39" fill="white"/>
</clipPath>
</defs>
</svg>
