<svg width="39" height="39" viewBox="0 0 39 39" fill="none" xmlns="http://www.w3.org/2000/svg">
<path d="M35.1 13.377H31.317H7.683H3.9C3.5425 13.377 3.25 13.6695 3.25 14.027V17.81V27.8005V31.5835C3.25 31.941 3.5425 32.2335 3.9 32.2335H7.683H31.3235H35.1C35.4575 32.2335 35.75 31.941 35.75 31.5835V27.8005V17.81V14.027C35.75 13.6695 35.4575 13.377 35.1 13.377ZM34.45 17.0885C33.2475 16.835 32.292 15.8795 32.0385 14.677H34.45V17.0885ZM6.9615 14.677C6.708 15.886 5.7525 16.835 4.55 17.0885V14.677H6.9615ZM4.55 28.5155C5.7525 28.769 6.708 29.7245 6.9615 30.927H4.55V28.5155ZM8.281 30.927C7.995 29.003 6.474 27.4755 4.55 27.196V18.4145C6.474 18.1285 8.0015 16.6075 8.281 14.6835H30.7125C30.9985 16.6075 32.5195 18.135 34.4435 18.4145V27.196C32.5195 27.482 30.992 29.003 30.7125 30.927H8.281ZM32.0385 30.927C32.292 29.7245 33.2475 28.769 34.45 28.5155V30.927H32.0385Z" fill="black"/>
<path d="M18.5445 19.9225H22.2235C22.581 19.9225 22.8735 19.63 22.8735 19.2725C22.8735 18.915 22.581 18.6225 22.2235 18.6225H20.15V17.888C20.15 17.5305 19.8575 17.238 19.5 17.238C19.1425 17.238 18.85 17.5305 18.85 17.888V18.6225H18.5445C17.212 18.6225 16.1265 19.708 16.1265 21.0405C16.1265 22.373 17.212 23.4585 18.5445 23.4585H20.4555C21.073 23.4585 21.5735 23.959 21.5735 24.5765C21.5735 25.194 21.073 25.6945 20.4555 25.6945H16.7765C16.419 25.6945 16.1265 25.987 16.1265 26.3445C16.1265 26.702 16.419 26.9945 16.7765 26.9945H18.85V27.729C18.85 28.0865 19.1425 28.379 19.5 28.379C19.8575 28.379 20.15 28.0865 20.15 27.729V26.9945H20.4555C21.788 26.9945 22.8735 25.909 22.8735 24.5765C22.8735 23.244 21.788 22.1585 20.4555 22.1585H18.5445C17.927 22.1585 17.4265 21.658 17.4265 21.0405C17.4265 20.423 17.927 19.9225 18.5445 19.9225Z" fill="black"/>
<path d="M6.9873 10.725C6.9873 11.0825 7.2798 11.375 7.6373 11.375H31.3623C31.7198 11.375 32.0123 11.0825 32.0123 10.725C32.0123 10.3675 31.7198 10.075 31.3623 10.075H7.6373C7.2798 10.075 6.9873 10.3675 6.9873 10.725Z" fill="black"/>
<path d="M27.0334 8.07301C27.3909 8.07301 27.6834 7.78051 27.6834 7.42301C27.6834 7.06551 27.3909 6.77301 27.0334 6.77301H11.9664C11.6089 6.77301 11.3164 7.06551 11.3164 7.42301C11.3164 7.78051 11.6089 8.07301 11.9664 8.07301H27.0334Z" fill="black"/>
</svg>
