<svg width="39" height="39" viewBox="0 0 39 39" fill="none" xmlns="http://www.w3.org/2000/svg">
<g clip-path="url(#clip0_505_1836)">
<path d="M21.5947 21.4955C20.1907 21.4949 18.8112 21.8637 17.5947 22.5648C17.5254 22.6048 17.4646 22.6582 17.4159 22.7217C17.3671 22.7853 17.3314 22.8578 17.3107 22.9352C17.29 23.0126 17.2847 23.0932 17.2952 23.1727C17.3056 23.2521 17.3316 23.3286 17.3717 23.398C17.4118 23.4673 17.4651 23.5281 17.5287 23.5769C17.5922 23.6256 17.6648 23.6614 17.7421 23.6821C17.8195 23.7028 17.9002 23.708 17.9796 23.6976C18.059 23.6871 18.1356 23.6611 18.2049 23.621C19.6987 22.7573 21.4652 22.4945 23.1458 22.8858C24.8264 23.2771 26.295 24.2933 27.2537 25.728C28.2123 27.1627 28.5891 28.9085 28.3074 30.6109C28.0258 32.3133 27.1069 33.8447 25.7373 34.8942C24.3677 35.9438 22.65 36.4328 20.9329 36.2621C19.2159 36.0913 17.6282 35.2736 16.4921 33.9748C15.356 32.6761 14.7567 30.9937 14.8159 29.2691C14.8751 27.5446 15.5883 25.9073 16.8107 24.6895C16.869 24.6334 16.9156 24.5662 16.9477 24.492C16.9798 24.4177 16.9968 24.3378 16.9976 24.2569C16.9985 24.176 16.9833 24.0957 16.9528 24.0208C16.9224 23.9458 16.8773 23.8777 16.8202 23.8203C16.7631 23.763 16.6952 23.7176 16.6204 23.6868C16.5456 23.6559 16.4654 23.6403 16.3845 23.6408C16.3036 23.6414 16.2236 23.658 16.1492 23.6897C16.0748 23.7215 16.0074 23.7677 15.9511 23.8258C14.6384 25.132 13.8195 26.8531 13.634 28.6956C13.4485 30.5382 13.9079 32.388 14.9339 33.9296C15.9599 35.4713 17.4889 36.6093 19.2601 37.1496C21.0314 37.6899 22.9352 37.599 24.647 36.8925C26.3587 36.186 27.7724 34.9075 28.6469 33.2752C29.5214 31.6428 29.8025 29.7576 29.4424 27.9412C29.0823 26.1247 28.1032 24.4894 26.6721 23.3141C25.241 22.1388 23.4465 21.4964 21.5947 21.4963V21.4955Z" fill="black"/>
<path d="M22.257 31.9053H20.7271C20.6088 31.9055 20.4916 31.8824 20.3822 31.8373C20.2729 31.7922 20.1735 31.726 20.0897 31.6424C20.006 31.5589 19.9395 31.4597 19.8941 31.3505C19.8487 31.2412 19.8253 31.1241 19.8252 31.0058C19.8252 30.8442 19.761 30.6892 19.6467 30.5749C19.5324 30.4607 19.3774 30.3964 19.2158 30.3964C19.0542 30.3964 18.8992 30.4607 18.7849 30.5749C18.6706 30.6892 18.6064 30.8442 18.6064 31.0058C18.6071 31.5674 18.8305 32.1058 19.2276 32.5029C19.6247 32.9 20.1631 33.1234 20.7246 33.124H20.8814V34.2924C20.8814 34.454 20.9456 34.609 21.0599 34.7233C21.1742 34.8376 21.3292 34.9018 21.4908 34.9018C21.6524 34.9018 21.8074 34.8376 21.9217 34.7233C22.036 34.609 22.1002 34.454 22.1002 34.2924V33.124H22.2554C22.8172 33.124 23.3559 32.9008 23.7532 32.5036C24.1504 32.1064 24.3736 31.5676 24.3736 31.0058C24.3736 30.444 24.1504 29.9053 23.7532 29.508C23.3559 29.1108 22.8172 28.8876 22.2554 28.8876H20.7271C20.4931 28.8806 20.2711 28.7827 20.1081 28.6147C19.945 28.4467 19.8539 28.2219 19.8539 27.9878C19.8539 27.7537 19.945 27.5288 20.1081 27.3609C20.2711 27.1929 20.4931 27.095 20.7271 27.088H22.257C22.4955 27.0882 22.7241 27.183 22.8928 27.3516C23.0614 27.5203 23.1562 27.7489 23.1564 27.9874C23.1564 28.149 23.2206 28.304 23.3349 28.4183C23.4492 28.5326 23.6042 28.5968 23.7658 28.5968C23.9274 28.5968 24.0824 28.5326 24.1967 28.4183C24.311 28.304 24.3752 28.149 24.3752 27.9874C24.3746 27.4258 24.1512 26.8874 23.7541 26.4903C23.357 26.0932 22.8186 25.8698 22.257 25.8692H22.1002V24.7C22.1002 24.5384 22.036 24.3834 21.9217 24.2691C21.8074 24.1548 21.6524 24.0906 21.4908 24.0906C21.3292 24.0906 21.1742 24.1548 21.0599 24.2691C20.9456 24.3834 20.8814 24.5384 20.8814 24.7V25.8692H20.7271C20.1724 25.8801 19.6441 26.108 19.2556 26.5042C18.8672 26.9003 18.6496 27.433 18.6496 27.9878C18.6496 28.5426 18.8672 29.0753 19.2556 29.4714C19.6441 29.8675 20.1724 30.0955 20.7271 30.1064H22.257C22.4956 30.1064 22.7243 30.2011 22.893 30.3698C23.0617 30.5385 23.1564 30.7673 23.1564 31.0058C23.1564 31.2444 23.0617 31.4731 22.893 31.6418C22.7243 31.8105 22.4956 31.9053 22.257 31.9053Z" fill="black"/>
<path d="M36.0887 12.7051C35.9347 12.6673 35.7721 12.691 35.6354 12.7712C35.4987 12.8513 35.3985 12.9816 35.3563 13.1343C35.314 13.2871 35.3329 13.4503 35.4089 13.5893C35.485 13.7284 35.6122 13.8323 35.7636 13.8791C37.4122 14.3374 37.7835 14.8541 37.7835 14.9939C37.7835 15.5025 35.3988 16.6953 30.7757 16.6953C26.1526 16.6953 23.7671 15.5025 23.7671 14.9939C23.7671 14.4853 26.151 13.2925 30.7757 13.2925C31.8695 13.2886 32.962 13.3654 34.0444 13.5224C34.202 13.5412 34.3608 13.4978 34.4869 13.4014C34.613 13.3051 34.6967 13.1634 34.72 13.0063C34.7434 12.8493 34.7047 12.6894 34.612 12.5605C34.5194 12.4316 34.3802 12.3438 34.224 12.3159C33.082 12.1506 31.9295 12.0692 30.7757 12.0721C26.8131 12.0721 22.5483 12.9862 22.5483 14.9923V19.7332C22.5483 21.7393 26.8131 22.6533 30.7757 22.6533C33.4391 22.6533 36.2341 22.2381 37.7835 21.3574V22.1033C37.7835 22.6119 35.3988 23.8046 30.7757 23.8046C30.2451 23.8046 29.7284 23.7884 29.232 23.7559C29.0707 23.7465 28.9121 23.8008 28.7906 23.9072C28.669 24.0136 28.5941 24.1635 28.582 24.3246C28.5763 24.4047 28.5866 24.4851 28.6122 24.5612C28.6378 24.6373 28.6782 24.7076 28.731 24.768C28.7839 24.8284 28.8482 24.8778 28.9202 24.9133C28.9923 24.9487 29.0706 24.9696 29.1507 24.9746C29.6748 25.0088 30.2183 25.0266 30.7757 25.0266C33.4391 25.0266 36.2341 24.6114 37.7835 23.7266V24.4725C37.7835 24.9811 35.3988 26.1788 30.7757 26.1788C30.7757 26.1788 30.5214 26.1836 30.4085 26.1788C30.2487 26.1798 30.0952 26.2413 29.9788 26.3509C29.8625 26.4605 29.7919 26.61 29.7812 26.7694C29.7766 26.9311 29.8363 27.088 29.9472 27.2057C30.058 27.3234 30.2111 27.3924 30.3727 27.3975H30.779C33.4423 27.3975 36.2373 26.9815 37.7868 26.0975V26.8434C37.7868 27.352 35.4021 28.5448 30.779 28.5448C30.6173 28.5448 30.4623 28.609 30.3481 28.7232C30.2338 28.8375 30.1696 28.9925 30.1696 29.1541C30.1696 29.3157 30.2338 29.4707 30.3481 29.585C30.4623 29.6993 30.6173 29.7635 30.779 29.7635C33.4423 29.7635 36.2373 29.3475 37.7868 28.4676V29.2728C37.7868 29.7814 35.4021 30.9741 30.779 30.9741H30.5604C30.4015 30.981 30.2507 31.0464 30.137 31.1576C30.0234 31.2689 29.9548 31.4183 29.9445 31.577C29.943 31.7386 30.0056 31.8941 30.1186 32.0096C30.2317 32.125 30.3859 32.191 30.5474 32.1929H30.779C34.735 32.1953 38.9998 31.2813 38.9998 29.2752V14.9939C38.9998 14.3195 38.4945 13.3754 36.0887 12.7051ZM30.7733 17.914C33.4367 17.914 36.2317 17.4988 37.7811 16.6181V17.3639C37.7811 17.8726 35.3964 19.0702 30.7733 19.0702C26.1502 19.0702 23.7647 17.8766 23.7647 17.3639V16.6181C25.3141 17.4988 28.1123 17.914 30.7733 17.914ZM30.7733 21.4362C26.1485 21.4362 23.7647 20.2434 23.7647 19.7348V18.9889C25.3141 19.8697 28.1083 20.2889 30.7733 20.2889C33.4383 20.2889 36.2317 19.8738 37.7811 18.9889V19.7348C37.7811 20.2434 35.3964 21.4362 30.7733 21.4362Z" fill="black"/>
<path d="M12.8375 32.7275C12.623 32.7356 12.4069 32.7405 12.1875 32.7405C5.72813 32.7405 1.21875 29.0347 1.21875 23.7291C1.21875 19.4025 4.14375 13.0041 8.50606 10.3756C8.56538 10.3391 8.61494 10.2944 8.66856 10.2537H13.65C13.8116 10.2537 13.9666 10.1895 14.0809 10.0753C14.1952 9.96098 14.2594 9.80598 14.2594 9.64437C14.2594 9.48275 14.1952 9.32775 14.0809 9.21347C13.9666 9.09919 13.8116 9.03499 13.65 9.03499H9.43719C9.52032 8.57695 9.42559 8.10445 9.17231 7.71387C7.11262 4.52318 6.71206 3.08749 6.78681 2.71537C6.79466 2.71996 6.80376 2.72195 6.81281 2.72105C7.72789 2.72743 8.63725 2.8659 9.51275 3.13218C10.3598 3.38963 11.2389 3.52639 12.1241 3.53843C13.1249 3.51388 14.1189 3.36708 15.0841 3.1013C15.8489 2.89069 16.6343 2.7632 17.4265 2.72105C17.4046 3.18012 16.9496 4.53618 15.3757 7.2223H10.725C10.5634 7.2223 10.4084 7.28651 10.2941 7.40079C10.1798 7.51507 10.1156 7.67006 10.1156 7.83168C10.1156 7.99329 10.1798 8.14829 10.2941 8.26257C10.4084 8.37685 10.5634 8.44105 10.725 8.44105H14.8379C14.8078 8.66817 14.8211 8.89892 14.8769 9.12112C14.9422 9.37353 15.0572 9.61036 15.2153 9.8177C15.3734 10.025 15.5713 10.1987 15.7974 10.3285C17.991 11.7571 19.7699 13.738 20.9552 16.0721C20.9923 16.1444 21.0434 16.2086 21.1057 16.2609C21.168 16.3132 21.2401 16.3525 21.3178 16.3765C21.3955 16.4005 21.4772 16.4087 21.5581 16.4006C21.639 16.3925 21.7175 16.3683 21.7889 16.3294C21.8603 16.2905 21.9232 16.2378 21.9739 16.1742C22.0247 16.1106 22.0621 16.0375 22.0841 15.9593C22.1062 15.881 22.1123 15.7991 22.1022 15.7184C22.0921 15.6377 22.0659 15.5599 22.0252 15.4895C20.7352 12.9625 18.8014 10.8205 16.419 9.27955C16.3317 9.231 16.2549 9.16554 16.1931 9.08701C16.1313 9.00847 16.0857 8.91843 16.0591 8.82212C16.0383 8.74124 16.0341 8.65698 16.0468 8.57444C16.0595 8.49191 16.0888 8.41281 16.133 8.34193C19.1912 3.25405 18.6973 2.38062 18.4893 2.00443C18.3966 1.84416 18.262 1.71219 18.0999 1.62271C17.9379 1.53323 17.7545 1.48964 17.5695 1.49662C16.6353 1.52348 15.7078 1.66289 14.807 1.9118C13.9331 2.15566 13.0327 2.29208 12.1257 2.31805C11.3458 2.30419 10.5717 2.18028 9.82638 1.94999C8.84874 1.65805 7.8347 1.50596 6.81444 1.49824C6.59648 1.48412 6.37898 1.53194 6.18705 1.63618C5.99512 1.74041 5.83658 1.8968 5.72975 2.0873C5.525 2.46349 4.98063 3.46287 8.15019 8.37199C8.19786 8.44271 8.23034 8.52254 8.24558 8.60645C8.26083 8.69036 8.2585 8.77653 8.23875 8.85949C8.21355 8.95843 8.1686 9.05125 8.1066 9.13238C8.04461 9.2135 7.96685 9.28125 7.878 9.33155C3.16875 12.1729 0 19.0702 0 23.7291C0 29.6562 5.12688 33.9625 12.1875 33.9625C12.4215 33.9625 12.6539 33.9576 12.8846 33.9479C12.9646 33.9447 13.0433 33.9258 13.116 33.8923C13.1887 33.8588 13.2541 33.8112 13.3085 33.7524C13.3629 33.6936 13.4051 33.6247 13.4328 33.5495C13.4605 33.4744 13.4732 33.3945 13.47 33.3145C13.4669 33.2345 13.448 33.1559 13.4145 33.0831C13.3809 33.0104 13.3334 32.945 13.2746 32.8907C13.2158 32.8363 13.1468 32.794 13.0717 32.7663C12.9966 32.7386 12.9167 32.726 12.8367 32.7291L12.8375 32.7275Z" fill="black"/>
</g>
<defs>
<clipPath id="clip0_505_1836">
<rect width="39" height="39" fill="white"/>
</clipPath>
</defs>
</svg>
