<svg width="39" height="39" viewBox="0 0 39 39" fill="none" xmlns="http://www.w3.org/2000/svg">
<g clip-path="url(#clip0_505_1996)">
<path d="M26.5154 11.4715C27.5057 11.4715 28.3131 10.6641 28.3131 9.67382C28.3131 8.68358 27.5057 7.87616 26.5154 7.87616C25.5252 7.87616 24.7178 8.68358 24.7178 9.67382C24.7178 10.6641 25.5252 11.4715 26.5154 11.4715ZM26.5154 9.02635C26.8734 9.02635 27.1705 9.32343 27.1705 9.68143C27.1705 10.0394 26.8734 10.3365 26.5154 10.3365C26.1574 10.3365 25.8604 10.0394 25.8604 9.68143C25.8604 9.32343 26.1574 9.02635 26.5154 9.02635Z" fill="black"/>
<path d="M6.7791 7.88379C5.78887 7.88379 4.98145 8.69121 4.98145 9.68145C4.98145 10.6717 5.78887 11.4715 6.7791 11.4715C7.76934 11.4715 8.57676 10.6641 8.57676 9.67383C8.57676 8.68359 7.76934 7.88379 6.7791 7.88379ZM6.7791 10.3289C6.42109 10.3289 6.12402 10.0318 6.12402 9.67383C6.12402 9.31582 6.42109 9.01875 6.7791 9.01875C7.13711 9.01875 7.43418 9.31582 7.43418 9.67383C7.43418 10.0318 7.14473 10.3289 6.7791 10.3289Z" fill="black"/>
<path d="M35.9227 12.1418H32.2207V2.58984C32.2207 1.16543 31.0629 0 29.6309 0H3.66387C2.23945 0 1.07402 1.15781 1.07402 2.58984V16.773C1.07402 18.1975 2.23184 19.3629 3.66387 19.3629H3.73242V21.1605C1.66055 21.2367 0 22.943 0 25.0377V35.1152C0 37.2557 1.74434 39 3.88477 39H19.302C21.252 39 22.8744 37.5527 23.141 35.6789H32.5482C32.8605 35.6789 33.1195 35.4199 33.1195 35.1076C33.1195 34.7953 32.8605 34.5363 32.5482 34.5363H23.1791V25.0377C23.1791 22.8973 21.4348 21.1529 19.2943 21.1529H4.88262V15.2191C4.88262 14.1527 5.75098 13.2844 6.81738 13.2844H35.9227C36.9891 13.2844 37.8574 14.1527 37.8574 15.2191V32.6016C37.8574 33.668 36.9891 34.5363 35.9227 34.5363H34.8334C34.5211 34.5363 34.2621 34.7953 34.2621 35.1076C34.2621 35.4199 34.5211 35.6789 34.8334 35.6789H35.9227C37.6213 35.6789 39 34.3002 39 32.6016V15.2191C39 13.5205 37.6213 12.1418 35.9227 12.1418ZM31.0781 2.58984V5.73574C28.6711 5.46914 26.7516 3.54961 26.485 1.14258H29.6309C30.4307 1.14258 31.0781 1.79004 31.0781 2.58984ZM3.66387 1.14258H6.80977C6.55078 3.54961 4.63125 5.46914 2.22422 5.73574V2.58984C2.22422 1.79004 2.87168 1.14258 3.66387 1.14258ZM3.66387 18.2127C2.86406 18.2127 2.2166 17.5652 2.2166 16.7654V13.6195C2.81836 13.6881 3.39727 13.8557 3.93809 14.1223C3.80859 14.465 3.73242 14.8383 3.73242 15.2191V18.2127H3.66387ZM22.0365 28.1836H1.14258V26.3402H22.0365V28.1836ZM19.2943 37.8574H3.88477C2.37656 37.8574 1.14258 36.6311 1.14258 35.1152V29.3262H22.0365V35.1152C22.0365 36.6311 20.8102 37.8574 19.2943 37.8574ZM22.0365 25.0377V25.1977H1.14258V25.0377C1.14258 23.5295 2.36895 22.2955 3.88477 22.2955H19.302C20.8102 22.2955 22.0365 23.5219 22.0365 25.0377ZM4.54746 13.1473C3.82383 12.774 3.03926 12.5455 2.22422 12.477V6.88594C5.26348 6.61172 7.69336 4.18184 7.96758 1.14258H25.3424C25.6166 4.18184 28.0465 6.61172 31.0857 6.88594V12.1494H23.141C23.4381 11.3648 23.5904 10.527 23.5904 9.68145C23.5904 5.85 20.475 2.73457 16.6436 2.73457C15.2039 2.73457 13.8176 3.17637 12.6445 3.99902C12.3855 4.18184 12.3246 4.53984 12.5074 4.79883C12.6902 5.05781 13.0482 5.11875 13.3072 4.93594C14.2898 4.24277 15.4477 3.87715 16.6512 3.87715C19.8504 3.87715 22.4555 6.48223 22.4555 9.68145C22.4555 10.5346 22.265 11.3801 21.907 12.1494H17.9689C18.2736 11.8523 18.4641 11.4639 18.525 11.083C18.6697 10.207 18.1975 9.42246 17.3443 9.11777C16.8873 8.95781 16.3846 8.75977 16.1104 8.54648C16.0418 8.49316 16.0113 8.34844 16.0342 8.21133C16.0494 8.13516 16.118 7.88379 16.3693 7.80762C16.8797 7.65527 17.2072 7.91426 17.2453 7.94473C17.4891 8.14277 17.8471 8.1123 18.0527 7.86856C18.2508 7.6248 18.2203 7.2668 17.9766 7.06113C17.7785 6.90117 17.5119 6.74883 17.1844 6.67266V6.52031C17.1844 6.20801 16.9254 5.94902 16.6131 5.94902C16.3008 5.94902 16.0418 6.20801 16.0418 6.52031V6.70312C15.4629 6.87832 15.0287 7.37344 14.9145 7.99043C14.8078 8.56172 14.9982 9.11777 15.402 9.4377C15.8057 9.75762 16.3922 9.98613 16.9635 10.1918C17.4129 10.3518 17.4281 10.6945 17.3977 10.8926C17.3443 11.2125 17.0777 11.5553 16.6131 11.5629C16.1256 11.5629 15.9885 11.5477 15.6305 11.3039C15.3639 11.1287 15.0135 11.2049 14.8383 11.4715C14.6936 11.6848 14.724 11.9666 14.8764 12.1494H11.3953C11.0373 11.3801 10.8469 10.5346 10.8469 9.68145C10.8469 8.5084 11.1973 7.38105 11.8523 6.41367C12.0275 6.15469 11.9666 5.79668 11.7 5.62148C11.441 5.44629 11.083 5.50723 10.9078 5.77383C10.1156 6.93164 9.7043 8.27988 9.7043 9.68906C9.7043 10.5346 9.85664 11.3725 10.1537 12.157H6.81738C5.91855 12.1418 5.11113 12.5303 4.54746 13.1473Z" fill="black"/>
<path d="M3.57988 30.2021H2.3916C2.0793 30.2021 1.82031 30.4611 1.82031 30.7734C1.82031 31.0857 2.0793 31.3447 2.3916 31.3447H3.57988C3.89219 31.3447 4.15117 31.0857 4.15117 30.7734C4.15117 30.4611 3.8998 30.2021 3.57988 30.2021Z" fill="black"/>
<path d="M6.26885 30.2021H5.08057C4.76826 30.2021 4.50928 30.4611 4.50928 30.7734C4.50928 31.0857 4.76826 31.3447 5.08057 31.3447H6.26885C6.58115 31.3447 6.84014 31.0857 6.84014 30.7734C6.84014 30.4611 6.58115 30.2021 6.26885 30.2021Z" fill="black"/>
<path d="M8.95781 30.2021H7.76953C7.45723 30.2021 7.19824 30.4611 7.19824 30.7734C7.19824 31.0857 7.45723 31.3447 7.76953 31.3447H8.95781C9.27012 31.3447 9.5291 31.0857 9.5291 30.7734C9.5291 30.4611 9.27012 30.2021 8.95781 30.2021Z" fill="black"/>
<path d="M11.6468 30.2021H10.4585C10.1462 30.2021 9.88721 30.4611 9.88721 30.7734C9.88721 31.0857 10.1462 31.3447 10.4585 31.3447H11.6468C11.9591 31.3447 12.2181 31.0857 12.2181 30.7734C12.2181 30.4611 11.9591 30.2021 11.6468 30.2021Z" fill="black"/>
<path d="M32.7615 22.2803C32.1217 22.2879 31.9236 22.2498 31.4285 21.9299C31.1619 21.7547 30.8115 21.8309 30.6363 22.0975C30.4611 22.3641 30.5373 22.7144 30.8039 22.8896C31.3447 23.2477 31.7332 23.3695 32.1902 23.4076V23.7656C32.1902 24.0779 32.4492 24.3369 32.7615 24.3369C33.0738 24.3369 33.3328 24.0779 33.3328 23.7656V23.3543C34.285 23.1105 34.8943 22.3031 35.0314 21.5033C35.2066 20.475 34.643 19.5457 33.6375 19.1877C33.051 18.982 32.4035 18.7307 32.0303 18.4412C31.8932 18.3346 31.8398 18.106 31.8855 17.8623C31.9313 17.6185 32.0912 17.3291 32.4111 17.2377C33.1271 17.0244 33.607 17.3977 33.6527 17.4357C33.8965 17.6338 34.2545 17.6033 34.4602 17.3596C34.6582 17.1158 34.6277 16.7578 34.384 16.5521C34.285 16.4684 33.9041 16.1789 33.3252 16.0646V15.7447C33.3252 15.4324 33.0662 15.1734 32.7539 15.1734C32.4416 15.1734 32.1826 15.4324 32.1826 15.7447V16.1027C32.1445 16.1103 32.1141 16.118 32.076 16.1332C31.398 16.3389 30.8953 16.9178 30.7506 17.6414C30.6211 18.3117 30.842 18.9516 31.3143 19.3248C31.718 19.6371 32.274 19.9113 33.2414 20.2541C33.9422 20.5055 33.927 21.0691 33.8889 21.3053C33.8279 21.7699 33.4395 22.2727 32.7615 22.2803Z" fill="black"/>
<path d="M28.7931 17.3672C28.7931 17.0549 28.5341 16.7959 28.2218 16.7959H7.44971C7.1374 16.7959 6.87842 17.0549 6.87842 17.3672C6.87842 17.6795 7.1374 17.9385 7.44971 17.9385H28.2218C28.5341 17.9385 28.7931 17.6795 28.7931 17.3672Z" fill="black"/>
<path d="M23.8647 20.4445H28.2218C28.5341 20.4445 28.7931 20.1855 28.7931 19.8732C28.7931 19.5609 28.5341 19.3019 28.2218 19.3019H23.8647C23.5524 19.3019 23.2935 19.5609 23.2935 19.8732C23.2935 20.1855 23.5448 20.4445 23.8647 20.4445Z" fill="black"/>
<path d="M24.4814 26.8125C24.4814 27.1248 24.7404 27.3838 25.0527 27.3838H34.8027C35.115 27.3838 35.374 27.1248 35.374 26.8125C35.374 26.5002 35.115 26.2412 34.8027 26.2412H25.0527C24.7404 26.2412 24.4814 26.5002 24.4814 26.8125Z" fill="black"/>
<path d="M34.8027 28.6559H25.0527C24.7404 28.6559 24.4814 28.9148 24.4814 29.2271C24.4814 29.5394 24.7404 29.7984 25.0527 29.7984H34.8027C35.115 29.7984 35.374 29.5394 35.374 29.2271C35.374 28.9148 35.1227 28.6559 34.8027 28.6559Z" fill="black"/>
<path d="M25.0527 32.2207H34.8027C35.115 32.2207 35.374 31.9617 35.374 31.6494C35.374 31.3371 35.115 31.0781 34.8027 31.0781H25.0527C24.7404 31.0781 24.4814 31.3371 24.4814 31.6494C24.4814 31.9617 24.7404 32.2207 25.0527 32.2207Z" fill="black"/>
</g>
<defs>
<clipPath id="clip0_505_1996">
<rect width="39" height="39" fill="white"/>
</clipPath>
</defs>
</svg>
