<svg width="39" height="39" viewBox="0 0 39 39" fill="none" xmlns="http://www.w3.org/2000/svg">
<g clip-path="url(#clip0_507_2960)">
<path d="M8.34761 34.8596V36.4799C8.33691 37.2828 8.97638 37.9436 9.77912 37.9595H29.2209C30.0236 37.9436 30.663 37.2829 30.6524 36.48V34.8597C35.8837 31.2131 39.0011 25.2388 39 18.8619V17.6679C39 17.3972 38.7806 17.1779 38.5099 17.1779H0.490075C0.21939 17.1779 2.71171e-07 17.3972 2.71171e-07 17.6679V18.8619C-0.00106156 25.2387 3.1163 31.213 8.34761 34.8596ZM29.2065 36.9793H9.79349C9.53114 36.972 9.32359 36.755 9.32792 36.4925C9.32792 36.4896 9.32792 36.4867 9.32792 36.4838V35.0044H29.6722V36.4838V36.4925C29.6766 36.755 29.4689 36.9721 29.2065 36.9793ZM0.98015 18.158H38.0199V18.8619C38.0194 19.882 37.9347 20.9004 37.7666 21.9066H10.7308C10.4602 21.9066 10.2408 22.126 10.2408 22.3967C10.2408 22.6673 10.4602 22.8867 10.7308 22.8867H37.5773C36.5723 27.3979 33.9172 31.3704 30.1333 34.0243H8.86668C5.08281 31.3704 2.42775 27.3979 1.42277 22.8867H7.65056C7.92124 22.8867 8.14063 22.6673 8.14063 22.3967C8.14063 22.126 7.92124 21.9066 7.65056 21.9066H1.23336C1.06534 20.9004 0.98064 19.882 0.98015 18.8619V18.158Z" fill="black"/>
<path d="M17.5368 4.97615C17.5368 4.17847 17.1999 3.75708 16.9293 3.41852C16.701 3.13314 16.5363 2.9269 16.5363 2.47292C16.5363 2.20224 16.3169 1.98285 16.0462 1.98285C15.7755 1.98285 15.5562 2.20224 15.5562 2.47292C15.5562 3.27052 15.893 3.6919 16.1636 4.03055C16.3918 4.31593 16.5566 4.52209 16.5566 4.97615C16.5566 5.4302 16.3917 5.63636 16.1636 5.92174C15.893 6.2603 15.5562 6.68136 15.5562 7.47937C15.5562 8.27737 15.893 8.69818 16.1637 9.03674C16.3918 9.32213 16.5566 9.52829 16.5566 9.98218C16.5566 10.4361 16.3918 10.6423 16.1637 10.9276C15.893 11.2662 15.5562 11.6876 15.5562 12.4852C15.5562 12.7558 15.7755 12.9752 16.0462 12.9752C16.3169 12.9752 16.5363 12.7558 16.5363 12.4852C16.5363 12.0313 16.701 11.825 16.9293 11.5397C17.1999 11.2011 17.5368 10.7797 17.5368 9.98218C17.5368 9.18466 17.1999 8.76328 16.9292 8.42472C16.701 8.13942 16.5363 7.93326 16.5363 7.47937C16.5363 7.02548 16.701 6.81915 16.9293 6.53377C17.1999 6.19512 17.5368 5.77374 17.5368 4.97615Z" fill="black"/>
<path d="M28.4426 4.26936C28.4426 3.42471 28.1129 2.97343 27.848 2.61086C27.6124 2.28831 27.4421 2.05544 27.4421 1.53057C27.4421 1.25989 27.2227 1.0405 26.952 1.0405C26.6813 1.0405 26.4619 1.25989 26.4619 1.53057C26.4619 2.37522 26.7917 2.82649 27.0566 3.18907C27.2922 3.51162 27.4625 3.74449 27.4625 4.26936C27.4625 4.79423 27.2922 5.02718 27.0566 5.34964C26.7917 5.71222 26.4619 6.1635 26.4619 7.00773C26.4619 7.85197 26.7917 8.30357 27.0566 8.66582C27.2923 8.98821 27.4625 9.22124 27.4625 9.74586C27.4625 10.2705 27.2923 10.5035 27.0566 10.826C26.7917 11.1886 26.4619 11.6398 26.4619 12.4841C26.4619 12.7548 26.6813 12.9741 26.952 12.9741C27.2227 12.9741 27.4421 12.7548 27.4421 12.4841C27.4421 11.9594 27.6124 11.7264 27.848 11.4039C28.1129 11.0414 28.4426 10.5902 28.4426 9.74586C28.4426 8.90154 28.1129 8.4501 27.848 8.08777C27.6123 7.76531 27.4421 7.53236 27.4421 7.00765C27.4421 6.48294 27.6124 6.24991 27.848 5.92736C28.1129 5.56552 28.4426 5.11408 28.4426 4.26936Z" fill="black"/>
<path d="M12.5842 4.97615C12.5842 4.17847 12.2474 3.75708 11.9767 3.41852C11.7486 3.13314 11.5837 2.9269 11.5837 2.47292C11.5837 2.20224 11.3643 1.98285 11.0936 1.98285C10.8229 1.98285 10.6035 2.20224 10.6035 2.47292C10.6035 3.27052 10.9404 3.6919 11.2111 4.03055C11.4393 4.31593 11.6041 4.52209 11.6041 4.97615C11.6041 5.4302 11.4393 5.63636 11.2111 5.92174C10.9404 6.2603 10.6035 6.68136 10.6035 7.47937C10.6035 8.27737 10.9404 8.69818 11.2111 9.03682C11.4393 9.32213 11.6041 9.52829 11.6041 9.98218C11.6041 10.4361 11.4393 10.6423 11.2111 10.9276C10.9404 11.2662 10.6035 11.6876 10.6035 12.4852C10.6035 12.7558 10.8229 12.9752 11.0936 12.9752C11.3643 12.9752 11.5837 12.7558 11.5837 12.4852C11.5837 12.0313 11.7486 11.825 11.9767 11.5397C12.2474 11.2011 12.5842 10.7801 12.5842 9.98218C12.5842 9.18426 12.2473 8.76328 11.9767 8.42472C11.7486 8.13942 11.5837 7.93326 11.5837 7.47937C11.5837 7.02548 11.7486 6.81915 11.9767 6.53377C12.2474 6.19512 12.5842 5.77374 12.5842 4.97615Z" fill="black"/>
<path d="M23.49 4.26936C23.49 3.42471 23.1603 2.97343 22.8953 2.61086C22.6597 2.28831 22.4894 2.05544 22.4894 1.53057C22.4894 1.25989 22.27 1.0405 21.9994 1.0405C21.7287 1.0405 21.5093 1.25989 21.5093 1.53057C21.5093 2.37522 21.839 2.82649 22.1039 3.18907C22.3395 3.51162 22.5098 3.74449 22.5098 4.26936C22.5098 4.79423 22.3395 5.02718 22.1039 5.34964C21.839 5.71222 21.5093 6.1635 21.5093 7.00773C21.5093 7.85197 21.839 8.30357 22.1039 8.66582C22.3396 8.98821 22.5098 9.22124 22.5098 9.74586C22.5098 10.2705 22.3396 10.5035 22.1039 10.826C21.839 11.1886 21.5093 11.6398 21.5093 12.4841C21.5093 12.7548 21.7287 12.9741 21.9994 12.9741C22.27 12.9741 22.4894 12.7548 22.4894 12.4841C22.4894 11.9594 22.6597 11.7264 22.8953 11.4039C23.1603 11.0414 23.49 10.5902 23.49 9.74586C23.49 8.90154 23.1603 8.4501 22.8953 8.08777C22.6596 7.76531 22.4894 7.53236 22.4894 7.00765C22.4894 6.48294 22.6597 6.24991 22.8953 5.92736C23.1603 5.56552 23.49 5.11408 23.49 4.26936Z" fill="black"/>
<path d="M30.9646 31.4188C31.0958 31.419 31.2215 31.3664 31.3134 31.2729C32.6348 29.9349 33.7552 28.4125 34.6397 26.7531C34.7704 26.5161 34.6843 26.218 34.4473 26.0873C34.2104 25.9565 33.9122 26.0427 33.7815 26.2797C33.7792 26.2838 33.777 26.2879 33.7748 26.2921C32.9347 27.8681 31.8707 29.314 30.6158 30.5848C30.4258 30.7775 30.4278 31.0878 30.6205 31.2779C30.7122 31.3684 30.8358 31.4191 30.9646 31.4191V31.4188Z" fill="black"/>
</g>
<defs>
<clipPath id="clip0_507_2960">
<rect width="39" height="39" fill="white"/>
</clipPath>
</defs>
</svg>
