<svg width="39" height="39" viewBox="0 0 39 39" fill="none" xmlns="http://www.w3.org/2000/svg">
<g clip-path="url(#clip0_507_2967)">
<path d="M15.8366 37.8574H7.89888C7.5405 37.8574 7.249 37.5659 7.249 37.2076V12.134H26.8665V12.7839C26.8665 13.0994 27.1222 13.3552 27.4377 13.3552C27.7532 13.3552 28.009 13.0994 28.009 12.7839V11.5628C28.009 11.2473 27.7532 10.9915 27.4377 10.9915H25.0634L26.5949 6.66778C27.2621 4.78409 26.2724 2.70869 24.3887 2.04144C22.505 1.37419 20.4296 2.36394 19.7624 4.24763L17.3737 10.9915H16.3968L13.8065 2.56153C13.5221 1.63614 12.8945 0.876873 12.0391 0.423585C11.1837 -0.0297034 10.203 -0.122631 9.27763 0.16156C8.35224 0.445903 7.59298 1.07354 7.13969 1.92893C6.6864 2.78432 6.5934 3.76501 6.87774 4.6904L8.81383 10.9916H6.67772C6.36222 10.9916 6.10645 11.2474 6.10645 11.5628V37.2076C6.10645 38.196 6.91057 39 7.89888 39H15.8366C16.1521 39 16.4078 38.7442 16.4078 38.4287C16.4078 38.1132 16.1521 37.8574 15.8366 37.8574ZM20.8393 4.62916C21.2963 3.33922 22.7175 2.66154 24.0072 3.11848C25.297 3.57535 25.9747 4.99646 25.5179 6.28632L23.8512 10.9915H21.9289L22.3691 10.7816C22.6539 10.6458 22.7747 10.3048 22.6389 10.02C22.503 9.73523 22.162 9.61434 21.8773 9.75023L20.3185 10.4936C20.1189 10.5887 20.0003 10.7847 19.9937 10.9914H18.5857L20.8393 4.62916ZM7.96987 4.3548C7.77518 3.72122 7.83886 3.04962 8.14925 2.46395C8.45964 1.8782 8.9795 1.44838 9.61316 1.25376C10.2468 1.059 10.9183 1.12275 11.5041 1.43314C12.0898 1.74354 12.5197 2.2634 12.7144 2.89706L15.2015 10.9916H10.0092L7.96987 4.3548Z" fill="black"/>
<path d="M32.3224 23.2033H31.0157L31.5661 21.6685C31.8379 20.9107 31.7983 20.0926 31.4546 19.3646C31.3113 19.0611 31.1218 18.7889 30.8952 18.5545L32.7363 16.4756C32.9455 16.2394 32.9236 15.8783 32.6874 15.6692C32.4512 15.4599 32.0902 15.4819 31.881 15.7181L30.5777 17.1897L31.9466 13.3724C32.0531 13.0754 31.8987 12.7484 31.6017 12.6419C31.3048 12.5352 30.9776 12.6898 30.8712 12.9868L29.5022 16.8041L29.431 14.8395C29.4196 14.5243 29.1557 14.2766 28.8394 14.2893C28.5241 14.3007 28.2777 14.5655 28.2891 14.8809L28.3897 17.6576C27.6578 17.7418 26.9751 18.0932 26.4813 18.6453L25.7577 14.7212C25.7571 14.7179 25.7565 14.7146 25.7558 14.7113C25.5955 13.9202 24.8684 13.3737 24.0634 13.4394C23.6391 13.4743 23.2538 13.6721 22.9784 13.9968C22.703 14.3214 22.5705 14.7339 22.6053 15.1581L22.8263 17.8513C22.7211 18.1147 22.4863 18.7375 22.271 19.549L21.3542 17.5799C21.0104 16.8497 20.174 16.4913 19.4081 16.7466C19.0042 16.8812 18.6769 17.1651 18.4865 17.5458C18.2962 17.9266 18.2655 18.3587 18.4001 18.7626L19.2546 21.3262C19.2138 21.6171 19.1293 22.318 19.1174 23.2035H17.6681C17.3526 23.2035 17.0968 23.4593 17.0968 23.7748V33.1133L8.96282 35.4373C8.65951 35.524 8.48378 35.8402 8.57047 36.1435C8.64214 36.3944 8.87088 36.558 9.1195 36.558C9.17145 36.558 9.22431 36.5508 9.27671 36.5358L17.0968 34.3015V37.2077C17.0968 38.1961 17.9009 39.0001 18.8892 39.0001H31.101C32.0894 39.0001 32.8935 38.196 32.8935 37.2077V23.7746C32.8937 23.4591 32.6379 23.2033 32.3224 23.2033ZM29.361 18.8899C29.8314 19.0586 30.2081 19.4004 30.4214 19.8524C30.5507 20.1263 30.6102 20.4207 30.5998 20.715L30.0717 20.5255C29.7747 20.4189 29.4476 20.5735 29.3411 20.8704C29.2346 21.1674 29.389 21.4945 29.686 21.601L30.2978 21.8204L29.8019 23.2032H25.8271L26.5695 21.1319L27.181 21.3512C27.2447 21.3741 27.3098 21.3849 27.3738 21.3849C27.6082 21.3849 27.8279 21.2396 27.9116 21.0063C28.0181 20.7093 27.8637 20.3823 27.5667 20.2758L26.955 20.0564L26.9682 20.0194C27.3165 19.0484 28.3898 18.5415 29.361 18.8899ZM23.8498 14.7358C23.9278 14.6438 24.0369 14.5879 24.157 14.578C24.3835 14.5593 24.5883 14.7122 24.6353 14.9341L24.8025 15.8409L23.8219 16.012L23.7442 15.0645C23.7343 14.9444 23.7718 14.8277 23.8498 14.7358ZM23.9321 18.1661C23.9688 18.0805 23.984 17.9872 23.9764 17.8943L23.9158 17.1556L25.0096 16.9646L25.6346 20.3539L24.6134 23.2033H23.9729L23.077 21.2792C23.3224 19.6066 23.926 18.1802 23.9321 18.1661ZM19.5086 18.0566C19.5626 17.9488 19.6552 17.8684 19.7695 17.8303C19.9865 17.7581 20.2232 17.8595 20.3195 18.0642L20.7082 18.8987L19.7848 19.303L19.4842 18.4011C19.446 18.2868 19.4547 18.1644 19.5086 18.0566ZM20.382 21.0946L20.1476 20.3914L21.1906 19.9348L22.7125 23.2033H20.2603C20.2759 22.1535 20.4022 21.3775 20.4036 21.3692C20.4189 21.2773 20.4115 21.183 20.382 21.0946ZM31.7512 37.2076C31.7512 37.5659 31.4596 37.8574 31.1013 37.8574H18.8895C18.5311 37.8574 18.2396 37.5659 18.2396 37.2076V24.3459H31.7512V37.2076Z" fill="black"/>
<path d="M11.7891 4.88143C11.9368 4.60264 11.8306 4.25691 11.5518 4.10914C11.2729 3.96144 10.9272 4.06763 10.7795 4.34641L9.97089 5.8724C9.8232 6.15118 9.92938 6.49692 10.2082 6.64469C10.2935 6.68986 10.385 6.71134 10.4751 6.71134C10.6799 6.71134 10.8779 6.60097 10.9804 6.40742L11.7891 4.88143Z" fill="black"/>
<path d="M12.628 7.61115C12.3493 7.46338 12.0035 7.56964 11.8557 7.84843L11.0471 9.37442C10.8994 9.6532 11.0056 9.99893 11.2843 10.1467C11.3696 10.1919 11.4611 10.2134 11.5513 10.2134C11.7561 10.2134 11.954 10.103 12.0565 9.90943L12.8652 8.38344C13.013 8.10458 12.9068 7.75885 12.628 7.61115Z" fill="black"/>
<path d="M21.7881 8.12751C21.8705 8.12751 21.9542 8.10961 22.0336 8.07175L23.5924 7.32841C23.8772 7.1926 23.998 6.85166 23.8622 6.56686C23.7264 6.28206 23.3854 6.1611 23.1007 6.29707L21.5419 7.04041C21.2571 7.17622 21.1363 7.51716 21.2721 7.80196C21.37 8.00739 21.5747 8.12751 21.7881 8.12751Z" fill="black"/>
<path d="M30.1354 34.8648L26.343 32.9686C25.499 32.5466 24.4915 32.5465 23.6475 32.9686L19.855 34.8648C19.5728 35.0059 19.4584 35.349 19.5995 35.6312C19.7406 35.9135 20.0837 36.0279 20.3659 35.8867L24.1585 33.9905C24.6824 33.7284 25.3081 33.7285 25.832 33.9905L29.6245 35.8867C29.7065 35.9278 29.7937 35.9471 29.8795 35.9471C30.0891 35.9471 30.2908 35.8313 30.3909 35.6312C30.5321 35.3491 30.4177 35.0059 30.1354 34.8648Z" fill="black"/>
</g>
<defs>
<clipPath id="clip0_507_2967">
<rect width="39" height="39" fill="white"/>
</clipPath>
</defs>
</svg>
