<svg width="39" height="39" viewBox="0 0 39 39" fill="none" xmlns="http://www.w3.org/2000/svg">
<path d="M30.3027 8.03644C29.979 7.72974 29.5489 7.56057 29.103 7.56453H26.1133C25.0416 7.50092 24.4539 8.67262 23.9049 9.39326C23.7709 9.57881 23.6532 9.77561 23.5532 9.98147H15.4846C15.4301 9.86135 15.3697 9.74407 15.3034 9.63007L14.5584 8.39644C14.4044 8.14315 14.1881 7.93363 13.93 7.78796C13.6719 7.64229 13.3807 7.56534 13.0843 7.5645H9.70237C9.3444 7.5621 8.99494 7.67348 8.70439 7.88259C7.27203 8.91657 2.58806 13.4232 2.4375 27.9997C2.45744 28.4981 2.58966 28.9856 2.82429 29.4258C3.05893 29.866 3.38992 30.2475 3.79259 30.5419C4.14198 30.8845 4.56481 31.143 5.02901 31.2978C5.4932 31.4526 5.98656 31.4997 6.47165 31.4354C6.86523 31.4351 7.25444 31.353 7.61462 31.1943C7.9748 31.0356 8.29808 30.8039 8.56398 30.5137L12.7022 25.988C12.8737 25.8009 13.0821 25.6515 13.3144 25.5492C13.5466 25.4469 13.7976 25.394 14.0513 25.3938H24.8064C25.0595 25.394 25.3097 25.4467 25.5414 25.5484C25.7731 25.6502 25.9812 25.7988 26.1525 25.985L30.3188 30.519C30.8652 31.0623 31.5882 31.392 32.3567 31.4483C33.1252 31.5047 33.8884 31.284 34.5082 30.8262L35.483 30.0573C35.8314 29.7821 36.1104 29.429 36.2976 29.0264C36.4848 28.6238 36.5749 28.1829 36.5607 27.7391C36.4119 23.4758 35.5038 13.0212 30.3027 8.03644ZM23.1858 11.2002C23.0684 11.6787 23.3659 12.5106 22.6415 12.5541H16.3758C15.6549 12.5149 15.9436 11.6742 15.8403 11.2002H23.1858ZM34.7284 29.1003L33.7537 29.8695C33.3647 30.1516 32.8832 30.2757 32.4063 30.2167C32.1826 30.2164 31.9614 30.1697 31.7566 30.0798C31.5518 29.9898 31.3678 29.8584 31.2162 29.6939L27.0499 25.1605C26.7644 24.8501 26.4176 24.6023 26.0314 24.4327C25.6453 24.2631 25.2282 24.1754 24.8064 24.1751H14.0513C13.6283 24.1755 13.21 24.2637 12.8229 24.4342C12.4358 24.6047 12.0883 24.8538 11.8025 25.1656L7.66421 29.6913C7.51267 29.8567 7.32841 29.9888 7.12312 30.0793C6.91784 30.1697 6.69599 30.2165 6.47166 30.2167C6.14646 30.274 5.81239 30.2548 5.4959 30.1606C5.17942 30.0664 4.88922 29.8998 4.64831 29.6739C4.19539 29.2359 3.59893 28.7061 3.65634 28.0119C3.953 13.4024 8.26664 9.5241 9.7022 8.7831L13.0843 8.78327C13.1709 8.78362 13.256 8.80615 13.3314 8.8487C13.4068 8.89126 13.4701 8.95243 13.5151 9.02637L14.2608 10.2606C14.572 10.803 14.7091 11.4278 14.6535 12.0506C14.654 12.5072 14.8356 12.945 15.1585 13.2679C15.4814 13.5908 15.9191 13.7724 16.3758 13.7728H22.6415C23.0981 13.7724 23.5359 13.5908 23.8588 13.2679C24.1816 12.945 24.3632 12.5072 24.3637 12.0506C24.3034 11.3626 24.4897 10.6755 24.8892 10.1121L25.7092 8.98977C25.7552 8.92566 25.8159 8.87348 25.8862 8.83756C25.9565 8.80164 26.0343 8.78303 26.1133 8.78327H29.103C29.2343 8.78063 29.3616 8.82832 29.4589 8.91657C34.4749 13.7231 35.2307 24.5714 35.3432 27.7816C35.3509 28.0342 35.2993 28.285 35.1925 28.514C35.0858 28.743 34.9268 28.9438 34.7284 29.1003Z" fill="black"/>
<path d="M12.7667 15.4233H12.212V14.8687C12.2055 14.3679 12.0021 13.8898 11.6456 13.538C11.2892 13.1861 10.8085 12.9888 10.3077 12.9888C9.80685 12.9888 9.32617 13.1861 8.96975 13.538C8.61334 13.8899 8.40987 14.368 8.40342 14.8688V15.4233C5.13168 15.0806 5.12932 19.5798 8.40342 19.2379V19.7925C8.40989 20.2933 8.61337 20.7714 8.9698 21.1232C9.32622 21.4751 9.80691 21.6724 10.3077 21.6723C10.8086 21.6723 11.2893 21.475 11.6457 21.1232C12.0021 20.7713 12.2056 20.2932 12.212 19.7924V19.2379H12.7666C13.2688 19.2323 13.7486 19.029 14.1018 18.6719C14.4549 18.3148 14.653 17.8328 14.653 17.3306C14.653 16.8284 14.4549 16.3464 14.1018 15.9893C13.7486 15.6322 13.2689 15.4289 12.7667 15.4233ZM13.2612 17.8147C12.9951 18.1525 12.0058 17.9802 11.6027 18.0191C11.5226 18.0191 11.4434 18.0349 11.3694 18.0655C11.2955 18.0961 11.2283 18.141 11.1717 18.1976C11.1151 18.2541 11.0702 18.3213 11.0396 18.3953C11.009 18.4692 10.9933 18.5485 10.9933 18.6285V19.7925C10.9898 19.972 10.9161 20.143 10.7879 20.2688C10.6597 20.3945 10.4873 20.4649 10.3077 20.4649C10.1282 20.4649 9.95578 20.3945 9.82759 20.2688C9.69941 20.143 9.62565 19.972 9.62219 19.7925V18.6285C9.62221 18.5485 9.60646 18.4692 9.57584 18.3953C9.54523 18.3213 9.50034 18.2541 9.44375 18.1975C9.38716 18.141 9.31998 18.0961 9.24603 18.0655C9.17209 18.0348 9.09284 18.0191 9.01281 18.0191H7.84881C7.66794 18.0165 7.49538 17.9428 7.36841 17.8139C7.24144 17.6851 7.17027 17.5115 7.17027 17.3306C7.17028 17.1497 7.24146 16.9761 7.36844 16.8472C7.49541 16.7184 7.66798 16.6447 7.84885 16.6421H9.01279C9.09282 16.6421 9.17207 16.6263 9.24602 16.5957C9.31996 16.5651 9.38714 16.5202 9.44373 16.4636C9.50032 16.407 9.54521 16.3399 9.57582 16.2659C9.60644 16.192 9.62219 16.1127 9.62217 16.0327V14.8687C9.62217 14.6869 9.6944 14.5125 9.82296 14.3839C9.95152 14.2554 10.1259 14.1831 10.3077 14.1831C10.4895 14.1831 10.6639 14.2554 10.7925 14.3839C10.921 14.5125 10.9933 14.6869 10.9933 14.8687V16.0327C10.9932 16.1127 11.009 16.192 11.0396 16.2659C11.0702 16.3399 11.1151 16.407 11.1717 16.4636C11.2283 16.5202 11.2955 16.5651 11.3694 16.5957C11.4434 16.6263 11.5226 16.6421 11.6026 16.6421H12.7667C12.9014 16.6446 13.0324 16.6861 13.144 16.7617C13.2555 16.8372 13.3428 16.9435 13.3951 17.0676C13.4475 17.1918 13.4627 17.3284 13.4389 17.461C13.4151 17.5936 13.3534 17.7165 13.2612 17.8147Z" fill="black"/>
<path d="M27.8195 13.4726C27.2666 13.4786 26.7384 13.7025 26.3496 14.0956C25.9608 14.4887 25.7427 15.0193 25.7427 15.5723C25.7427 16.1252 25.9608 16.6558 26.3496 17.0489C26.7385 17.442 27.2667 17.6658 27.8196 17.6719C28.3725 17.6658 28.9007 17.442 29.2895 17.0488C29.6783 16.6557 29.8964 16.1251 29.8964 15.5722C29.8964 15.0193 29.6783 14.4887 29.2894 14.0956C28.9006 13.7025 28.3724 13.4786 27.8195 13.4726ZM27.8195 16.4531C27.588 16.4498 27.3672 16.3556 27.2046 16.1907C27.0421 16.0259 26.951 15.8037 26.951 15.5722C26.951 15.3407 27.0421 15.1185 27.2047 14.9537C27.3672 14.7889 27.5881 14.6946 27.8195 14.6913C28.051 14.6946 28.2719 14.7889 28.4344 14.9537C28.5969 15.1186 28.688 15.3408 28.688 15.5723C28.688 15.8037 28.5969 16.0259 28.4344 16.1908C28.2718 16.3556 28.051 16.4498 27.8195 16.4531Z" fill="black"/>
<path d="M24.235 16.9863C23.682 16.9923 23.1537 17.2162 22.7648 17.6093C22.3758 18.0024 22.1577 18.5331 22.1577 19.0861C22.1577 19.6392 22.3759 20.1698 22.7648 20.563C23.1537 20.9561 23.682 21.1799 24.235 21.1859C24.788 21.1799 25.3163 20.9561 25.7052 20.5629C26.0942 20.1698 26.3123 19.6391 26.3123 19.0861C26.3123 18.5331 26.0941 18.0024 25.7052 17.6093C25.3163 17.2161 24.7879 16.9923 24.235 16.9863ZM24.235 19.9671C24.0034 19.9639 23.7825 19.8697 23.6199 19.7048C23.4573 19.5399 23.3661 19.3177 23.3661 19.0861C23.3661 18.8545 23.4573 18.6323 23.6199 18.4674C23.7825 18.3025 24.0035 18.2083 24.235 18.2051C24.4665 18.2083 24.6875 18.3026 24.8501 18.4674C25.0127 18.6323 25.1038 18.8546 25.1038 19.0861C25.1038 19.3177 25.0127 19.5399 24.8501 19.7048C24.6875 19.8697 24.4665 19.9639 24.235 19.9671Z" fill="black"/>
<path d="M27.9678 20.1781C27.9737 20.7311 28.1976 21.2594 28.5907 21.6483C28.9839 22.0372 29.5146 22.2554 30.0676 22.2554C30.6206 22.2554 31.1513 22.0372 31.5444 21.6483C31.9375 21.2593 32.1614 20.731 32.1673 20.1781C32.1614 19.6251 31.9375 19.0968 31.5444 18.7078C31.1512 18.3189 30.6205 18.1008 30.0675 18.1008C29.5145 18.1008 28.9838 18.319 28.5907 18.7079C28.1976 19.0968 27.9737 19.6251 27.9678 20.1781ZM30.0673 19.2971C30.2988 19.3003 30.5198 19.3946 30.6824 19.5594C30.845 19.7243 30.9361 19.9466 30.9361 20.1781C30.9361 20.4097 30.8449 20.6319 30.6823 20.7968C30.5197 20.9617 30.2988 21.0559 30.0672 21.0591C29.8357 21.0559 29.6148 20.9616 29.4523 20.7967C29.2897 20.6318 29.1986 20.4096 29.1986 20.1781C29.1986 19.9466 29.2897 19.7244 29.4523 19.5595C29.6148 19.3946 29.8358 19.3004 30.0673 19.2971Z" fill="black"/>
<path d="M17.5649 22.0038H16.1748C16.0132 22.0038 15.8582 22.068 15.7439 22.1823C15.6296 22.2966 15.5654 22.4516 15.5654 22.6132C15.5654 22.7748 15.6296 22.9298 15.7439 23.0441C15.8582 23.1584 16.0132 23.2226 16.1748 23.2226H17.5649C17.7245 23.2195 17.8765 23.1539 17.9882 23.04C18.1 22.926 18.1625 22.7728 18.1625 22.6132C18.1625 22.4536 18.0999 22.3004 17.9882 22.1865C17.8765 22.0725 17.7245 22.007 17.5649 22.0038Z" fill="black"/>
<path d="M22.8252 22.0038H21.4351C21.2734 22.0038 21.1184 22.068 21.0042 22.1823C20.8899 22.2966 20.8257 22.4516 20.8257 22.6132C20.8257 22.7748 20.8899 22.9298 21.0042 23.0441C21.1184 23.1584 21.2734 23.2226 21.4351 23.2226H22.8252C22.9847 23.2195 23.1367 23.1539 23.2485 23.04C23.3602 22.926 23.4228 22.7728 23.4228 22.6132C23.4228 22.4536 23.3602 22.3004 23.2485 22.1865C23.1367 22.0725 22.9847 22.007 22.8252 22.0038Z" fill="black"/>
</svg>
