<svg width="39" height="39" viewBox="0 0 39 39" fill="none" xmlns="http://www.w3.org/2000/svg">
<g clip-path="url(#clip0_508_3358)">
<path d="M36 0H27.225C26.2723 0 25.5 0.669334 25.5 1.495C25.4983 1.99251 25.7787 2.45901 26.25 2.743L27.825 3.6595C28.1149 3.81711 28.4503 3.90048 28.7925 3.9H33V5.2H26.25C25.8358 5.2 25.5 5.49101 25.5 5.85C25.5 6.20898 25.8358 6.5 26.25 6.5H33V7.8H26.25C25.8358 7.8 25.5 8.09101 25.5 8.45C25.5 8.80898 25.8358 9.1 26.25 9.1H33V10.4H26.25C25.8358 10.4 25.5 10.691 25.5 11.05C25.5 11.409 25.8358 11.7 26.25 11.7H33V13H26.25C25.8358 13 25.5 13.291 25.5 13.65C25.5 14.009 25.8358 14.3 26.25 14.3H33V15.6H26.25C25.8358 15.6 25.5 15.891 25.5 16.25C25.5 16.609 25.8358 16.9 26.25 16.9H33V18.2H26.25C25.8358 18.2 25.5 18.491 25.5 18.85C25.5 19.209 25.8358 19.5 26.25 19.5H33V20.8H26.25C25.8358 20.8 25.5 21.091 25.5 21.45C25.5 21.809 25.8358 22.1 26.25 22.1H33V23.4H26.25C25.8358 23.4 25.5 23.691 25.5 24.05C25.5 24.409 25.8358 24.7 26.25 24.7H33V26H26.25C25.8358 26 25.5 26.291 25.5 26.65C25.5 27.009 25.8358 27.3 26.25 27.3H33V28.6H28.7925C28.4533 28.6026 28.1224 28.6907 27.84 28.8535L26.25 29.7635C25.7808 30.0462 25.5008 30.5098 25.5 31.005V36.4C25.5 37.8359 26.8432 39 28.5 39H36C37.6569 39 39 37.8359 39 36.4V2.6C39 1.16406 37.6569 0 36 0ZM37.5 36.4C37.5 37.118 36.8284 37.7 36 37.7H30.75V32.5C30.75 32.141 30.4142 31.85 30 31.85C29.5858 31.85 29.25 32.141 29.25 32.5V37.7H28.5C27.6716 37.7 27 37.118 27 36.4V31.005C27.0006 30.9386 27.0366 30.8762 27.0975 30.836L28.6575 29.939C28.6975 29.9155 28.7442 29.902 28.7925 29.9H33.75C34.1642 29.9 34.5 29.609 34.5 29.25V3.25C34.5 2.89101 34.1642 2.6 33.75 2.6H28.7925C28.7506 2.60858 28.7069 2.60858 28.665 2.6L27.1125 1.6705C27.0438 1.63176 27.0017 1.56604 27 1.495C26.9979 1.44274 27.0209 1.39207 27.0636 1.35509C27.1062 1.31812 27.1647 1.29816 27.225 1.3H36C36.8284 1.3 37.5 1.88203 37.5 2.6V36.4Z" fill="black"/>
<path d="M22.2899 3.90001C22.8019 2.63643 22.3672 1.23002 21.1949 0.357506L21.1199 0.292506C20.7549 0.0404498 20.278 -0.0551132 19.8224 0.0325056C19.3526 0.110998 18.9541 0.379026 18.7499 0.754006L15.7499 6.3245V1.30001C15.7534 0.893095 15.5369 0.508216 15.1649 0.260006C14.7915 0.0120803 14.3057 -0.0697343 13.8524 0.0390056C12.3233 0.370341 11.1965 1.49495 11.0324 2.85351L10.3799 8.41101C9.96023 11.8788 9.74994 15.3632 9.74987 18.85V21.9765V22.061L6.09737 26.1365C5.79494 26.4459 5.35732 26.632 4.88987 26.65C2.75264 26.7761 0.918143 28.0148 0.254571 29.7801C-0.409002 31.5453 0.231463 33.4829 1.87286 34.6758C3.51425 35.8688 5.82732 36.0778 7.71737 35.204C7.41305 36.2664 7.34182 37.3688 7.50737 38.454C7.56636 38.7694 7.88116 39.0009 8.24987 39H8.37737C8.57764 38.9731 8.75682 38.877 8.87408 38.7338C8.99135 38.5905 9.03672 38.4122 8.99987 38.2395C8.75987 37.011 9.09737 35.2495 9.98987 33.1565C10.3284 32.5461 10.5027 31.8772 10.4999 31.2C10.4971 30.5443 10.3308 29.8968 10.0124 29.302C9.78503 28.8148 9.88282 28.2589 10.2674 27.8525L12.8624 24.9665L14.4599 26.351L15.3824 29.5425C15.5009 29.9579 15.39 30.3974 15.0824 30.732C14.8384 30.9976 14.6202 31.2803 14.4299 31.577C13.0274 33.8 13.4999 36.4 15.5024 37.349C15.9924 37.5804 16.5418 37.7011 17.0999 37.7C19.073 37.573 20.8189 36.5453 21.6824 35.0025C22.3221 34.0032 22.5844 32.8552 22.4324 31.72C22.3139 30.6937 21.6403 29.7771 20.6174 29.25C20.1793 29.0741 19.851 28.7421 19.7174 28.34L18.7349 24.9275C18.6341 24.5878 18.4294 24.2779 18.1424 24.0305L15.7499 21.9505V20.15L22.2899 3.90001ZM20.1749 1.30001C20.905 1.81647 21.1864 2.67261 20.8799 3.44501L15.7499 16.198V9.37951L20.1749 1.30001ZM12.5249 2.99001C12.6168 2.18447 13.2734 1.51193 14.1749 1.30001H14.2499V16.614C13.3376 16.1415 12.1996 16.1415 11.2874 16.614C11.3549 13.9295 11.5499 11.232 11.8724 8.56701L12.5249 2.99001ZM14.2499 18.85C14.2499 19.568 13.5783 20.15 12.7499 20.15C11.9214 20.15 11.2499 19.568 11.2499 18.85C11.2499 18.132 11.9214 17.55 12.7499 17.55C13.5783 17.55 14.2499 18.132 14.2499 18.85ZM1.49987 31.2C1.48201 29.9056 2.35218 28.7255 3.71502 28.1957C5.07787 27.666 6.67349 27.8877 7.77694 28.7601C8.8804 29.6326 9.28124 30.9893 8.79737 32.214L8.62487 32.5845C7.86606 33.9427 6.12831 34.6696 4.42927 34.3395C2.73023 34.0093 1.51692 32.709 1.49987 31.2ZM9.08987 27.053C8.90818 27.252 8.75693 27.4704 8.63987 27.703C8.21748 27.3936 7.74169 27.1436 7.22987 26.962L7.29737 26.9035L10.7324 23.075L10.8599 23.1855L11.8049 24.05L9.08987 27.053ZM20.3399 34.372C19.3424 35.958 17.4449 36.7965 16.1999 36.2115C14.9549 35.6265 14.7599 33.8 15.7499 32.1945C16.2057 31.4242 16.9336 30.8002 17.8274 30.4135C18.1896 30.2591 18.5863 30.1748 18.9899 30.1665C19.3008 30.164 19.6076 30.2287 19.8824 30.355C20.5233 30.6759 20.9412 31.2495 20.9999 31.889C21.0922 32.7541 20.8693 33.6225 20.3624 34.372H20.3399ZM17.2499 25.1875L18.2099 28.6C18.2462 28.7097 18.2939 28.8163 18.3524 28.9185C17.8213 28.9936 17.312 29.1569 16.8524 29.3995C16.7549 28.9055 16.2224 27.1505 15.8549 25.857C15.8232 25.7417 15.7558 25.636 15.6599 25.5515L11.9099 22.3015L11.2499 21.71V21.06C12.1714 21.5455 13.3283 21.5455 14.2499 21.06V22.191C14.2487 22.3638 14.327 22.5298 14.4674 22.6525L17.0399 24.8755C17.1453 24.9583 17.2187 25.0672 17.2499 25.1875Z" fill="black"/>
</g>
<defs>
<clipPath id="clip0_508_3358">
<rect width="39" height="39" fill="white"/>
</clipPath>
</defs>
</svg>
