<svg width="37" height="39" viewBox="0 0 37 39" fill="none" xmlns="http://www.w3.org/2000/svg">
<path d="M35.4008 27.1717C35.3986 27.1522 35.3964 27.1327 35.393 27.1131C35.226 26.151 34.9255 25.2222 34.4997 24.3522C34.3611 24.0687 34.0191 23.9514 33.7355 24.0902C33.4522 24.2289 33.3348 24.5711 33.4736 24.8544C33.8243 25.5711 34.0785 26.3332 34.2322 27.1222H16.3449C17.1773 22.847 20.9083 19.7637 25.2886 19.7637C27.9126 19.7637 30.4076 20.8879 32.134 22.8481C32.3425 23.0848 32.7035 23.1077 32.9403 22.8992C33.177 22.6906 33.2 22.3296 32.9914 22.0929C31.0482 19.8865 28.2407 18.6211 25.2886 18.6211C24.3069 18.6211 23.3544 18.7593 22.4506 19.0178L22.8413 14.7655H24.3248C24.8498 14.7655 25.2769 14.3384 25.2769 13.8134V10.9436C25.2769 10.4186 24.8498 9.99146 24.3248 9.99146H22.2687V7.46027C22.2687 6.93522 21.8415 6.50813 21.3165 6.50813H14.8882V1.20565C14.8882 0.540896 14.3473 0 13.6826 0H7.86465C7.19982 0 6.659 0.540896 6.659 1.20565V2.22071C6.659 2.88547 7.1999 3.42629 7.86465 3.42629H11.462V6.50813H4.90842C4.38337 6.50813 3.95627 6.93522 3.95627 7.46027V9.99146H1.90039C1.37534 9.99146 0.948242 10.4186 0.948242 10.9436V13.8134C0.948242 14.3384 1.37534 14.7655 1.90039 14.7655H3.31338L5.45792 38.1017C5.50424 38.6054 5.93674 39 6.4426 39H29.9565C31.3896 39 32.7432 38.4484 33.768 37.4466C34.7903 36.4471 35.3728 35.1099 35.4081 33.6808C35.4088 33.6525 35.4074 33.6243 35.4058 33.5962C35.7923 33.3626 36.0521 32.9395 36.0521 32.4558V30.923C36.0521 30.7014 35.9974 30.4925 35.9012 30.3086C35.9962 30.1606 36.0521 29.9849 36.0521 29.7962V28.0744H36.0522C36.0522 27.6546 35.7787 27.298 35.4008 27.1717ZM7.86465 2.28371C7.83106 2.28371 7.80158 2.25423 7.80158 2.22071V1.20565C7.80158 1.17206 7.83106 1.14258 7.86465 1.14258H13.6826C13.7162 1.14258 13.7457 1.17206 13.7457 1.20565V6.50813H12.6046V2.855C12.6046 2.53949 12.3488 2.28371 12.0333 2.28371H7.86465ZM2.09082 13.623V11.134H16.5959C16.9114 11.134 17.1672 10.8783 17.1672 10.5628C17.1672 10.2472 16.9114 9.99146 16.5959 9.99146H5.09885V7.6507H21.126V9.99146H19.3381C19.0225 9.99146 18.7668 10.2472 18.7668 10.5628C18.7668 10.8783 19.0225 11.134 19.3381 11.134H24.1344V13.623H2.09082ZM5.54423 26.5556L10.0522 21.638C10.2654 21.4054 10.2497 21.0441 10.017 20.8308C9.78456 20.6177 9.4232 20.6333 9.20984 20.8659L5.403 25.0187L4.46076 14.7655H14.802L11.3745 18.5046C11.1613 18.7371 11.177 19.0985 11.4096 19.3118C11.5193 19.4123 11.6576 19.4619 11.7955 19.4619C11.9501 19.4619 12.1041 19.3996 12.2168 19.2767L16.352 14.7655H21.6939L21.6214 15.5551L6.09038 32.4977L5.54423 26.5556ZM6.5829 37.8575V37.8574L6.2316 34.0344L21.4487 17.4343L21.2647 19.4373C18.1453 20.7625 15.7955 23.5922 15.1844 27.1128C15.181 27.1324 15.1788 27.1522 15.1765 27.1718C14.7987 27.2981 14.5252 27.6547 14.5252 28.0745V29.7962C14.5252 29.9849 14.581 30.1605 14.6762 30.3086C14.58 30.4925 14.5252 30.7014 14.5252 30.923V32.4558C14.5252 32.9395 14.7849 33.3624 15.1714 33.5961C15.1698 33.6245 15.1685 33.6528 15.1692 33.6813C15.2043 35.1097 15.7868 36.4469 16.8094 37.4467C16.9599 37.5939 17.1183 37.7301 17.2822 37.8575H6.5829ZM32.9693 36.6296C32.1592 37.4213 31.0894 37.8574 29.9565 37.8574H20.6205C19.4879 37.8574 18.418 37.4213 17.6081 36.6296C16.8322 35.8711 16.3777 34.8666 16.3178 33.7888H34.2596C34.1995 34.8667 33.745 35.8712 32.9693 36.6296ZM34.9096 32.4558C34.9096 32.559 34.8223 32.6462 34.7191 32.6462H34.6729C34.5681 32.6123 34.4584 32.5939 34.3472 32.5939H16.2302C16.119 32.5939 16.0091 32.6123 15.9044 32.6463H15.8582C15.755 32.6463 15.6678 32.5591 15.6678 32.4558V30.923C15.6678 30.846 15.7164 30.7779 15.7839 30.7483H27.7761C27.8559 30.7483 28.0377 30.8117 28.1002 30.8613L29.1992 31.733C29.3791 31.8757 29.6112 31.9543 29.8526 31.9543C30.094 31.9543 30.3261 31.8757 30.506 31.733L31.605 30.8612C31.6675 30.8116 31.8493 30.7482 31.9292 30.7482H34.7934C34.861 30.7779 34.9096 30.8459 34.9096 30.9229V32.4558ZM34.9096 29.6056H31.9292C31.5932 29.6056 31.1582 29.7572 30.8949 29.966L29.8526 30.7929L28.8104 29.9661C28.5471 29.7572 28.1121 29.6056 27.7761 29.6056H15.6678V28.2649H34.9096V29.6056Z" fill="black"/>
</svg>
