<svg width="33" height="39" viewBox="0 0 33 39" fill="none" xmlns="http://www.w3.org/2000/svg">
<path d="M31.1071 12.1716H30.3565V10.2511C30.3565 8.10538 28.6108 6.3596 26.465 6.3596H24.2725V4.49259C24.2725 4.14889 23.994 3.87025 23.6502 3.87025H19.6155L20.903 0.867844C21.0385 0.551945 20.8922 0.186093 20.5763 0.0505897C20.2604 -0.084831 19.8944 0.061377 19.759 0.377276L18.2612 3.87025H14.9152L13.4175 0.377276C13.282 0.061294 12.9161 -0.084831 12.6002 0.0505897C12.2843 0.186093 12.1381 0.551945 12.2735 0.867844L13.561 3.87025H9.52637C9.18267 3.87025 8.90403 4.14889 8.90403 4.49259V6.3596H6.5355C4.38968 6.3596 2.64398 8.10538 2.64398 10.2511V12.1716H1.89344C0.955452 12.1716 0.192383 12.9346 0.192383 13.8726V18.0946C0.192383 18.4383 0.471024 18.7169 0.814721 18.7169C1.15842 18.7169 1.43706 18.4383 1.43706 18.0946V13.8726C1.43706 13.621 1.64177 13.4162 1.89344 13.4162H2.64398V33.7521C2.64398 34.2884 2.93697 34.7565 3.37045 35.008V38.3777C3.37045 38.7214 3.6491 39.0001 3.99279 39.0001H8.65277C8.99647 39.0001 9.27511 38.7214 9.27511 38.3777V37.0711C9.27511 36.7274 8.99647 36.4488 8.65277 36.4488C8.30908 36.4488 8.03044 36.7274 8.03044 37.0711V37.7554H4.61505V35.2041H28.3854V37.7554H24.9701V37.0711C24.9701 36.7274 24.6915 36.4488 24.3477 36.4488C24.0039 36.4488 23.7254 36.7274 23.7254 37.0711V38.3777C23.7254 38.7214 24.0039 39.0001 24.3477 39.0001H29.0077C29.3515 39.0001 29.63 38.7214 29.63 38.3777V35.0079C30.0635 34.7564 30.3565 34.2882 30.3565 33.752V13.4162H31.1071C31.3586 13.4162 31.5634 13.621 31.5634 13.8726V18.0946C31.5634 18.4383 31.842 18.7169 32.1858 18.7169C32.5295 18.7169 32.8081 18.4383 32.8081 18.0946V13.8726C32.8081 12.9346 32.045 12.1716 31.1071 12.1716ZM10.1487 5.11493H14.5032C14.5086 5.11493 18.668 5.11493 18.668 5.11493C18.6735 5.11493 23.0279 5.11493 23.0279 5.11493V6.3596H10.1487V5.11493ZM3.88857 10.2511C3.88857 8.7917 5.07599 7.60428 6.53542 7.60428H26.465C27.9245 7.60428 29.1118 8.7917 29.1118 10.2511V12.1716H3.88857V10.2511ZM29.1118 30.9527H25.1774C25.065 30.9527 24.97 30.8577 24.97 30.7453V29.5006C24.97 29.3882 25.065 29.2932 25.1774 29.2932H27.2448C27.5886 29.2932 27.8672 29.0145 27.8672 28.6708C27.8672 28.3271 27.5886 28.0485 27.2448 28.0485H25.1774C24.3768 28.0485 23.7253 28.6999 23.7253 29.5006V30.7453C23.7253 31.5459 24.3768 32.1974 25.1774 32.1974H29.1118V33.752C29.1118 33.8644 29.0168 33.9595 28.9044 33.9595H4.09602C3.98358 33.9595 3.88857 33.8644 3.88857 33.752V32.1974H7.82299C8.62365 32.1974 9.27511 31.5459 9.27511 30.7453V29.5006C9.27511 28.6999 8.62365 28.0485 7.82299 28.0485H5.75558C5.41189 28.0485 5.13325 28.3271 5.13325 28.6708C5.13325 29.0145 5.41189 29.2932 5.75558 29.2932H7.82299C7.93543 29.2932 8.03044 29.3882 8.03044 29.5006V30.7453C8.03044 30.8577 7.93543 30.9527 7.82299 30.9527H3.88857V13.4162H15.8779V25.0418H5.75558C5.41189 25.0418 5.13325 25.3205 5.13325 25.6642C5.13325 26.0079 5.41189 26.2865 5.75558 26.2865H27.2449C27.5887 26.2865 27.8672 26.0079 27.8672 25.6642C27.8672 25.3205 27.5887 25.0418 27.2449 25.0418H17.1225V13.4162H29.1118V30.9527Z" fill="black"/>
<path d="M27.7025 9.88787C27.7025 9.54417 27.4239 9.26553 27.0802 9.26553H5.92068C5.57698 9.26553 5.29834 9.54417 5.29834 9.88787C5.29834 10.2316 5.57698 10.5102 5.92068 10.5102H27.0802C27.4239 10.5102 27.7025 10.2316 27.7025 9.88787Z" fill="black"/>
</svg>
