<svg width="37" height="39" viewBox="0 0 37 39" fill="none" xmlns="http://www.w3.org/2000/svg">
<path d="M33.5276 11.4981L24.0078 7.68996L24.0047 7.68245L19.129 5.85446V3.14523C19.129 1.41091 17.7181 0 15.9839 0C14.2497 0 12.8387 1.41091 12.8387 3.14523V3.77433H14.0968V3.14523C14.0968 2.10483 14.9434 1.25806 15.9839 1.25806C17.0245 1.25806 17.8711 2.10469 17.8711 3.14523V5.85446L12.9954 7.68245L12.9923 7.68996L3.47239 11.4981L0.77832 26.9893L8.43554 27.6271V39H28.5646V27.6271L36.2217 26.9893L33.5276 11.4981ZM24.5562 12.1636L20.1976 13.3524L23.3674 9.39019L24.5562 12.1636ZM18.4999 6.9621L22.4986 8.46171L18.4999 13.4607L14.5012 8.46171L18.4999 6.9621ZM13.6326 9.39019L16.8022 13.3525L12.4436 12.1637L13.6326 9.39019ZM8.4354 26.3646L2.25391 25.8494L2.47721 24.5649L8.4354 25.1065V26.3646ZM28.5644 23.8435V17.6129V16.9838H27.3064V17.6129V27.7322V37.7419H9.6936V27.7322V17.6129V16.9838H8.43554V17.6129V23.8435L2.69366 23.3214L4.5921 12.4051L12.2915 9.32538L10.7176 12.997L17.871 14.9484V35.2258H19.129V14.9484L26.2823 12.9977L24.7085 9.32605L32.4079 12.4058L34.3063 23.322L28.5644 23.8435ZM28.5646 25.1065L34.5228 24.5649L34.7461 25.8494L28.5646 26.3646V25.1065Z" fill="black"/>
</svg>
