<svg width="39" height="39" viewBox="0 0 39 39" fill="none" xmlns="http://www.w3.org/2000/svg">
<path d="M30.4716 21.8837C25.7691 21.8837 21.9434 25.7094 21.9434 30.4119C21.9434 35.1144 25.7691 38.9401 30.4716 38.9401C35.174 38.9401 38.9998 35.1143 38.9998 30.4119C38.9997 25.7093 35.174 21.8837 30.4716 21.8837ZM30.4716 37.2786C26.6852 37.2786 23.6047 34.1981 23.6047 30.4118C23.6047 26.6254 26.6852 23.5449 30.4716 23.5449C34.2579 23.5449 37.3384 26.6254 37.3384 30.4118C37.3383 34.1982 34.2579 37.2786 30.4716 37.2786Z" fill="black"/>
<path d="M33.068 26.2001C32.6775 25.9594 32.1656 26.0807 31.9249 26.4713L27.6042 33.4805C27.3634 33.871 27.4848 34.3827 27.8754 34.6235C28.0113 34.7072 28.1617 34.7472 28.3105 34.7472C28.5891 34.7472 28.8615 34.607 29.0184 34.3524L33.3392 27.3432C33.58 26.9526 33.4585 26.4409 33.068 26.2001Z" fill="black"/>
<path d="M6.75336 33.0826L6.62655 33.0033C5.93786 32.5722 5.45795 31.8974 5.27509 31.103C5.09234 30.3085 5.22901 29.4917 5.66008 28.8029C5.90352 28.414 5.78557 27.9014 5.3967 27.6581C5.00761 27.4146 4.49513 27.5327 4.25191 27.9215C3.58537 28.9864 3.37382 30.2486 3.65615 31.4755C3.93847 32.7023 4.68043 33.745 5.74525 34.4115L5.87218 34.491C6.00919 34.5767 6.16148 34.6176 6.312 34.6176C6.58878 34.6176 6.85936 34.4793 7.01697 34.2275C7.2603 33.8385 7.14234 33.3259 6.75336 33.0826Z" fill="black"/>
<path d="M23.7041 5.71838L23.8309 5.79768C25.2553 6.68928 25.6889 8.57359 24.7973 9.99804C24.5539 10.3869 24.6719 10.8995 25.0607 11.1428C25.1977 11.2286 25.3501 11.2695 25.5007 11.2695C25.7774 11.2695 26.0479 11.1313 26.2056 10.8794C27.5832 8.67848 26.9134 5.76711 24.7123 4.3894L24.5854 4.30999C24.1963 4.06665 23.6839 4.18461 23.4406 4.57348C23.1972 4.96235 23.3152 5.47504 23.7041 5.71838Z" fill="black"/>
<path d="M22.2774 23.812C22.2774 23.8119 22.2775 23.8119 22.2775 23.8118L29.1993 12.7529C30.3671 10.8871 30.7384 8.67827 30.2448 6.53312C29.7513 4.38808 28.4519 2.56358 26.5863 1.39586L26.4593 1.31634C25.1461 0.494407 23.6367 0.059906 22.0943 0.059906C19.2326 0.059906 16.6187 1.50651 15.1022 3.92944L1.25841 26.0477C0.0905805 27.9135 -0.280678 30.1223 0.212857 32.2674C0.706391 34.4124 2.0058 36.2369 3.87139 37.4046L3.99843 37.4842C5.31157 38.3061 6.82097 38.7405 8.36338 38.7405C11.2251 38.7405 13.839 37.2939 15.3555 34.871L22.2774 23.812C22.2775 23.8122 22.2774 23.8122 22.2774 23.812ZM16.5105 4.81096C17.7214 2.87636 19.8088 1.72138 22.0944 1.72138C23.3247 1.72138 24.5292 2.06838 25.5777 2.72462L25.7048 2.80414C27.1945 3.7365 28.2318 5.19307 28.6259 6.90571C29.02 8.61835 28.7235 10.3818 27.7911 11.8715L21.3099 22.2266L10.0293 15.166L16.5105 4.81096ZM13.9472 33.9898C12.7363 35.9244 10.6489 37.0793 8.36327 37.0793C7.13298 37.0793 5.92849 36.7325 4.87995 36.0762L4.75291 35.9967C3.26323 35.0643 2.22587 33.6077 1.8318 31.8951C1.43772 30.1825 1.73422 28.419 2.66658 26.9293L9.14777 16.5743L20.4284 23.6348L13.9472 33.9898Z" fill="black"/>
</svg>
