<svg width="31" height="39" viewBox="0 0 31 39" fill="none" xmlns="http://www.w3.org/2000/svg">
<path d="M29.8151 2.53645C25.3514 0.898653 20.5314 0.000200012 15.5 0C10.4686 0.000200012 5.64857 0.898653 1.1849 2.53645C0.341454 2.84587 -0.0593694 3.81452 0.282751 4.64527L14.0204 38.009C14.2925 38.6697 14.8961 38.9999 15.5 38.9999C16.1038 38.9999 16.7074 38.6697 16.9795 38.009L30.7172 4.64527C31.0593 3.81452 30.6584 2.84587 29.8151 2.53645ZM6.48462 15.5499L4.70791 11.2439C4.83592 11.2222 4.96443 11.2006 5.09883 11.2006C6.42231 11.2006 7.49898 12.2772 7.49898 13.6007C7.49898 14.3914 7.10405 15.1105 6.48462 15.5499ZM18.7166 29.5875C17.7406 28.8611 17.0994 27.7125 17.0994 26.4015C17.0994 24.1921 18.8904 22.4012 21.0997 22.4012C21.2889 22.4012 21.4619 22.453 21.6434 22.4796L18.7166 29.5875ZM25.2329 13.7622L22.2754 20.945C21.8963 20.858 21.5059 20.8011 21.0998 20.8011C18.0117 20.8011 15.4994 23.3134 15.4994 26.4015C15.4994 28.3798 16.5433 30.0974 18.0992 31.0875L15.5 37.3999L11.0015 26.497C11.7609 25.917 12.2714 25.0306 12.2714 24.0014C12.2714 22.2367 10.8359 20.8012 9.07117 20.8012C8.93306 20.8012 8.80265 20.8264 8.67365 20.8548L7.09755 17.0352C8.28902 16.3468 9.09927 15.0748 9.09927 13.6008C9.09927 11.395 7.30486 9.60057 5.09903 9.60057C4.74801 9.60057 4.41399 9.66077 4.09108 9.74837L3.58395 8.5191C7.31117 7.17072 11.3126 6.40028 15.4991 6.40028C19.6784 6.40028 23.6748 7.16482 27.3965 8.5083L25.2329 13.7622ZM28.0079 7.02251C24.0987 5.60633 19.8971 4.80018 15.4987 4.80018C11.0927 4.80018 6.88534 5.61193 2.97041 7.03301L1.73484 4.03824C6.1451 2.42034 10.776 1.59999 15.4988 1.59999C20.2222 1.59999 24.8535 2.42044 29.2377 4.03604L28.0079 7.02251Z" fill="black"/>
</svg>
