<svg width="23" height="22" viewBox="0 0 23 22" fill="none" xmlns="http://www.w3.org/2000/svg">
<path d="M11.0014 0.0866299C9.30462 0.3382 7.943 1.19695 7.54833 2.2723C7.43646 2.58471 7.41685 2.81012 7.41685 3.74675V4.85707L7.25907 4.80505C6.56199 4.57082 4.87167 4.51028 3.96399 4.67486C2.85241 4.87441 1.80011 5.37756 1.22137 5.97592C1.0832 6.12345 0.879292 6.4529 0.774106 6.69595L0.57666 7.13826V12.3772C0.57666 17.512 0.57666 17.6334 0.714828 17.9978C1.07651 18.9865 2.37886 19.8279 3.97714 20.1141C4.67422 20.2355 6.62105 20.1662 7.18664 20.0013L7.58131 19.8884L7.8708 20.3049C8.68643 21.4846 10.9751 22.2131 13.0338 21.9442C14.4808 21.7535 15.6844 21.2157 16.2959 20.4871L16.5787 20.1488L17.4402 20.1835C18.4268 20.2182 18.9267 20.0968 19.683 19.6283C22.4718 17.937 23.3005 13.1404 21.3537 9.9746C20.4592 8.51749 19.1174 7.70194 17.5982 7.70194H16.888V5.16066C16.888 2.24614 16.8816 2.21146 16.3157 1.54374C15.3158 0.355246 13.1521 -0.234301 11.0014 0.0866299ZM14.0926 1.88201C14.7239 2.0989 15.3555 2.49771 15.5723 2.8013C15.7236 3.00938 15.7301 3.04406 15.6316 3.26095C15.5132 3.5472 14.7239 4.08502 14.1583 4.27576C12.5536 4.80476 10.3304 4.58816 9.18606 3.78995C8.70604 3.45168 8.55472 3.20012 8.66637 2.9312C8.84398 2.4889 9.86999 1.90758 10.804 1.71684C11.021 1.67335 11.7312 1.65601 12.3824 1.66483C13.3298 1.69128 13.6716 1.73448 14.0926 1.88201ZM9.35699 5.62031C10.9553 6.34887 13.3757 6.34887 14.9474 5.62913C15.2369 5.49041 15.5262 5.3514 15.5919 5.31672C15.6906 5.2647 15.7038 5.31672 15.7038 5.81104C15.7038 6.30537 15.6842 6.39207 15.5262 6.59162C15.2632 6.91255 14.7502 7.22466 14.1186 7.45889C13.6188 7.63229 13.428 7.65845 12.152 7.64963C10.9022 7.64963 10.6787 7.63229 10.2183 7.45889C9.56067 7.21614 9.01469 6.88639 8.78448 6.60014C8.62002 6.39207 8.60041 6.30537 8.60041 5.81075C8.60041 5.31642 8.61356 5.26441 8.71874 5.31643C8.77824 5.3514 9.06773 5.49012 9.35699 5.62031ZM6.79197 6.31419C7.4759 6.47906 7.41685 6.34887 7.41685 7.64992V8.80374L7.04847 8.90778C6.08175 9.19403 4.28601 9.15935 3.32575 8.8296C2.52326 8.56069 1.76044 7.97967 1.76044 7.64992C1.76044 7.45919 2.12213 7.0689 2.5168 6.83467C2.95091 6.57457 3.5954 6.34887 4.25972 6.22749C4.78609 6.13197 6.25267 6.18399 6.79197 6.31419ZM9.88982 8.99448C11.2579 9.45412 13.0403 9.45412 14.3885 9.003L14.8817 8.83812L14.52 9.25457C14.3228 9.4888 14.0268 9.91377 13.8688 10.2C13.7111 10.4863 13.5203 10.7464 13.4414 10.7725C13.1192 10.8939 11.8761 10.9286 11.2249 10.8334C10.0739 10.6685 9.18606 10.2697 8.77824 9.74037C8.62047 9.5323 8.60063 9.43678 8.60063 8.95098V8.40464L8.98215 8.61271C9.19252 8.72556 9.60034 8.89896 9.88982 8.99448ZM18.4203 9.39329C20.2027 9.88761 21.4524 12.2558 21.1761 14.6149C20.9722 16.3409 20.0777 17.7633 18.8413 18.3532C18.4466 18.5439 18.2559 18.5786 17.6771 18.5786C17.0984 18.5786 16.9076 18.5439 16.513 18.3532C14.9147 17.5984 13.9413 15.4909 14.1781 13.3138C14.4674 10.6338 16.4142 8.8296 18.4203 9.39329ZM3.37188 10.4863C4.43087 10.781 6.1408 10.7899 7.21294 10.5121L7.41685 10.4513V11.1975V11.9434L7.17349 12.0301C5.77912 12.5159 3.51005 12.2905 2.4183 11.5619C1.8527 11.189 1.76044 11.0153 1.76044 10.3649V9.80121L2.27345 10.0613C2.54978 10.2088 3.04964 10.3996 3.37188 10.4863ZM9.38997 11.9434C10.1726 12.3078 11.0342 12.4724 12.1259 12.4724H13.0599L13.0008 12.7933C12.9678 12.9755 12.9415 13.3311 12.9415 13.5912V14.0597L11.8431 14.0077C10.6132 13.9642 9.99501 13.7996 9.2781 13.3397C8.71897 12.9752 8.60063 12.7583 8.60063 12.0994C8.60063 11.6483 8.61378 11.5878 8.71897 11.6398C8.77824 11.6659 9.08088 11.8047 9.38997 11.9434ZM2.5168 13.34C3.3389 13.7129 4.20712 13.8778 5.37776 13.869C5.93689 13.8604 6.61414 13.8081 6.87733 13.7476C7.2457 13.6609 7.37049 13.6521 7.39033 13.7302C7.40994 13.7911 7.41662 14.1205 7.40348 14.4761L7.38387 15.118L7.05494 15.2394C6.85771 15.3087 6.2393 15.3696 5.54222 15.3954C4.50953 15.4301 4.27287 15.4128 3.67429 15.2479C2.92439 15.0483 2.22085 14.6669 1.94452 14.3198C1.78006 14.1117 1.76044 14.0247 1.76044 13.5304C1.76044 13.0361 1.77359 12.9838 1.87878 13.0361C1.93806 13.071 2.22754 13.2098 2.5168 13.34ZM9.00199 14.9358C9.82408 15.4128 11.2316 15.7164 12.4089 15.6643L13.0929 15.6385L13.2047 16.0808C13.2705 16.315 13.3692 16.6359 13.4218 16.7835C13.56 17.1306 13.5401 17.1391 12.593 17.2084C11.054 17.3213 9.33069 16.8093 8.78493 16.0723C8.62047 15.8642 8.60085 15.7687 8.60085 15.2829C8.60085 14.9793 8.614 14.7277 8.62715 14.7277C8.64008 14.7277 8.81123 14.8232 9.00199 14.9358ZM3.04964 16.7141C4.15453 17.0871 5.47648 17.1652 6.66049 16.9395C7.02218 16.8702 7.33796 16.8093 7.37072 16.8093C7.39701 16.8093 7.41685 17.1388 7.41685 17.5467V18.2753L7.17349 18.362C5.46356 18.9606 2.69464 18.4833 1.91845 17.46C1.78696 17.2866 1.76067 17.1649 1.76067 16.688V16.1243L2.14219 16.3324C2.35256 16.4452 2.76015 16.6186 3.04964 16.7141ZM9.40312 18.2841C10.2845 18.6917 11.1329 18.8304 12.4484 18.7784C13.0666 18.7523 13.7507 18.6829 13.9676 18.6221L14.3754 18.518L14.8489 18.9777C15.3882 19.5067 15.3815 19.524 14.7239 19.8538C13.882 20.2614 13.5729 20.3222 12.1194 20.3134C10.5869 20.3049 10.1002 20.192 9.2781 19.6715C8.71897 19.3071 8.60063 19.0905 8.60063 18.4313C8.60063 17.9802 8.61378 17.9197 8.71897 17.9717C8.77824 17.9978 9.08734 18.1366 9.40312 18.2841Z" fill="black"/>
<path d="M17.3155 10.2781C17.2104 10.2867 16.9276 10.3302 16.7038 10.3563C16.0065 10.443 16.033 10.339 16.033 13.0798V15.4218H15.8028C15.5858 15.4218 15.5726 15.4392 15.5726 15.7166C15.5726 15.9943 15.5925 16.0202 15.7897 16.0463L16.0003 16.0722L16.0333 16.7922C16.0596 17.3039 16.0925 17.5381 16.1647 17.5901C16.3094 17.7115 16.9146 17.6942 17.0067 17.5728C17.0528 17.512 17.0856 17.191 17.0856 16.7487V16.0287L17.2696 16.046C17.3684 16.0546 17.6445 16.0546 17.8945 16.046L18.3353 16.0287V15.7251V15.4215H17.7104H17.0856V15.17V14.9184L17.7301 14.8837C18.4534 14.8402 18.8744 14.6495 19.2428 14.1813C19.9991 13.2273 19.953 11.4663 19.1572 10.7466C18.7821 10.408 17.9074 10.1826 17.3155 10.2781ZM18.3217 11.4925C18.5981 11.6659 18.7491 12.0562 18.7558 12.5855C18.7558 13.0278 18.6308 13.3228 18.3086 13.635C18.1704 13.7737 18.0059 13.8257 17.6048 13.8519L17.0851 13.878V12.6204V11.3541L17.2692 11.3194C17.5458 11.2494 18.0784 11.345 18.3217 11.4925Z" fill="black"/>
</svg>
