<svg width="39" height="39" viewBox="0 0 39 39" fill="none" xmlns="http://www.w3.org/2000/svg">
<path d="M38.3607 37.6315H31.7855C31.9953 37.4287 32.1848 37.2024 32.347 36.9535L35.8042 36.9473C36.157 36.9467 36.4426 36.6406 36.4426 36.2631V31.4737C36.4426 29.7828 35.0684 28.1568 33.5597 28.062C33.0654 28.0306 31.7035 27.1604 30.3863 26.3185C27.4653 24.4515 23.4651 21.8948 19.8197 21.8948H8.95082C8.79418 21.8948 8.64298 21.9562 8.52598 22.0675L2.77188 27.5412C2.63538 27.6712 2.55738 27.8571 2.55738 28.0526V34.8947C2.55738 35.1758 2.71785 35.4279 2.96192 35.5312L6.32343 36.9514C6.39808 36.9829 6.478 36.9992 6.55823 36.9992H6.55919L7.67037 36.9973C7.82573 37.2289 8.00395 37.441 8.20135 37.6317H0.639344C0.286266 37.6317 0 37.9381 0 38.3159C0 38.6938 0.286266 39.0001 0.639344 39.0001H38.3607C38.7137 39.0001 39 38.6938 39 38.3159C39 37.9381 38.7137 37.6315 38.3607 37.6315ZM29.3059 37.2894C27.9667 37.2894 26.8769 36.1232 26.8769 34.69C26.8769 33.2567 27.9667 32.0908 29.3059 32.0908C30.6452 32.0908 31.735 33.2567 31.735 34.69C31.735 36.1232 30.6452 37.2894 29.3059 37.2894ZM6.67939 35.6304L3.83607 34.4293V31.4737H5.11475C5.46783 31.4737 5.7541 31.1673 5.7541 30.7895C5.7541 30.4116 5.46783 30.1053 5.11475 30.1053H3.83607V28.36L9.19393 23.2632H19.8197C23.1123 23.2632 26.9377 25.708 29.7308 27.4933C31.4422 28.5868 32.6783 29.3773 33.4847 29.4277C34.1325 29.4686 34.7679 30.0709 35.0329 30.7895H33.8852C33.5322 30.7895 33.2459 31.0958 33.2459 31.4737C33.2459 31.8515 33.5322 32.1579 33.8852 32.1579H35.1639V35.58L32.9152 35.5841C32.9775 35.2962 33.0137 34.9979 33.0137 34.69C33.0137 32.5024 31.3504 30.7224 29.3059 30.7224C27.2615 30.7224 25.5982 32.5024 25.5982 34.69C25.5982 35.0023 25.6356 35.3049 25.6997 35.5967L14.2822 35.6171C14.3491 35.3191 14.3886 35.0097 14.3886 34.69C14.3886 32.5024 12.7253 30.7224 10.6809 30.7224C8.63674 30.7224 6.97349 32.5024 6.97349 34.69C6.97349 35.0143 7.01409 35.3278 7.08298 35.6297L6.67939 35.6304ZM8.25186 34.69C8.25186 33.2567 9.3413 32.0908 10.6806 32.0908C12.0198 32.0908 13.1096 33.2567 13.1096 34.69C13.1096 36.1232 12.0198 37.2894 10.6806 37.2894C9.3413 37.2894 8.25186 36.1232 8.25186 34.69ZM13.6988 36.9865L26.2723 36.9641C26.4329 37.2087 26.6196 37.4316 26.8264 37.6315H13.1603C13.3605 37.4379 13.5415 37.2222 13.6988 36.9865Z" fill="black"/>
<path d="M29.3059 32.8182C28.3416 32.8182 27.5571 33.6578 27.5571 34.6897C27.5571 35.722 28.3416 36.5615 29.3059 36.5615C30.2702 36.5615 31.0547 35.722 31.0547 34.6897C31.0547 33.6579 30.2702 32.8182 29.3059 32.8182ZM29.3059 35.1933C29.0468 35.1933 28.8358 34.9675 28.8358 34.6899C28.8358 34.4126 29.0468 34.1868 29.3059 34.1868C29.565 34.1868 29.776 34.4126 29.776 34.6899C29.776 34.9675 29.565 35.1933 29.3059 35.1933Z" fill="black"/>
<path d="M10.6804 36.5615C11.645 36.5615 12.4295 35.722 12.4295 34.6897C12.4295 33.6578 11.645 32.8182 10.6804 32.8182C9.71612 32.8182 8.93164 33.6578 8.93164 34.6897C8.93164 35.722 9.71612 36.5615 10.6804 36.5615ZM10.6804 34.1865C10.9398 34.1865 11.1508 34.4123 11.1508 34.6895C11.1508 34.9672 10.9398 35.1929 10.6804 35.1929C10.4213 35.1929 10.2103 34.9672 10.2103 34.6895C10.2103 34.4124 10.4213 34.1865 10.6804 34.1865Z" fill="black"/>
<path d="M8.31167 29.4208H28.7707C29.0672 29.4208 29.3248 29.2027 29.3929 28.8939C29.461 28.5848 29.3218 28.2665 29.0566 28.1245L21.3845 24.0193C21.2958 23.9719 21.1978 23.9471 21.0986 23.9471H9.59036C9.31496 23.9471 9.07089 24.1356 8.98378 24.4148L7.70509 28.52C7.6402 28.7289 7.67296 28.9581 7.79316 29.1365C7.91335 29.3152 8.10628 29.4208 8.31167 29.4208ZM20.4592 28.0524H12.7871V25.3155H20.4592V28.0524ZM21.7379 28.0524V25.7384L26.0626 28.0524H21.7379ZM10.0512 25.3155H11.5084V28.0524H9.1986L10.0512 25.3155Z" fill="black"/>
<path d="M27.5693 14.97C27.3196 14.7028 26.9149 14.7028 26.6652 14.97L26.2132 15.4537L25.7612 14.97C25.5115 14.7028 25.1068 14.7028 24.8572 14.97C24.6075 15.2372 24.6075 15.6703 24.8572 15.9375L25.3092 16.4212L24.8572 16.9049C24.6075 17.1721 24.6075 17.6052 24.8572 17.8724C24.982 18.006 25.1457 18.0729 25.3092 18.0729C25.4727 18.0729 25.6364 18.006 25.7612 17.8724L26.2132 17.3887L26.6652 17.8724C26.7901 18.006 26.9537 18.0729 27.1173 18.0729C27.2808 18.0729 27.4444 18.006 27.5693 17.8724C27.8189 17.6052 27.8189 17.1721 27.5693 16.9049L27.1173 16.4212L27.5693 15.9375C27.8191 15.6701 27.8191 15.2372 27.5693 14.97Z" fill="black"/>
<path d="M3.51651 21.2105C4.75029 21.2105 5.75422 20.1362 5.75422 18.8158C5.75422 17.4955 4.75029 16.4211 3.51651 16.4211C2.28274 16.4211 1.27881 17.4955 1.27881 18.8158C1.27881 20.1362 2.28274 21.2105 3.51651 21.2105ZM3.51651 17.7895C4.04541 17.7895 4.47553 18.2498 4.47553 18.8158C4.47553 19.3818 4.04541 19.8421 3.51651 19.8421C2.98762 19.8421 2.5575 19.3818 2.5575 18.8158C2.5575 18.2498 2.98762 17.7895 3.51651 17.7895Z" fill="black"/>
<path d="M30.6968 20.9354C30.6968 21.3395 31.0027 21.667 31.3802 21.667C31.7578 21.667 32.0637 21.3395 32.0637 20.9354C32.0637 20.5314 31.7578 20.204 31.3802 20.204C31.0027 20.204 30.6968 20.5316 30.6968 20.9354Z" fill="black"/>
<path d="M3.83594 10.2631C3.83594 10.641 4.1222 10.9473 4.47528 10.9473H12.1474C12.5005 10.9473 12.7868 10.641 12.7868 10.2631C12.7868 8.41712 11.8042 6.81454 10.3708 6.01538C11.0605 5.38745 11.5081 4.4636 11.5081 3.42104C11.5081 1.53485 10.0739 0 8.31135 0C6.54883 0 5.11463 1.53485 5.11463 3.42104C5.11463 4.4636 5.56217 5.38745 6.25186 6.01538C4.81845 6.81454 3.83594 8.41712 3.83594 10.2631ZM6.39331 3.42104C6.39331 2.28919 7.25371 1.36841 8.31135 1.36841C9.36898 1.36841 10.2294 2.28919 10.2294 3.42104C10.2294 4.55289 9.36898 5.47366 8.31135 5.47366C7.25371 5.47366 6.39331 4.55289 6.39331 3.42104ZM8.31135 6.84207C9.85504 6.84207 11.1468 8.01943 11.4438 9.57891H5.17888C5.47586 8.01943 6.76765 6.84207 8.31135 6.84207Z" fill="black"/>
<path d="M24.2949 10.2631C24.2949 10.641 24.5812 10.9473 24.9343 10.9473H32.6064C32.9595 10.9473 33.2457 10.641 33.2457 10.2631C33.2457 8.41712 32.2632 6.81454 30.8298 6.01538C31.5195 5.38745 31.9671 4.4636 31.9671 3.42104C31.9671 1.53485 30.5328 0 28.7703 0C27.0078 0 25.5736 1.53485 25.5736 3.42104C25.5736 4.4636 26.0212 5.38745 26.7108 6.01538C25.2774 6.81454 24.2949 8.41712 24.2949 10.2631ZM26.8523 3.42104C26.8523 2.28919 27.7127 1.36841 28.7703 1.36841C29.828 1.36841 30.6884 2.28919 30.6884 3.42104C30.6884 4.55289 29.828 5.47366 28.7703 5.47366C27.7127 5.47366 26.8523 4.55289 26.8523 3.42104ZM28.7703 6.84207C30.314 6.84207 31.6058 8.01943 31.9028 9.57891H25.638C25.9348 8.01943 27.2266 6.84207 28.7703 6.84207Z" fill="black"/>
<path d="M14.419 11.5591L17.9017 13.4227V19.8418C17.9017 20.2197 18.188 20.526 18.5411 20.526C18.8941 20.526 19.1804 20.2197 19.1804 19.8418V13.4227L22.6631 11.5591C22.9791 11.3901 23.1069 10.9791 22.949 10.6411C22.7911 10.3033 22.4073 10.1664 22.0912 10.3351L18.5411 12.2346L14.9909 10.3351C14.6745 10.1664 14.291 10.3033 14.1331 10.6411C13.9752 10.9793 14.103 11.3901 14.419 11.5591Z" fill="black"/>
</svg>
