<svg width="39" height="39" viewBox="0 0 39 39" fill="none" xmlns="http://www.w3.org/2000/svg">
<path d="M37.7911 20.9969C38.475 20.8838 39.0001 20.2925 39.0001 19.5768V19.3593C38.9996 18.5632 38.3517 17.9154 37.5556 17.9154H18.5915C17.7954 17.9154 17.1476 18.5633 17.1476 19.3593V19.5768C17.1476 20.2705 17.64 20.8506 18.2932 20.9891L19.4895 33.7527C19.5139 34.0227 19.5977 34.2709 19.7206 34.4942H15.607L16.6771 13.6299C17.322 13.3379 17.7734 12.692 17.7734 11.9393C17.7734 11.0023 17.0734 10.2331 16.1705 10.1068C15.2779 7.20091 12.7303 5.11487 9.74198 4.77658L9.78149 2.09441C9.78349 1.98082 9.83662 0.98393 10.9676 0.98393H17.6345C17.9036 0.98393 18.122 0.765986 18.122 0.496436C18.122 0.226886 17.9036 0.00894165 17.6345 0.00894165H10.9677C9.41301 0.00894165 8.82364 1.24424 8.8066 2.07736L8.76756 4.72735C5.4804 4.77953 2.56563 6.96887 1.6014 10.1068C0.699059 10.2336 0.000476068 11.0023 0.000476068 11.9388C0.000476068 12.6759 0.435317 13.3087 1.05878 13.609L2.12831 34.4937H0.487494C0.21842 34.4937 0 34.7117 0 34.9812L0 38.5038C0 38.7734 0.21842 38.9913 0.487494 38.9913H38.512C38.7811 38.9913 38.9995 38.7734 38.9995 38.5038V34.9812C38.9995 34.7117 38.7811 34.4937 38.512 34.4937H36.425C36.5483 34.269 36.6327 34.0184 36.6566 33.7464L37.7911 20.9969ZM18.1226 19.5768V19.3593C18.1226 19.1009 18.3332 18.8904 18.5915 18.8904H37.5555C37.8139 18.8904 38.0244 19.101 38.0244 19.3593V19.5768C38.0244 19.8352 37.8138 20.0457 37.5555 20.0457H18.5915C18.3327 20.0457 18.1226 19.8352 18.1226 19.5768ZM9.72741 5.75632C12.1854 6.0712 14.2913 7.73896 15.1395 10.0808H9.66352L9.72741 5.75632ZM9.64895 11.0564H15.9153C16.4023 11.0559 16.7981 11.4522 16.7981 11.9392C16.7981 12.4262 16.4017 12.8225 15.9148 12.8225H9.62267L9.64895 11.0564ZM8.75299 5.7032L8.68815 10.0814H2.63637C3.56604 7.52149 6.00836 5.75928 8.75299 5.7032ZM0.974988 11.9387C0.974988 11.4512 1.37136 11.0559 1.85829 11.0559H8.67349L8.64721 12.8221H1.85829C1.37136 12.822 0.974988 12.4262 0.974988 11.9387ZM2.04405 13.797H8.63302L8.39899 29.6104C8.39508 29.8795 8.61008 30.1013 8.87915 30.1052C8.88163 30.1052 8.88401 30.1052 8.88648 30.1052C9.15213 30.1052 9.3696 29.8917 9.37398 29.6251L9.60801 13.7976H15.692L14.6302 34.4942H3.10435L2.04405 13.797ZM38.0245 35.4686V38.0162H0.974988V35.4686H21.3698H34.7749H38.0245ZM20.2534 31.459H35.881L35.685 33.66C35.6436 34.1353 35.2521 34.4936 34.7749 34.4936H21.3698C20.8945 34.4936 20.503 34.1372 20.4596 33.6624L20.2534 31.459ZM35.9678 30.4845H20.1618L19.6299 24.8091H36.4724L35.9678 30.4845ZM19.5388 23.8341L19.2751 21.0208H36.8097L36.5596 23.8341H19.5388Z" fill="black"/>
</svg>
