<svg width="39" height="25" viewBox="0 0 39 25" fill="none" xmlns="http://www.w3.org/2000/svg">
<path d="M37.868 20.0633L34.908 18.2781C34.639 18.1159 34.2893 18.2023 34.1269 18.4715C33.9647 18.7406 34.0513 19.0903 34.3204 19.2526L37.2803 21.0378C37.6391 21.2542 37.862 21.6489 37.862 22.068V23.6808C37.862 23.7018 37.8449 23.7188 37.8241 23.7188C36.6395 23.7188 35.4772 23.3954 34.4627 22.7835L20.0682 14.1018C19.7177 13.8903 19.2823 13.8903 18.9318 14.1018L4.53725 22.7835C3.52287 23.3953 2.36057 23.7188 1.17594 23.7188C1.15499 23.7188 1.13801 23.7018 1.13801 23.6808V22.068C1.13801 21.6489 1.36089 21.2542 1.71973 21.0378L13.6911 13.8176C14.5614 13.2927 15.1852 12.4221 15.4026 11.4293L15.4243 11.3301C15.6815 10.1551 16.7412 9.30216 17.9441 9.30216H21.0835C22.2933 9.30216 23.3451 10.1518 23.6033 11.3294C23.6249 12.2444 24.1195 13.1001 24.9052 13.574L32.1493 17.9431C32.4184 18.1053 32.7681 18.0188 32.9303 17.7497C33.0926 17.4806 33.0061 17.1309 32.7369 16.9686L25.4929 12.5995C25.0289 12.3196 24.7405 11.8091 24.7405 11.2672C24.7405 11.2298 24.7369 11.1927 24.7296 11.156C24.3844 9.42236 22.851 8.16408 21.0834 8.16408H20.0382V6.7859C21.6803 6.5065 22.8631 5.07317 22.8131 3.38741C22.7613 1.64034 21.3531 0.216608 19.6072 0.146072C18.3074 0.0924475 17.0847 0.806635 16.4913 1.96285C16.3478 2.2424 16.4581 2.5854 16.7377 2.72891C17.0175 2.87249 17.3603 2.76204 17.5038 2.48249C17.8955 1.71917 18.7026 1.24836 19.5613 1.28309C20.7127 1.32963 21.6413 2.26875 21.6755 3.42116C21.7095 4.5696 20.8777 5.54049 19.7405 5.67958C19.2614 5.73815 18.9001 6.14316 18.9001 6.6216V8.16408H17.944C16.2104 8.16408 14.6831 9.39319 14.3124 11.0866L14.2907 11.1857C14.1399 11.8747 13.707 12.4788 13.1031 12.843L1.13199 20.0633C0.433799 20.4844 0 21.2525 0 22.068V23.6808C0 24.3293 0.527566 24.8568 1.17594 24.8568C2.56768 24.8568 3.93321 24.4768 5.125 23.7581L6.03045 23.212C6.0485 23.2137 12.7357 23.2147 12.7357 23.2147C13.05 23.2147 13.3047 22.9599 13.3047 22.6457C13.3047 22.3315 13.0499 22.0767 12.7357 22.0767H7.91273L19.5 15.0881L31.0873 22.0766H15.3249C15.0106 22.0766 14.7559 22.3314 14.7559 22.6456C14.7559 22.9599 15.0107 23.2146 15.3249 23.2146H32.9742L33.8751 23.758C35.0669 24.4767 36.4324 24.8567 37.8241 24.8567C38.4725 24.8567 39 24.3291 39 23.6807V22.068C39 21.2525 38.5663 20.4844 37.868 20.0633Z" fill="black"/>
</svg>
