<svg width="38" height="38" viewBox="0 0 38 38" fill="none" xmlns="http://www.w3.org/2000/svg">
<path d="M37.7727 7.49607L30.5042 0.227525C30.3584 0.0818848 30.1609 0 29.9549 0C29.7488 0 29.5512 0.0818848 29.4055 0.227525L27.575 2.05816C27.2716 2.36156 27.2716 2.85347 27.575 3.15687L29.8253 5.40721L27.8013 7.43125L26.7354 6.36538C26.4319 6.06206 25.9402 6.06206 25.6366 6.36538L7.76152 24.2406C7.45813 24.5439 7.45813 25.0359 7.76152 25.3393L9.66186 27.2397L0.950689 35.9508C0.647296 36.2542 0.647296 36.7462 0.950689 37.0496C1.10242 37.2014 1.30123 37.2771 1.50004 37.2771C1.69885 37.2771 1.89766 37.2014 2.04939 37.0496L10.7606 28.3384L12.661 30.2387C12.8127 30.3904 13.0115 30.4662 13.2103 30.4662C13.4091 30.4662 13.6079 30.3904 13.7597 30.2387L31.6348 12.3636C31.9382 12.0602 31.9382 11.5683 31.6348 11.2648L30.5689 10.199L32.5929 8.17492L34.8434 10.4253C34.9891 10.571 35.1867 10.6529 35.3927 10.6529C35.5988 10.6529 35.7963 10.571 35.9421 10.4253L37.7726 8.59478C38.0761 8.29131 38.0761 7.79947 37.7727 7.49607ZM13.2103 28.5907L9.4095 24.7898L10.8952 23.3042L11.6649 24.0739C11.8166 24.2256 12.0154 24.3014 12.2142 24.3014C12.413 24.3014 12.6118 24.2256 12.7636 24.0739C13.067 23.7705 13.067 23.2786 12.7636 22.9751L11.9939 22.2054L13.2642 20.9351L14.0339 21.7048C14.1856 21.8565 14.3844 21.9323 14.5832 21.9323C14.7821 21.9323 14.9809 21.8565 15.1326 21.7048C15.436 21.4014 15.436 20.9095 15.1326 20.606L14.3629 19.8363L15.6332 18.566L16.4029 19.3357C16.5547 19.4874 16.7535 19.5632 16.9523 19.5632C17.1511 19.5632 17.3499 19.4874 17.5016 19.3357C17.805 19.0323 17.805 18.5404 17.5016 18.2369L16.7319 17.4672L18.0022 16.1969L18.7719 16.9666C18.9237 17.1183 19.1225 17.1941 19.3213 17.1941C19.5201 17.1941 19.7189 17.1183 19.8706 16.9666C20.174 16.6632 20.174 16.1713 19.8706 15.8678L19.1009 15.0981L20.3712 13.8278L21.1409 14.5975C21.2926 14.7492 21.4914 14.825 21.6902 14.825C21.889 14.825 22.0879 14.7492 22.2396 14.5975C22.543 14.2941 22.543 13.8022 22.2396 13.4987L21.4699 12.729L26.186 8.0129L29.9869 11.8141L13.2103 28.5907ZM29.4704 9.10033L28.9 8.52995L30.924 6.50592L31.4944 7.07629L29.4704 9.10033ZM35.3928 8.77736L29.2229 2.60752L29.9549 1.87558L36.1247 8.04543L35.3928 8.77736Z" fill="black"/>
</svg>
