<svg width="39" height="39" viewBox="0 0 39 39" fill="none" xmlns="http://www.w3.org/2000/svg">
<path d="M28.3065 32.7097C27.266 32.7097 26.4194 33.5563 26.4194 34.5968C26.4194 35.6373 27.266 36.4839 28.3065 36.4839C29.347 36.4839 30.1936 35.6373 30.1936 34.5968C30.1936 33.5563 29.347 32.7097 28.3065 32.7097ZM28.3065 35.2258C27.9597 35.2258 27.6775 34.9436 27.6775 34.5968C27.6775 34.25 27.9597 33.9678 28.3065 33.9678C28.6534 33.9678 28.9356 34.25 28.9356 34.5968C28.9356 34.9436 28.6534 35.2258 28.3065 35.2258Z" fill="black"/>
<path d="M9.43544 32.7097C8.39494 32.7097 7.54834 33.5563 7.54834 34.5968C7.54834 35.6373 8.39494 36.4839 9.43544 36.4839C10.4759 36.4839 11.3225 35.6373 11.3225 34.5968C11.3225 33.5563 10.4759 32.7097 9.43544 32.7097ZM9.43544 35.2258C9.0886 35.2258 8.8064 34.9436 8.8064 34.5968C8.8064 34.25 9.0886 33.9678 9.43544 33.9678C9.78227 33.9678 10.0645 34.25 10.0645 34.5968C10.0645 34.9436 9.78227 35.2258 9.43544 35.2258Z" fill="black"/>
<path d="M35.7092 19.9306C35.3371 18.566 34.0894 17.6129 32.675 17.6129H27.0484C26.0079 17.6129 25.1613 18.4595 25.1613 19.5V31.4516H23.8159C23.8724 31.2765 23.9032 31.09 23.9032 30.8963C23.9032 30.8216 23.8985 30.7462 23.8892 30.6714L21.6748 12.9562C23.1614 15.0133 25.5801 16.3548 28.3064 16.3548C32.8155 16.3548 36.4839 12.6865 36.4839 8.17742C36.4839 3.66836 32.8155 0 28.3064 0C23.7974 0 20.129 3.66836 20.129 8.17742C20.129 8.83028 20.2064 9.46536 20.3516 10.0744C20.3026 10.0686 20.2532 10.0645 20.2027 10.0645H17.6129V9.43548C17.6129 7.00758 15.6376 5.03226 13.2097 5.03226C10.7817 5.03226 8.80644 7.00758 8.80644 9.43548V10.0645H6.21663C5.58335 10.0645 5.04671 10.5383 4.96824 11.1666L4.1722 17.5349L5.42059 17.6909L6.21663 11.3226H8.80644V12.6888C8.07432 12.9485 7.54837 13.6477 7.54837 14.4677C7.54837 15.5083 8.39497 16.3548 9.43547 16.3548C10.476 16.3548 11.3226 15.5083 11.3226 14.4677C11.3226 13.6477 10.7966 12.9486 10.0645 12.6888V11.3226H16.3548V12.6888C15.6227 12.9485 15.0968 13.6477 15.0968 14.4677C15.0968 15.5083 15.9434 16.3548 16.9839 16.3548C18.0244 16.3548 18.871 15.5083 18.871 14.4677C18.871 13.6477 18.345 12.9486 17.6129 12.6888V11.3226H20.2028L22.6409 30.8271C22.6437 30.8502 22.6452 30.8735 22.6452 30.8963C22.6452 31.2026 22.3961 31.4517 22.0899 31.4517H12.5129C11.7185 30.6742 10.6323 30.1936 9.43547 30.1936C8.23866 30.1936 7.15247 30.6742 6.35801 31.4517H4.32953C4.02327 31.4517 3.77418 31.2026 3.77418 30.8963C3.77418 30.8735 3.77567 30.8502 3.7785 30.8275L4.31978 26.4974L3.07139 26.3414L2.53011 30.6718C2.52083 30.7462 2.51611 30.8216 2.51611 30.8963C2.51611 31.2653 2.62714 31.6086 2.81711 31.8952C2.62989 32.1149 2.51611 32.3991 2.51611 32.7097V33.9677C2.51611 34.6614 3.08051 35.2258 3.77418 35.2258H5.07793C5.38419 37.3568 7.22112 39 9.43547 39C11.6498 39 13.4868 37.3568 13.793 35.2258H23.9488C24.2551 37.3568 26.092 39 28.3064 39C30.5207 39 32.3577 37.3568 32.6639 35.2258H37.7419C38.4356 35.2258 39 34.6614 39 33.9677V31.9964L35.7092 19.9306ZM28.3064 1.51864L28.967 2.17928C29.4536 2.66584 29.8733 3.2013 30.2225 3.77419H26.3903C26.7395 3.2013 27.1592 2.66576 27.6458 2.17928L28.3064 1.51864ZM30.8513 5.03226C31.1691 5.82932 31.3652 6.6756 31.4287 7.54839H25.1842C25.2477 6.6756 25.4438 5.82932 25.7616 5.03226H30.8513ZM35.1969 7.54839H32.6891C32.6343 6.68213 32.4665 5.83773 32.1925 5.03226H34.4688C34.862 5.79952 35.1155 6.6495 35.1969 7.54839ZM28.3064 14.8362L27.6459 14.1756C27.1593 13.689 26.7396 13.1535 26.3904 12.5806H30.2225C29.8734 13.1535 29.4536 13.6891 28.9671 14.1756L28.3064 14.8362ZM25.7616 11.3226C25.4438 10.5255 25.2477 9.67923 25.1842 8.80645H31.4287C31.3652 9.67923 31.1691 10.5255 30.8513 11.3226H25.7616ZM32.6891 8.80645H35.1969C35.1156 9.70534 34.862 10.5553 34.4688 11.3226H32.1926C32.4664 10.5171 32.6343 9.67271 32.6891 8.80645ZM23.9237 7.54839H21.4159C21.4973 6.6495 21.7509 5.79952 22.144 5.03226H24.4203C24.1465 5.83773 23.9786 6.68213 23.9237 7.54839ZM23.9237 8.80645C23.9786 9.67271 24.1464 10.5171 24.4204 11.3226H22.1441C21.751 10.5553 21.4974 9.70534 21.416 8.80645H23.9237ZM22.9728 12.5806H24.9501C25.3718 13.4113 25.9159 14.1842 26.5731 14.8769C25.1416 14.5063 23.8885 13.6879 22.9728 12.5806ZM30.0397 14.8769C30.6969 14.1842 31.2409 13.4113 31.6628 12.5806H33.6401C32.7244 13.6879 31.4713 14.5063 30.0397 14.8769ZM33.6401 3.77419H31.6628C31.241 2.94356 30.697 2.17063 30.0397 1.47791C31.4713 1.84849 32.7244 2.66694 33.6401 3.77419ZM26.5731 1.47791C25.916 2.17063 25.3719 2.94356 24.9501 3.77419H22.9728C23.8885 2.66694 25.1416 1.84849 26.5731 1.47791ZM9.43547 15.0968C9.08864 15.0968 8.80644 14.8146 8.80644 14.4677C8.80644 14.1209 9.08864 13.8387 9.43547 13.8387C9.7823 13.8387 10.0645 14.1209 10.0645 14.4677C10.0645 14.8146 9.7823 15.0968 9.43547 15.0968ZM16.9839 15.0968C16.637 15.0968 16.3548 14.8146 16.3548 14.4677C16.3548 14.1209 16.637 13.8387 16.9839 13.8387C17.3307 13.8387 17.6129 14.1209 17.6129 14.4677C17.6129 14.8146 17.3307 15.0968 16.9839 15.0968ZM10.0645 10.0645V9.43548C10.0645 7.70124 11.4754 6.29032 13.2097 6.29032C14.9439 6.29032 16.3548 7.70124 16.3548 9.43548V10.0645H10.0645ZM31.3839 31.4516C30.5894 30.6741 29.5032 30.1935 28.3064 30.1935C27.6314 30.1935 26.9917 30.3466 26.4193 30.6192V21.3871H34.8025L35.1457 22.6452H28.9355C28.2418 22.6452 27.6774 23.2096 27.6774 23.9032V26.4194C27.6774 27.113 28.2418 27.6774 28.9355 27.6774H32.8179C33.0775 28.4095 33.7767 28.9355 34.5968 28.9355H36.8612L37.5474 31.4516H31.3839ZM36.5181 27.6774H34.5968C34.2499 27.6774 33.9677 27.3952 33.9677 27.0484C33.9677 26.7016 34.2499 26.4194 34.5968 26.4194H36.175L36.5181 27.6774ZM34.5968 25.1613C33.7767 25.1613 33.0776 25.6872 32.8179 26.4194H28.9355V23.9032H35.4887L35.8319 25.1613H34.5968ZM27.0484 18.871H32.675C33.4769 18.871 34.189 19.382 34.4534 20.129H26.4193V19.5C26.4193 19.1532 26.7015 18.871 27.0484 18.871ZM24.3289 32.7097C24.1426 33.1009 24.0127 33.5237 23.9488 33.9677H13.793C13.7292 33.5237 13.5993 33.1009 13.4129 32.7097H24.3289ZM3.77418 32.7097H5.45794C5.27159 33.1009 5.14169 33.5237 5.07785 33.9677H3.77418V32.7097ZM9.43547 37.7419C7.70123 37.7419 6.29031 36.331 6.29031 34.5968C6.29031 32.8625 7.70123 31.4516 9.43547 31.4516C11.1697 31.4516 12.5806 32.8625 12.5806 34.5968C12.5806 36.331 11.1697 37.7419 9.43547 37.7419ZM28.3064 37.7419C26.5722 37.7419 25.1613 36.331 25.1613 34.5968C25.1613 32.8625 26.5722 31.4516 28.3064 31.4516C30.0407 31.4516 31.4516 32.8625 31.4516 34.5968C31.4516 36.331 30.0407 37.7419 28.3064 37.7419ZM32.664 33.9677C32.6001 33.5237 32.4702 33.1009 32.2839 32.7097H37.7419V33.9677H32.664Z" fill="black"/>
<path d="M13.2099 29.112L18.6176 24.7858C19.5783 24.0173 20.1293 22.8709 20.1293 21.6407C20.1293 19.4197 18.3225 17.6129 16.1015 17.6129C15.0351 17.6129 14.0242 17.9756 13.2099 18.6426C12.3957 17.9756 11.3849 17.6129 10.3183 17.6129C9.16972 17.6129 8.1326 18.097 7.39821 18.871H2.51637V20.129H6.58597C6.42635 20.5216 6.32696 20.9447 6.29937 21.3871H5.03249V22.6452H6.41794C6.53305 23.0953 6.72483 23.5202 6.98564 23.9032H1.2583V25.1613H8.27154L13.2099 29.112ZM10.3183 18.871C11.2037 18.871 12.0361 19.2158 12.6621 19.8417L13.21 20.3898L13.7577 19.8418C14.3838 19.2158 15.2163 18.871 16.1017 18.871C17.6287 18.871 18.8712 20.1135 18.8712 21.6407C18.8712 22.4867 18.4924 23.275 17.8317 23.8035L13.2099 27.5009L8.5881 23.8035C7.92746 23.275 7.54862 22.4867 7.54862 21.6407C7.54862 20.1135 8.79112 18.871 10.3183 18.871Z" fill="black"/>
<path d="M0.629032 22.6451C0.976437 22.6451 1.25806 22.3635 1.25806 22.0161C1.25806 21.6687 0.976437 21.3871 0.629032 21.3871C0.281627 21.3871 0 21.6687 0 22.0161C0 22.3635 0.281627 22.6451 0.629032 22.6451Z" fill="black"/>
<path d="M3.14515 22.6451C3.49255 22.6451 3.77418 22.3635 3.77418 22.0161C3.77418 21.6687 3.49255 21.3871 3.14515 21.3871C2.79774 21.3871 2.51611 21.6687 2.51611 22.0161C2.51611 22.3635 2.79774 22.6451 3.14515 22.6451Z" fill="black"/>
</svg>
