<svg width="39" height="39" viewBox="0 0 39 39" fill="none" xmlns="http://www.w3.org/2000/svg">
<path d="M36.1519 36.7083L35.0353 34.4679C34.9246 34.2465 34.6979 34.1071 34.4503 34.1084H29.9006V23.0228C34.6148 22.651 38.35 18.297 38.35 12.9849C38.35 12.9127 38.35 12.8244 38.35 12.7288V12.7067C38.3468 12.5065 38.3403 12.2647 38.3312 11.9885C38.2662 10.0282 38.0537 6.30335 37.6812 5.28812C37.5873 5.02992 37.3412 4.85874 37.0664 4.86045H34.0909L34.3678 3.40715L37.9055 2.22683L37.4947 0.991913L33.595 2.29182C33.372 2.36608 33.2065 2.55497 33.1621 2.78579L32.7669 4.86045H21.435C21.1626 4.8602 20.9189 5.02992 20.8247 5.28552C20.4509 6.30075 20.2397 10.0256 20.1747 11.9859C20.1656 12.2621 20.1591 12.5059 20.1559 12.7041V12.7262C20.1559 12.8218 20.1559 12.9101 20.1559 12.9823C20.1559 18.2944 23.8911 22.6484 28.6053 23.0202V34.1084H26.7542C28.1968 30.8266 26.7058 26.9966 23.4239 25.554C21.5883 24.747 19.4828 24.8338 17.7198 25.789L18.2014 20.5185C18.2341 20.161 17.9708 19.8448 17.6133 19.8121C17.5928 19.8102 17.5721 19.8093 17.5515 19.8094H0.652642C0.293704 19.808 0.00146748 20.0977 5.07778e-06 20.4567C-7.61666e-05 20.4773 0.000817522 20.498 0.00268614 20.5185L1.3026 34.7896V37.3582C1.3026 37.7172 1.59361 38.0082 1.95255 38.0082H16.2516C16.6105 38.0082 16.9015 37.7172 16.9015 37.3582V36.7018C18.0246 37.55 19.3938 38.0087 20.8013 38.0082H39V36.7083H36.1519ZM15.6016 36.7083H2.60251V35.4083H15.6016V36.7083ZM15.6582 34.1084H2.54596L2.01755 28.2588H5.44541C5.01604 29.172 5.35434 30.262 6.22536 30.7716L9.60513 32.7214C9.90142 32.8927 10.2379 32.9824 10.5801 32.9814C10.7514 32.982 10.922 32.9601 11.0877 32.9164C11.5881 32.7835 12.0146 32.4558 12.2719 32.0065L14.2218 28.6267C14.2865 28.5097 14.3392 28.3865 14.379 28.2588H16.1898L15.6582 34.1084ZM12.9283 28.2588L11.139 31.3578C10.9596 31.6683 10.5625 31.7748 10.2518 31.5957L6.87206 29.6458C6.56122 29.4664 6.45471 29.0688 6.63418 28.758L6.92406 28.2588H12.9283ZM7.67216 26.9589L8.5821 25.3808C8.66813 25.2313 8.81007 25.1222 8.97662 25.0773C9.03178 25.0629 9.08857 25.0555 9.14561 25.0552C9.25976 25.0555 9.37187 25.0857 9.47059 25.143L12.6196 26.9589H7.67216ZM16.3049 26.9589H14.3375C14.1817 26.5415 13.8861 26.191 13.501 25.9671L10.1212 24.0172C9.18875 23.4786 7.99608 23.7978 7.45743 24.7303C7.45711 24.731 7.4567 24.7315 7.45637 24.7322L6.17336 26.9589H1.89601L1.36759 21.1093H16.8365L16.3049 26.9589ZM33.8433 6.16036H36.5627C36.8033 7.88436 36.9513 9.62007 37.0059 11.36H32.8527L33.8433 6.16036ZM21.9387 6.16036H32.5193L31.5294 11.36H21.4954C21.55 9.62007 21.698 7.88436 21.9387 6.16036ZM21.4512 12.9849C21.4512 12.8952 21.4512 12.786 21.4545 12.6599H31.2818L30.5623 16.4375L31.8388 16.6818L32.6051 12.6599H37.0501C37.0501 12.786 37.0534 12.8952 37.0534 12.9849C37.0501 17.8232 33.5514 21.7593 29.2507 21.7593C24.9499 21.7593 21.4512 17.8232 21.4512 12.9849ZM24.0509 35.5738C21.8798 37.304 18.7324 37.0234 16.9015 34.9365V34.7896L17.5697 27.4412C19.8154 25.6515 23.0868 26.0211 24.8766 28.2669C26.6663 30.5126 26.2966 33.784 24.0509 35.5738ZM24.6841 36.7083C25.1835 36.3343 25.6269 35.8909 26.0009 35.3914V35.4083H34.0486L34.6986 36.7083H24.6841Z" fill="black"/>
</svg>
