<svg width="39" height="39" viewBox="0 0 39 39" fill="none" xmlns="http://www.w3.org/2000/svg">
<path d="M29.6472 2.04666H29.5856C26.9841 2.07588 24.5119 3.18611 22.7589 5.11172L19.4953 8.68271L16.1002 4.97041C14.4002 3.06 11.9726 1.9599 9.41821 1.94202C6.86232 1.95871 4.43292 3.0591 2.73207 4.97041C-0.910691 9.09442 -0.910691 15.2922 2.73207 19.4162L18.5338 36.6874C18.7808 36.9569 19.1293 37.1105 19.4947 37.1105C19.8599 37.1105 20.2087 36.9569 20.4557 36.6874L36.258 19.4156C38.0419 17.4355 39.0201 14.8575 38.9996 12.1902C39.0231 9.47811 38.0097 6.85995 36.1669 4.87262C34.4822 3.06149 32.1188 2.03712 29.6472 2.04666ZM35.2991 18.5356L19.4953 35.8079L3.69038 18.5356C0.492249 14.9139 0.492249 9.47155 3.69038 5.84959C5.14659 4.20958 7.2272 3.26332 9.41821 3.24454C11.6068 3.26452 13.6851 4.21078 15.1395 5.84959L18.5338 9.56189C18.7873 9.81947 19.1334 9.96436 19.4947 9.96436C19.8557 9.96436 20.2019 9.81947 20.4557 9.56189L23.7211 5.99269C25.2285 4.3348 27.3553 3.37751 29.5939 3.35008H29.6472C31.7596 3.34173 33.7795 4.21704 35.2196 5.76492C36.8357 7.51046 37.7228 9.80963 37.6993 12.1902C37.7193 14.5317 36.8627 16.7957 35.2991 18.5356Z" fill="black"/>
<path d="M25.3467 18.2237H21.4459V14.3161C21.4459 13.5968 20.8635 13.0136 20.1456 13.0136H18.8451C18.1269 13.0136 17.5448 13.5968 17.5448 14.3161V18.2237H13.644C12.9259 18.2237 12.3438 18.8068 12.3438 19.5262V20.8288C12.3438 21.5481 12.9259 22.1313 13.644 22.1313H17.5448V26.0389C17.5448 26.7582 18.1269 27.3414 18.8451 27.3414H20.1456C20.8635 27.3414 21.4459 26.7582 21.4459 26.0389V22.1313H25.3467C26.0648 22.1313 26.647 21.5481 26.647 20.8288V19.5262C26.647 18.8068 26.0648 18.2237 25.3467 18.2237ZM25.3467 20.8288H21.4459C20.7278 20.8288 20.1456 21.4119 20.1456 22.1313V26.0389H18.8451V22.1313C18.8451 21.4119 18.2629 20.8288 17.5448 20.8288H13.644V19.5262H17.5448C18.2629 19.5262 18.8451 18.9431 18.8451 18.2237V14.3161H20.1456V18.2237C20.1456 18.9431 20.7278 19.5262 21.4459 19.5262H25.3467V20.8288Z" fill="black"/>
<path d="M9.4248 4.54706C9.29921 4.54706 9.1757 4.55153 9.05219 4.55928C8.81976 4.56673 8.60905 4.69731 8.49923 4.90243C8.38941 5.10754 8.39685 5.35588 8.51947 5.55384C8.64178 5.7518 8.86023 5.86926 9.09237 5.86181H9.13403C9.23016 5.85376 9.32718 5.84958 9.4248 5.84958C9.78372 5.84958 10.0748 5.55801 10.0748 5.19817C10.0748 4.83863 9.78372 4.54706 9.4248 4.54706Z" fill="black"/>
<path d="M5.60838 16.7799C3.29653 14.1623 3.29653 10.2285 5.60838 7.61122C5.9664 7.21679 6.3783 6.87484 6.83126 6.5952C7.03215 6.47505 7.15298 6.25652 7.14822 6.02219C7.14316 5.78816 7.0131 5.5747 6.80745 5.4632C6.6018 5.3517 6.35241 5.35945 6.1539 5.48347C5.59677 5.82692 5.09023 6.24698 4.64947 6.73144C1.89419 9.85166 1.89419 14.54 4.64947 17.6602L6.16312 19.3152C6.31997 19.4869 6.55657 19.5614 6.78335 19.511C7.01013 19.4606 7.19316 19.2928 7.2628 19.0707C7.33274 18.8489 7.27917 18.6062 7.12203 18.4348L5.60838 16.7799Z" fill="black"/>
</svg>
