<svg width="39" height="39" viewBox="0 0 39 39" fill="none" xmlns="http://www.w3.org/2000/svg">
<path d="M19.5 7.92188C13.1156 7.92188 7.92188 13.1156 7.92188 19.5C7.92188 25.8844 13.1156 31.0781 19.5 31.0781C25.8844 31.0781 31.0781 25.8844 31.0781 19.5C31.0781 13.1156 25.8844 7.92188 19.5 7.92188ZM19.5 29.8594C13.7877 29.8594 9.14062 25.2123 9.14062 19.5C9.14062 13.7877 13.7877 9.14062 19.5 9.14062C25.2123 9.14062 29.8594 13.7877 29.8594 19.5C29.8594 25.2123 25.2123 29.8594 19.5 29.8594Z" fill="black"/>
<path d="M24.375 20.7188H25.5938V21.9375H24.375V20.7188Z" fill="black"/>
<path d="M20.1094 24.375H21.3281V25.5938H20.1094V24.375Z" fill="black"/>
<path d="M21.3281 21.3281H22.5469V22.5469H21.3281V21.3281Z" fill="black"/>
<path d="M19.8047 13.4062C18.6286 13.4062 17.6719 14.363 17.6719 15.5391C17.6719 16.7152 18.6286 17.6719 19.8047 17.6719C20.9808 17.6719 21.9375 16.7152 21.9375 15.5391C21.9375 14.363 20.9808 13.4062 19.8047 13.4062ZM19.8047 16.4531C19.3007 16.4531 18.8906 16.043 18.8906 15.5391C18.8906 15.0351 19.3007 14.625 19.8047 14.625C20.3086 14.625 20.7188 15.0351 20.7188 15.5391C20.7188 16.043 20.3086 16.4531 19.8047 16.4531Z" fill="black"/>
<path d="M15.9699 17.4537L15.6817 16.377L14.5044 16.6926L14.9505 18.3574C14.9919 18.5134 15.0943 18.6469 15.2344 18.7273C15.3277 18.7809 15.4331 18.809 15.5391 18.809C15.5921 18.809 15.6451 18.8017 15.6969 18.7883L17.3618 18.3422L17.0461 17.1649L15.9699 17.4537Z" fill="black"/>
<path d="M14.967 21.191L13.8909 20.9022L13.5752 22.0795L15.24 22.5256C15.2918 22.5396 15.3448 22.5469 15.3978 22.5469C15.5039 22.5469 15.6093 22.5189 15.7025 22.4652C15.8421 22.3842 15.9444 22.2507 15.9865 22.0953L16.4326 20.4305L15.2552 20.1149L14.967 21.191Z" fill="black"/>
<path d="M6.13153 15.8011C7.56356 14.7316 8.53125 12.4508 8.53125 9.75C8.53125 5.99138 6.65742 3.04688 4.26562 3.04688C1.87383 3.04688 0 5.99138 0 9.75C0 12.4508 0.967688 14.7316 2.39972 15.8011L1.30223 32.813C1.23764 33.816 1.67944 34.7752 2.48564 35.3797C3.00909 35.7728 3.63736 35.969 4.26502 35.969C4.89389 35.969 5.52277 35.7721 6.04805 35.3779C6.85242 34.7752 7.29361 33.8167 7.22902 32.813L6.13153 15.8011ZM1.21875 9.75C1.21875 6.77686 2.61422 4.26563 4.26562 4.26563C5.91703 4.26563 7.3125 6.77686 7.3125 9.75C7.3125 12.7231 5.91703 15.2344 4.26562 15.2344C2.61422 15.2344 1.21875 12.7231 1.21875 9.75ZM5.31497 34.4047C4.69645 34.8672 3.83419 34.8678 3.21384 34.4029C2.74036 34.0476 2.48016 33.4821 2.51794 32.8916L3.58373 16.3715C3.80555 16.4251 4.03345 16.4531 4.26562 16.4531C4.4978 16.4531 4.7257 16.4251 4.94691 16.3715L6.0127 32.8916C6.05109 33.4821 5.79089 34.0476 5.31497 34.4047Z" fill="black"/>
<path d="M38.955 13.6914L38.5906 10.2948C38.5736 10.1327 38.4937 9.99131 38.3767 9.8932V2.4375H37.158V9.75H35.3299V2.4375H34.1111V9.75H32.283V2.4375H31.0642V9.89259C30.9472 9.9907 30.8674 10.1321 30.8503 10.2942L30.4865 13.6908C30.3945 14.5488 30.6724 15.4093 31.2495 16.0515C31.6943 16.5464 32.2866 16.8785 32.9301 17.0046L31.8345 32.8124C31.7699 33.8154 32.2111 34.7746 33.0173 35.3791C33.5407 35.7721 34.169 35.9684 34.7967 35.9684C35.4255 35.9684 36.0544 35.7715 36.5797 35.3773C37.3841 34.7746 37.8252 33.816 37.7607 32.8094L36.6638 16.9711C37.2482 16.8248 37.7826 16.5074 38.1921 16.0522C38.7692 15.4105 39.047 14.55 38.955 13.6914ZM35.8478 34.4047C35.2293 34.8672 34.3664 34.8678 33.7467 34.4029C33.2732 34.0476 33.013 33.4827 33.0508 32.8941L34.1483 17.0625H35.4487L36.5456 32.8916C36.5833 33.4821 36.3231 34.0476 35.8478 34.4047ZM37.2853 15.2374C36.9343 15.628 36.4511 15.8438 35.9258 15.8438H33.5157C32.9899 15.8438 32.5072 15.628 32.1562 15.2374C31.8046 14.8468 31.6425 14.3435 31.6986 13.8212L32.0039 10.9688H37.4377L37.7436 13.8212C37.7997 14.3435 37.637 14.8468 37.2853 15.2374Z" fill="black"/>
<path d="M26.0916 14.0839C24.6968 12.3886 22.7352 11.3124 20.5926 11.0382C20.5896 11.0376 20.5871 11.0376 20.5841 11.037C20.5585 11.034 20.5323 11.0309 20.5061 11.0279C20.4939 11.0266 20.4817 11.0248 20.4695 11.0236C20.4494 11.0212 20.4287 11.0193 20.4086 11.0169C20.3903 11.0151 20.372 11.0132 20.3537 11.0114C20.3348 11.0096 20.316 11.0078 20.2977 11.0059C20.2788 11.0041 20.2599 11.0023 20.241 11.001C20.2227 10.9992 20.2044 10.998 20.1855 10.9962C20.1654 10.9943 20.1453 10.9931 20.1246 10.9913C20.1082 10.9901 20.0911 10.9889 20.074 10.9876C20.0515 10.9858 20.0283 10.9846 20.0058 10.9834C19.9905 10.9828 19.9753 10.9815 19.9601 10.9809C19.9381 10.9797 19.9168 10.9785 19.8949 10.9779C19.8772 10.9773 19.8595 10.9761 19.8419 10.9755C19.8211 10.9748 19.8004 10.9742 19.7803 10.973C19.7632 10.9724 19.7462 10.9718 19.7297 10.9712C19.7066 10.9706 19.6834 10.97 19.6597 10.97C19.6444 10.97 19.6292 10.9694 19.6133 10.9694C19.5762 10.9687 19.5378 10.9688 19.5 10.9688C14.7956 10.9688 10.9688 14.7956 10.9688 19.5C10.9688 19.5445 10.9694 19.5896 10.97 19.6341C10.97 19.6475 10.9706 19.6603 10.9706 19.6737C10.9712 19.7078 10.9724 19.7419 10.973 19.776C10.9736 19.7882 10.9736 19.8004 10.9742 19.8132C10.9761 19.8565 10.9779 19.8998 10.9797 19.9424C10.9803 19.954 10.9809 19.9656 10.9815 19.9771C10.9834 20.01 10.9852 20.043 10.9876 20.0753C10.9889 20.0917 10.9901 20.1082 10.9913 20.1246C10.9931 20.1533 10.9956 20.1819 10.998 20.2105C10.9992 20.227 11.0004 20.2434 11.0023 20.2599C11.0059 20.2983 11.009 20.3361 11.0132 20.3738C11.0157 20.4007 11.0187 20.4269 11.0218 20.4537C11.023 20.4671 11.0248 20.4799 11.026 20.4933C11.0291 20.5225 11.0327 20.5512 11.0364 20.5798C11.037 20.5865 11.0382 20.5932 11.0388 20.5999C11.3252 22.8266 12.4745 24.8326 14.235 26.2086C15.6865 27.35 17.5153 28.0312 19.5 28.0312C21.1343 28.0312 22.723 27.5675 24.0941 26.6906L23.4372 25.6632C22.2623 26.4152 20.901 26.8125 19.5 26.8125C18.7883 26.8125 18.1003 26.7101 17.4495 26.5194C17.5957 26.4097 17.7371 26.286 17.8754 26.1477C18.9333 25.0898 18.9461 24.0307 18.9577 23.0971C18.968 22.2611 18.9759 21.6005 19.6828 20.893C20.3909 20.1849 21.0521 20.1764 21.8881 20.166C22.8223 20.1545 23.8814 20.1417 24.9405 19.0826C25.9344 18.0887 26.0093 17.0942 26.0264 16.2039C26.5285 17.1941 26.8125 18.3148 26.8125 19.5C26.8125 21.5103 26.013 23.3842 24.5627 24.7766L25.4067 25.6559C27.0989 24.0319 28.0312 21.8455 28.0312 19.5C28.0312 17.4696 27.3183 15.603 26.13 14.1369C26.1178 14.1186 26.1056 14.1009 26.0916 14.0839ZM24.8101 16.0107C24.7979 16.8486 24.7888 17.5104 24.0788 18.2203C23.3707 18.9284 22.7096 18.9369 21.8735 18.9473C20.9393 18.9589 19.8802 18.9717 18.8212 20.0308C17.7627 21.0886 17.7499 22.1477 17.7389 23.0819C17.7285 23.918 17.7212 24.5779 17.0138 25.2854C16.6963 25.6029 16.3702 25.7979 15.9778 25.9015C15.5494 25.6657 15.1509 25.3908 14.7859 25.0843C14.7706 25.0715 14.756 25.0587 14.7408 25.0459C14.7274 25.035 14.7146 25.0234 14.7018 25.0124C13.3849 23.865 12.4818 22.2544 12.2484 20.4372C12.2478 20.4323 12.2472 20.4269 12.2466 20.422C12.2326 20.3086 12.2204 20.1941 12.2119 20.0795C12.2107 20.0673 12.21 20.0557 12.2088 20.0436C12.2046 19.9887 12.2009 19.9339 12.1985 19.8784C12.1985 19.8772 12.1985 19.8766 12.1985 19.8754C12.1954 19.8205 12.1936 19.7657 12.1924 19.7108C12.1918 19.6962 12.1918 19.6822 12.1912 19.6676C12.1881 19.6115 12.1875 19.5561 12.1875 19.5C12.1875 15.4678 15.4678 12.1875 19.5 12.1875C19.5609 12.1875 19.6213 12.1881 19.6816 12.1899H19.6913C19.7492 12.1912 19.8065 12.1936 19.8644 12.1966C19.8699 12.1966 19.8754 12.1973 19.8815 12.1973C19.9375 12.2003 19.993 12.204 20.0484 12.2076C20.0558 12.2082 20.0631 12.2088 20.0698 12.2094C20.1252 12.2137 20.1807 12.2186 20.2361 12.2241C20.2422 12.2247 20.2477 12.2253 20.2538 12.2259C20.3092 12.2314 20.3641 12.2381 20.4189 12.2448C20.4256 12.2454 20.433 12.2466 20.4397 12.2472C20.4957 12.2545 20.5518 12.2625 20.6072 12.271C20.6103 12.2716 20.6133 12.2722 20.617 12.2722C22.3238 12.5348 23.8375 13.3898 24.9417 14.6201C24.8229 15.1095 24.8162 15.5829 24.8101 16.0107Z" fill="black"/>
</svg>
