<svg width="39" height="39" viewBox="0 0 39 39" fill="none" xmlns="http://www.w3.org/2000/svg">
<g clip-path="url(#clip0_508_3262)">
<path d="M33.0718 27.0335L22.0229 2.28385C21.6056 1.34935 20.8495 0.63326 19.8936 0.267171C18.9377 -0.0984429 17.8974 -0.070641 16.9618 0.347148L2.27198 6.90572C1.33747 7.32303 0.621386 8.07911 0.255202 9.03504C-0.110888 9.99096 -0.0821338 11.0323 0.33518 11.9668L11.384 36.7163C11.8013 37.6509 12.5574 38.3669 13.5134 38.733C13.9585 38.9032 14.4216 38.988 14.8841 38.988C15.4155 38.988 15.9453 38.8758 16.445 38.6526L31.1353 32.0945C32.0694 31.6772 32.7855 30.9211 33.1516 29.9652C33.5173 29.0092 33.489 27.968 33.0718 27.0335ZM32.241 29.6172C31.9685 30.3293 31.4342 30.8934 30.7376 31.2044L16.0473 37.7625C15.3502 38.0741 14.5741 38.0941 13.8619 37.822C13.1493 37.5491 12.5857 37.0152 12.2746 36.3186L1.22531 11.569C0.914258 10.8724 0.893311 10.0963 1.16581 9.38361C1.43878 8.67095 1.97263 8.10739 2.6692 7.79633L17.3595 1.23824C17.732 1.072 18.1268 0.988686 18.5231 0.988686C18.8678 0.988686 19.2134 1.0521 19.5454 1.17882C20.2581 1.4518 20.8216 1.98565 21.1327 2.68222L32.1815 27.4318C32.4926 28.1283 32.5135 28.9044 32.241 29.6172Z" fill="black"/>
<path d="M11.5052 11.3057C10.7598 9.6361 8.79429 8.8844 7.12561 9.62972C6.31688 9.99095 5.69724 10.6452 5.38038 11.4724C5.06399 12.2997 5.08836 13.2005 5.4496 14.0098C5.99945 15.2417 7.21283 15.9739 8.48229 15.9739C8.93321 15.9739 9.39146 15.8812 9.82925 15.6858C10.638 15.3241 11.2576 14.6694 11.5745 13.8426C11.8908 13.0154 11.8664 12.1145 11.5052 11.3057ZM6.29098 11.8205C6.51426 11.2365 6.95204 10.7744 7.52284 10.5199C7.83189 10.382 8.15514 10.3167 8.47343 10.3167C9.21151 10.3167 9.91836 10.672 10.3634 11.2815L6.18901 13.1451C6.09504 12.7063 6.12674 12.2495 6.29098 11.8205ZM10.6638 13.4941C10.4405 14.0781 10.0027 14.5403 9.43193 14.7947C8.40526 15.2514 7.22311 14.9083 6.58652 14.0352L10.7653 12.1696C10.8597 12.6083 10.8275 13.0651 10.6638 13.4941Z" fill="black"/>
<path d="M20.1285 7.45557C19.7673 6.64684 19.113 6.0272 18.2858 5.71033C17.4589 5.39395 16.5571 5.41832 15.7484 5.77955C14.9396 6.14079 14.32 6.79499 14.0031 7.62228C13.6863 8.44958 13.7111 9.35038 14.0723 10.1592C14.4336 10.9679 15.0887 11.588 15.9156 11.9044C16.3007 12.0516 16.7019 12.1252 17.1021 12.1252C17.5613 12.1252 18.02 12.0282 18.4524 11.8352C20.1222 11.0898 20.8739 9.12473 20.1285 7.45557ZM14.9149 7.97085C15.1381 7.38682 15.5759 6.92476 16.1467 6.67026C16.4519 6.53373 16.7756 6.46555 17.1003 6.46555C17.3831 6.46555 17.6662 6.51725 17.9378 6.62151C18.3668 6.78575 18.7274 7.0671 18.9912 7.43024L14.8129 9.29535C14.7189 8.85613 14.7506 8.3994 14.9149 7.97085ZM18.0552 10.945C17.4844 11.2 16.8487 11.2175 16.2642 10.9937C15.8352 10.8295 15.4745 10.5481 15.2108 10.185L19.3895 8.3199C19.6147 9.37723 19.0814 10.4873 18.0552 10.945Z" fill="black"/>
<path d="M15.4192 20.0736C14.6733 18.404 12.7088 17.6518 11.0397 18.3976C10.2309 18.7588 9.61083 19.413 9.29444 20.2403C8.97805 21.0676 9.00243 21.9684 9.36366 22.7771C9.91351 24.009 11.1274 24.7412 12.3968 24.7412C12.8477 24.7412 13.306 24.649 13.7438 24.4535C14.552 24.0918 15.1722 23.4372 15.4885 22.6103C15.8048 21.7832 15.7805 20.8823 15.4192 20.0736ZM10.2051 20.5884C10.4284 20.0044 10.8662 19.5422 11.437 19.2878C12.4617 18.83 13.6448 19.1738 14.2819 20.0473L10.1032 21.9129C10.0092 21.4742 10.0408 21.0174 10.2051 20.5884ZM14.5783 22.262C14.355 22.846 13.9173 23.3081 13.3465 23.5625C12.3203 24.0193 11.1372 23.6761 10.5011 22.803L14.6798 20.9375C14.7743 21.3762 14.7422 21.8329 14.5783 22.262Z" fill="black"/>
<path d="M24.0428 16.2235C23.6816 15.4148 23.0274 14.7947 22.2001 14.4783C21.3728 14.1619 20.4725 14.1863 19.6627 14.5475C17.9931 15.2928 17.2414 17.2579 17.9867 18.9271C18.3479 19.7358 19.0021 20.3554 19.8294 20.6723C20.2145 20.8195 20.6158 20.8931 21.0159 20.8931C21.4756 20.8931 21.9344 20.7961 22.3668 20.6031C23.1755 20.2418 23.7957 19.5876 24.112 18.7603C24.4284 17.933 24.4041 17.0322 24.0428 16.2235ZM23.2019 18.4122C22.9786 18.9963 22.5409 19.4584 21.9701 19.7128C21.3987 19.9678 20.7626 19.9849 20.1786 19.7616C19.5945 19.5383 19.1325 19.1005 18.878 18.5297C18.3514 17.3515 18.8823 15.9641 20.0611 15.4376C20.3662 15.3017 20.6899 15.2334 21.0146 15.2334C21.2974 15.2334 21.5805 15.2851 21.8526 15.3894C22.4366 15.6126 22.8987 16.0504 23.1532 16.6212C23.4077 17.1921 23.4252 17.8283 23.2019 18.4122Z" fill="black"/>
<path d="M19.3338 28.8411C18.5879 27.1714 16.6234 26.4202 14.9537 27.1651C14.145 27.5263 13.5249 28.1805 13.2085 29.0078C12.8921 29.8351 12.9165 30.7359 13.2777 31.5446C13.8276 32.7765 15.0414 33.5086 16.3109 33.5086C16.7618 33.5086 17.2201 33.4165 17.6578 33.221C18.4666 32.8598 19.0867 32.2056 19.4031 31.3783C19.7194 30.5512 19.695 29.6503 19.3338 28.8411ZM18.4919 31.0298C18.2686 31.6138 17.8308 32.0759 17.2601 32.3304C16.0813 32.8554 14.6939 32.3251 14.168 31.1468C13.913 30.576 13.8959 29.9398 14.1192 29.3558C14.3425 28.7718 14.7803 28.3097 15.3511 28.0552C16.5298 27.5282 17.9162 28.0596 18.4432 29.2383C18.698 29.8097 18.7157 30.4453 18.4919 31.0298Z" fill="black"/>
<path d="M27.9568 24.9914C27.2115 23.3217 25.2474 22.57 23.5773 23.3149C22.7685 23.6761 22.1489 24.3303 21.832 25.1576C21.5156 25.9849 21.54 26.8857 21.9013 27.695C22.2625 28.5037 22.9167 29.1234 23.744 29.4402C24.1291 29.5874 24.5303 29.661 24.9305 29.661C25.3897 29.661 25.8485 29.564 26.2808 29.371C27.0895 29.0098 27.7097 28.3556 28.026 27.5283C28.3423 26.701 28.318 25.8001 27.9568 24.9914ZM27.1153 27.1797C26.8921 27.7638 26.4543 28.2259 25.8835 28.4803C25.3132 28.7353 24.677 28.7523 24.0925 28.5291C23.5084 28.3058 23.0463 27.8685 22.7919 27.2972C22.5374 26.7259 22.5194 26.0902 22.7431 25.5062C22.9664 24.9222 23.4042 24.46 23.975 24.2056C24.284 24.0676 24.6073 24.0023 24.9256 24.0023C25.8216 24.0023 26.6785 24.5195 27.0671 25.3892C27.3216 25.9595 27.3392 26.5957 27.1153 27.1797Z" fill="black"/>
<path d="M38.0763 17.4876C36.8454 16.2567 34.8429 16.2562 33.6124 17.4861C32.3811 18.7161 32.3806 20.7187 33.6104 21.95C34.2262 22.5663 35.0349 22.8744 35.8432 22.8744C36.6514 22.8744 37.4592 22.5672 38.0748 21.952C39.3057 20.7215 39.3062 18.7189 38.0763 17.4876ZM34.3012 18.1758C35.0329 17.4441 36.158 17.3466 36.9999 17.8741L33.9975 20.8741C33.471 20.0322 33.5695 18.9071 34.3012 18.1758ZM37.3856 21.2621C36.6534 21.9934 35.5288 22.0913 34.6869 21.5639L37.6893 18.5639C38.2162 19.4063 38.1178 20.5309 37.3856 21.2621Z" fill="black"/>
<path d="M30.4329 1.87633C29.8591 1.25869 29.0792 0.901361 28.2367 0.870131C27.3949 0.840425 26.5896 1.13777 25.9719 1.71152C24.6966 2.89614 24.6226 4.89721 25.8066 6.17248C26.4277 6.84134 27.2735 7.17963 28.1212 7.17963C28.8904 7.17963 29.6612 6.90075 30.2681 6.33777C31.5433 5.15324 31.6175 3.1516 30.4329 1.87633ZM26.5213 5.50904C25.8169 4.75097 25.7608 3.62347 26.3185 2.8015L29.2064 5.91169C28.3459 6.40698 27.2252 6.26712 26.5213 5.50904ZM29.9215 5.24778L27.0341 2.13864C27.3622 1.94898 27.7317 1.84272 28.1178 1.84272C28.1451 1.84272 28.1729 1.8432 28.2002 1.84415C28.7827 1.86557 29.3214 2.11274 29.7182 2.53977C30.4226 3.29832 30.4791 4.42582 29.9215 5.24778Z" fill="black"/>
<path d="M35.843 6.80087C34.1027 6.80087 32.6865 8.21705 32.6865 9.95781C32.6865 11.6981 34.1027 13.1143 35.843 13.1143C37.5838 13.1143 38.9999 11.6981 38.9999 9.95781C38.9999 8.21705 37.5837 6.80087 35.843 6.80087ZM35.843 12.1393C34.808 12.1393 33.9437 11.4134 33.721 10.4453H37.9655C37.7427 11.4135 36.8779 12.1393 35.843 12.1393ZM33.7209 9.47033C33.9437 8.50221 34.8085 7.77584 35.8429 7.77584C36.8778 7.77584 37.7427 8.50174 37.9654 9.47033H33.7209Z" fill="black"/>
</g>
<defs>
<clipPath id="clip0_508_3262">
<rect width="39" height="39" fill="white"/>
</clipPath>
</defs>
</svg>
