<svg width="39" height="39" viewBox="0 0 39 39" fill="none" xmlns="http://www.w3.org/2000/svg">
<path d="M14.5718 1.04501V2.87071H3.60547V19.9333H2.38672V37.6075H36.5105V19.9333H35.2918V2.87071H24.3254V1.04501H14.5718ZM15.7918 2.26371H23.1055V3.4777H15.7918V2.26371ZM4.82422 4.08948H14.5718V4.69647H24.3254V4.08948H34.073V19.9333H32.2461V15.0571H32.8531V13.8371H31.6343V11.4043H32.2461V10.1856H27.3699V11.4043H27.9817V13.8371H26.7629V15.0571H27.3699V19.9333H25.5442V12.0113H23.1055V10.7926H24.3254V7.13513H17.0105V10.7926H18.2221L18.2258 12.0113H15.7919C15.7919 14.652 15.7919 17.2926 15.7919 19.9333H14.5719V10.1856H6.04416V19.9333H4.82422V4.08948ZM18.2293 8.3539H23.1055V9.56908C21.4801 9.57599 19.8547 9.57365 18.2293 9.57365V8.3539ZM21.8867 10.7973V13.2301H24.3254C24.3254 14.1844 24.3254 18.9789 24.3254 19.9333C21.8871 19.9333 19.4488 19.9333 17.0105 19.9333C17.0105 19.0493 17.0105 14.5498 17.0105 13.2301H19.4528L19.4445 10.8057L21.8867 10.7973ZM7.26291 11.4043H13.3531V19.9333H7.26291V11.4043ZM29.2016 11.4043H30.4204V13.8371H29.2016V11.4043ZM8.48166 12.6183V13.8371H9.70041V12.6183H8.48166ZM10.9204 12.6183V13.8371H12.1391V12.6183H10.9204ZM8.48166 15.0571V16.2758H9.70041V15.0571H8.48166ZM10.9204 15.0571V16.2758H12.1391V15.0571H10.9204ZM20.061 15.0571V16.2758H18.841V17.4945H20.061V18.7133H21.2797V17.4945H22.4937V16.2758H21.2797V15.0571H20.061ZM28.5887 15.0571H31.0273V19.9333H28.5887V15.0571ZM8.48166 17.4945V18.7133H9.70041V17.4945H8.48166ZM10.9204 17.4945V18.7133H12.1391V17.4945H10.9204ZM3.60547 21.152H35.2918V36.3875H3.60547V21.152ZM31.0273 22.9777V24.1977H32.8531V26.0282H34.073V22.9777H31.0273ZM17.0105 24.1881V26.6269H14.5718V30.9091H17.0105V33.3109L21.8867 33.3515C21.8867 32.5374 21.8867 31.7233 21.8867 30.9092H24.3254V26.6448H21.8867V24.206L17.0105 24.1881ZM18.2293 25.4117L20.668 25.4209V27.8583H23.1055V29.69H20.668V32.1228L18.2293 32.0998V29.6897H15.7918V27.8449H18.2293V25.4117ZM4.82422 31.5113V34.557H7.8699V33.3383H6.04416V31.5113H4.82422Z" fill="black"/>
</svg>
