<svg width="39" height="39" viewBox="0 0 39 39" fill="none" xmlns="http://www.w3.org/2000/svg">
<path d="M28.0312 37.1719H10.9688C10.1607 37.1719 9.38568 36.8509 8.81428 36.2795C8.24288 35.7081 7.92188 34.9331 7.92188 34.125V4.875C7.92188 4.06692 8.24288 3.29193 8.81428 2.72053C9.38568 2.14913 10.1607 1.82813 10.9688 1.82812H28.0312C28.8393 1.82812 29.6143 2.14913 30.1857 2.72053C30.7571 3.29193 31.0781 4.06692 31.0781 4.875V34.125C31.0781 34.9331 30.7571 35.7081 30.1857 36.2795C29.6143 36.8509 28.8393 37.1719 28.0312 37.1719ZM10.9688 3.04688C10.4839 3.04688 10.0189 3.23948 9.67607 3.58232C9.33323 3.92516 9.14062 4.39015 9.14062 4.875V34.125C9.14062 34.6098 9.33323 35.0748 9.67607 35.4177C10.0189 35.7605 10.4839 35.9531 10.9688 35.9531H28.0312C28.5161 35.9531 28.9811 35.7605 29.3239 35.4177C29.6668 35.0748 29.8594 34.6098 29.8594 34.125V4.875C29.8594 4.39015 29.6668 3.92516 29.3239 3.58232C28.9811 3.23948 28.5161 3.04688 28.0312 3.04688H10.9688Z" fill="black"/>
<path d="M30.4688 31.0781H8.53125C8.36963 31.0781 8.21464 31.0139 8.10036 30.8996C7.98608 30.7854 7.92188 30.6304 7.92188 30.4688C7.92188 30.3071 7.98608 30.1521 8.10036 30.0379C8.21464 29.9236 8.36963 29.8594 8.53125 29.8594H30.4688C30.6304 29.8594 30.7854 29.9236 30.8996 30.0379C31.0139 30.1521 31.0781 30.3071 31.0781 30.4688C31.0781 30.6304 31.0139 30.7854 30.8996 30.8996C30.7854 31.0139 30.6304 31.0781 30.4688 31.0781Z" fill="black"/>
<path d="M21.3281 35.3438H17.6719C17.187 35.3438 16.722 35.1511 16.3792 34.8083C16.0364 34.4655 15.8438 34.0005 15.8438 33.5156C15.8438 33.0308 16.0364 32.5658 16.3792 32.2229C16.722 31.8801 17.187 31.6875 17.6719 31.6875H21.3281C21.813 31.6875 22.278 31.8801 22.6208 32.2229C22.9636 32.5658 23.1562 33.0308 23.1562 33.5156C23.1562 34.0005 22.9636 34.4655 22.6208 34.8083C22.278 35.1511 21.813 35.3438 21.3281 35.3438ZM17.6719 32.9062C17.5103 32.9062 17.3553 32.9705 17.241 33.0847C17.1267 33.199 17.0625 33.354 17.0625 33.5156C17.0625 33.6772 17.1267 33.8322 17.241 33.9465C17.3553 34.0608 17.5103 34.125 17.6719 34.125H21.3281C21.4897 34.125 21.6447 34.0608 21.759 33.9465C21.8733 33.8322 21.9375 33.6772 21.9375 33.5156C21.9375 33.354 21.8733 33.199 21.759 33.0847C21.6447 32.9705 21.4897 32.9062 21.3281 32.9062H17.6719Z" fill="black"/>
<path d="M19.5 7.3125C19.1384 7.3125 18.785 7.20528 18.4843 7.00441C18.1837 6.80353 17.9494 6.51801 17.811 6.18397C17.6727 5.84992 17.6365 5.48235 17.707 5.12773C17.7775 4.7731 17.9517 4.44736 18.2073 4.1917C18.463 3.93603 18.7887 3.76192 19.1434 3.69138C19.498 3.62084 19.8655 3.65704 20.1996 3.79541C20.5336 3.93378 20.8192 4.16809 21.02 4.46872C21.2209 4.76936 21.3281 5.12281 21.3281 5.48438C21.3281 5.96922 21.1355 6.43422 20.7927 6.77706C20.4498 7.1199 19.9848 7.3125 19.5 7.3125ZM19.5 4.875C19.3795 4.875 19.2617 4.91074 19.1615 4.9777C19.0612 5.04466 18.9831 5.13983 18.937 5.25118C18.8909 5.36253 18.8788 5.48505 18.9023 5.60326C18.9258 5.72147 18.9839 5.83005 19.0691 5.91527C19.1543 6.00049 19.2629 6.05853 19.3811 6.08204C19.4993 6.10555 19.6218 6.09349 19.7332 6.04736C19.8445 6.00124 19.9397 5.92314 20.0067 5.82293C20.0736 5.72272 20.1094 5.6049 20.1094 5.48438C20.1094 5.32276 20.0452 5.16776 19.9309 5.05348C19.8166 4.9392 19.6616 4.875 19.5 4.875Z" fill="black"/>
</svg>
