<svg width="39" height="39" viewBox="0 0 39 39" fill="none" xmlns="http://www.w3.org/2000/svg">
<path d="M19.5002 7.3125C17.3335 7.33406 15.2133 7.94345 13.3658 9.07563C13.2081 9.20262 13.1036 9.3839 13.0726 9.58395C13.0416 9.78401 13.0864 9.98843 13.1982 10.1572C13.31 10.3259 13.4808 10.4469 13.6771 10.4963C13.8735 10.5457 14.0812 10.5201 14.2596 10.4244C15.8438 9.47301 17.6524 8.95986 19.5002 8.9375C21.347 8.96639 23.154 9.47906 24.7408 10.4244C24.8717 10.516 25.0279 10.5643 25.1877 10.5625C25.3613 10.5612 25.5299 10.5043 25.6688 10.4001C25.8077 10.296 25.9096 10.1501 25.9595 9.98388C26.0095 9.81764 26.0049 9.63976 25.9464 9.47631C25.8879 9.31286 25.7786 9.17244 25.6346 9.07563C23.7871 7.94345 21.6669 7.33406 19.5002 7.3125Z" fill="black"/>
<path d="M28.8438 14.625C29.5168 14.625 30.0625 14.0793 30.0625 13.4062C30.0625 12.7332 29.5168 12.1875 28.8438 12.1875C28.1707 12.1875 27.625 12.7332 27.625 13.4062C27.625 14.0793 28.1707 14.625 28.8438 14.625Z" fill="black"/>
<path d="M36.5625 15.4375C36.0222 15.4414 35.4939 15.279 35.0491 14.9723C34.6043 14.6656 34.2647 14.2295 34.0762 13.7231C33.523 12.1782 32.7157 10.7365 31.6875 9.4575V9.165L34.0112 5.28938C34.0769 5.193 34.1211 5.08361 34.1407 4.96864C34.1603 4.85368 34.155 4.73584 34.125 4.62313C34.0898 4.51359 34.0318 4.41276 33.9548 4.32732C33.8778 4.24188 33.7835 4.17377 33.6781 4.1275C33.4506 4.03 28.2994 1.8525 25.0494 4.72875C23.2476 4.20887 21.3736 3.98388 19.5 4.0625C17.2053 4.08377 14.9376 4.55925 12.8277 5.46151C10.7178 6.36377 8.80742 7.67495 7.20687 9.31938C6.6084 9.95189 6.06477 10.6341 5.58187 11.3588C4.95669 11.3316 4.36588 11.0651 3.93179 10.6144C3.4977 10.1637 3.25358 9.56327 3.25 8.9375C3.25 8.72202 3.1644 8.51535 3.01202 8.36298C2.85965 8.21061 2.65299 8.125 2.4375 8.125C2.22201 8.125 2.01535 8.21061 1.86298 8.36298C1.7106 8.51535 1.625 8.72202 1.625 8.9375C1.62881 9.83519 1.92985 10.7063 2.48108 11.4148C3.03231 12.1234 3.80269 12.6293 4.67188 12.8538C3.67643 14.7328 3.18646 16.8383 3.25 18.9638C3.44834 22.3627 4.89507 25.5687 7.3125 27.9663V33.3125C7.3125 33.528 7.3981 33.7347 7.55048 33.887C7.70285 34.0394 7.90951 34.125 8.125 34.125H13.5281C13.7053 34.1343 13.8806 34.0853 14.0274 33.9855C14.1741 33.8857 14.2841 33.7407 14.3406 33.5725C14.625 32.7031 15.275 31.6875 16.25 31.6875H21.9375C22.4767 31.6808 22.9998 31.8716 23.4081 32.2238C23.9059 32.6707 24.3356 33.1881 24.6838 33.7594C24.7574 33.8711 24.8574 33.963 24.9751 34.0268C25.0927 34.0906 25.2243 34.1243 25.3581 34.125H30.0625C30.1694 34.1256 30.2754 34.1051 30.3744 34.0647C30.4734 34.0243 30.5635 33.9647 30.6394 33.8894C30.7147 33.8135 30.7743 33.7234 30.8147 33.6244C30.8551 33.5254 30.8756 33.4194 30.875 33.3125V27.9013C31.2162 27.4544 31.9881 26.4225 32.3456 25.9106C32.5421 25.6246 32.7934 25.3804 33.0848 25.1921C33.3763 25.0038 33.7022 24.8752 34.0438 24.8138L36.7006 24.375C36.8914 24.3421 37.0642 24.2422 37.1878 24.0932C37.3114 23.9443 37.3778 23.7561 37.375 23.5625V16.25C37.375 16.0345 37.2894 15.8279 37.137 15.6755C36.9847 15.5231 36.778 15.4375 36.5625 15.4375ZM35.75 22.8719L33.7756 23.205C33.2225 23.3015 32.6942 23.5071 32.2213 23.8098C31.7484 24.1125 31.3405 24.5063 31.0212 24.9681C30.5581 25.6263 29.3962 27.1375 29.3962 27.1375C29.2965 27.2801 29.2453 27.451 29.25 27.625V32.5H25.7887C25.4118 31.9262 24.9549 31.4091 24.4319 30.9644C23.7371 30.3715 22.8508 30.0511 21.9375 30.0625H16.25C15.5306 30.1111 14.8408 30.3673 14.264 30.7999C13.6872 31.2325 13.2481 31.823 13 32.5H8.9375V27.625C8.93814 27.5161 8.91689 27.4083 8.87501 27.3078C8.83314 27.2073 8.7715 27.1162 8.69375 27.04C6.42962 24.9122 5.06363 22.0001 4.875 18.8988C4.85261 17.3275 5.15008 15.7682 5.7493 14.3155C6.34852 12.8628 7.23697 11.5472 8.36062 10.4488C9.80997 8.95754 11.5409 7.76882 13.453 6.95152C15.3652 6.13422 17.4206 5.70458 19.5 5.6875C22.8638 5.6875 24.2775 6.1425 24.8219 6.41063C24.9796 6.49155 25.1594 6.51868 25.334 6.48787C25.5086 6.45707 25.6683 6.37002 25.7887 6.24C27.5681 4.30625 30.6069 4.875 32.1019 5.31375L30.1763 8.56375C30.1085 8.67723 30.0695 8.80552 30.0625 8.9375V9.75C30.0621 9.93985 30.1282 10.1238 30.2494 10.27C31.2428 11.4585 32.0209 12.8113 32.5488 14.2675C32.8006 14.9598 33.2282 15.5746 33.7894 16.0518C34.3506 16.529 35.0262 16.8521 35.75 16.9894V22.8719Z" fill="black"/>
</svg>
