<svg width="39" height="39" viewBox="0 0 39 39" fill="none" xmlns="http://www.w3.org/2000/svg">
<g clip-path="url(#clip0_505_2879)">
<path d="M38.2099 19.6131C37.5001 18.4294 36.3233 17.8293 34.7119 17.8293C29.7255 17.8293 27.9508 16.998 25.8959 16.0355C25.6269 15.9094 25.3507 15.7806 25.0634 15.6513C25.0632 15.6046 25.0602 15.5576 25.0519 15.5106C25.0081 15.2657 24.8575 15.0571 24.6387 14.9387L22.0364 13.5291C21.9179 13.4649 21.784 13.4309 21.6493 13.4309C21.492 13.4309 21.3392 13.4779 21.2088 13.5619C20.7082 13.1694 19.8196 12.4389 19.2796 11.8989C18.9709 11.5902 18.5628 11.4792 18.1305 11.5868C17.5207 11.7381 16.9485 12.322 16.8159 12.7529C16.3699 14.217 14.9958 17.6226 11.8775 17.6226C9.7596 17.6226 7.06453 17.0631 6.25168 14.3949C6.18252 14.1721 6.12657 13.9398 6.08525 13.7038C6.00864 13.2704 5.78249 12.875 5.44828 12.5906C5.08041 12.2776 4.61094 12.1218 4.1257 12.1504C3.87783 12.1652 3.64351 12.2292 3.4315 12.3327V11.5065C3.4315 10.5612 2.66239 9.79208 1.71705 9.79208C1.09854 9.79208 0.544007 10.1115 0.233864 10.6467C-0.0763494 11.1818 -0.0780535 11.8217 0.229391 12.3584L2.36645 16.0901V26.2857V27.129C2.36645 28.2754 3.29908 29.2079 4.44543 29.2079H11.8772C11.9849 29.2079 12.0901 29.1753 12.1788 29.1144C12.7656 28.7111 13.5541 28.7111 14.1409 29.1144C14.2296 29.1753 14.3348 29.2079 14.4425 29.2079H36.9209C38.0673 29.2079 38.9999 28.2753 38.9999 27.129V26.2857V23.2876C38.9999 21.7015 38.7415 20.4996 38.2099 19.6131ZM23.8538 15.7248L21.68 18.2005C21.3782 18.5442 20.9429 18.7413 20.4856 18.7413C20.3435 18.7413 20.2018 18.7221 20.0644 18.6843L18.3132 18.2028L21.7008 14.5586L23.8538 15.7248ZM1.1552 11.1808C1.21158 11.0836 1.37929 10.8571 1.71705 10.8571C2.07505 10.8571 2.36638 11.1485 2.36638 11.5065V13.947L1.1535 11.8292C0.985718 11.5361 1.09876 11.2782 1.1552 11.1808ZM36.9209 28.1429H14.598C13.718 27.6166 12.6014 27.6166 11.7214 28.1429H4.44528C3.8862 28.1429 3.43136 27.6881 3.43136 27.129V26.8182H33.7585C34.0526 26.8182 34.291 26.5798 34.291 26.2857C34.291 25.9915 34.0526 25.7531 33.7585 25.7531H3.43136V15.9484V14.0553C3.43136 13.6087 3.76422 13.2389 4.18932 13.2135C4.39849 13.2019 4.60057 13.2679 4.75798 13.4018C4.90389 13.5259 5.0028 13.699 5.03617 13.8883C5.08517 14.1681 5.15184 14.4448 5.23363 14.708C5.65468 16.0902 6.50992 17.1334 7.77555 17.8089C8.86822 18.3921 10.2483 18.6877 11.8774 18.6877C13.3644 18.6877 14.6766 18.0783 15.7775 16.8764C16.8839 15.6685 17.5054 14.1418 17.8319 13.0725C17.8858 12.9559 18.1715 12.6609 18.4053 12.6165C18.4668 12.6049 18.4895 12.6152 18.5265 12.6521C19.0679 13.1935 19.9156 13.8961 20.4613 14.3278L16.9353 18.1209C16.8085 18.2573 16.7622 18.4499 16.8131 18.6289C16.8639 18.808 17.0046 18.9475 17.1841 18.997L19.782 19.7114C20.0113 19.7745 20.2481 19.8065 20.4856 19.8065C21.2492 19.8065 21.9764 19.4773 22.4803 18.9034L24.5235 16.5763C24.8416 16.7181 25.1467 16.8608 25.4441 17.0001C27.5239 17.9744 29.4884 18.8946 34.7119 18.8946C36.9409 18.8946 37.9349 20.2495 37.9349 23.2878V25.7533H37.0553C36.7612 25.7533 36.5227 25.9917 36.5227 26.2859C36.5227 26.58 36.7612 26.8184 37.0553 26.8184H37.9349V27.1293C37.9349 27.6881 37.48 28.1429 36.9209 28.1429Z" fill="black"/>
</g>
<defs>
<clipPath id="clip0_505_2879">
<rect width="39" height="39" fill="white"/>
</clipPath>
</defs>
</svg>
