<svg width="39" height="39" viewBox="0 0 39 39" fill="none" xmlns="http://www.w3.org/2000/svg">
<path d="M29.25 31.25H20.7188C20.2339 31.25 19.7689 31.4426 19.4261 31.7854C19.0832 32.1283 18.8906 32.5933 18.8906 33.0781C18.8906 33.563 19.0832 34.028 19.4261 34.3708C19.7689 34.7136 20.2339 34.9062 20.7188 34.9062H29.25C29.7348 34.9062 30.1998 34.7136 30.5427 34.3708C30.8855 34.028 31.0781 33.563 31.0781 33.0781C31.0781 32.5933 30.8855 32.1283 30.5427 31.7854C30.1998 31.4426 29.7348 31.25 29.25 31.25ZM29.25 33.6875H20.7188C20.5571 33.6875 20.4021 33.6233 20.2879 33.509C20.1736 33.3947 20.1094 33.2397 20.1094 33.0781C20.1094 32.9165 20.1736 32.7615 20.2879 32.6472C20.4021 32.533 20.5571 32.4688 20.7188 32.4688H29.25C29.4116 32.4688 29.5666 32.533 29.6809 32.6472C29.7952 32.7615 29.8594 32.9165 29.8594 33.0781C29.8594 33.2397 29.7952 33.3947 29.6809 33.509C29.5666 33.6233 29.4116 33.6875 29.25 33.6875Z" fill="black"/>
<path d="M35.3157 29.3548C35.2992 29.2057 35.2283 29.068 35.1165 28.9679C35.0048 28.8678 34.86 28.8125 34.71 28.8125H33.5156V26.9844C33.5156 26.8228 33.4514 26.6678 33.3371 26.5535C33.2229 26.4392 33.0679 26.375 32.9062 26.375H32.2969V25.7656C32.2964 25.3876 32.179 25.0191 31.9608 24.7104C31.7426 24.4018 31.4343 24.1682 31.0781 24.0417V21.957C31.0778 21.5127 30.9011 21.0866 30.5869 20.7724C30.2727 20.4582 29.8467 20.2816 29.4023 20.2812H29.0977C28.9765 20.2811 28.8603 20.2329 28.7747 20.1472C28.689 20.0615 28.6408 19.9454 28.6406 19.8242V19.4434C28.64 18.8577 28.407 18.2962 27.9929 17.8821C27.5788 17.468 27.0173 17.235 26.4316 17.2344H25.5938C25.4321 17.2344 25.2771 17.2986 25.1629 17.4129C25.0486 17.5271 24.9844 17.6821 24.9844 17.8438V19.9766C24.9844 20.1766 24.945 20.3747 24.8684 20.5596C24.7919 20.7444 24.6796 20.9123 24.5382 21.0538C24.3967 21.1953 24.2288 21.3075 24.0439 21.384C23.8591 21.4606 23.661 21.5 23.4609 21.5H20.7188C20.2339 21.5 19.7689 21.6926 19.4261 22.0354C19.0832 22.3783 18.8906 22.8433 18.8906 23.3281V24.0417C18.5344 24.1682 18.2261 24.4018 18.0079 24.7104C17.7897 25.0191 17.6723 25.3876 17.6719 25.7656V26.375H17.0625C16.9009 26.375 16.7459 26.4392 16.6316 26.5535C16.5173 26.6678 16.4531 26.8228 16.4531 26.9844V28.8125H15.8194C15.6694 28.8125 15.5246 28.8678 15.4128 28.9679C15.3011 29.068 15.2302 29.2057 15.2137 29.3548L14.625 34.6564V16.0156C14.625 15.854 14.5608 15.699 14.4465 15.5847C14.3322 15.4705 14.1772 15.4062 14.0156 15.4062H13.4062V11.75C13.4066 11.7091 13.4025 11.6682 13.3941 11.6281L12.7847 8.58125C12.7566 8.44361 12.6818 8.3199 12.573 8.23107C12.4642 8.14223 12.328 8.09372 12.1875 8.09375H11.5781V5.65625H13.4062C13.5679 5.65625 13.7229 5.59205 13.8371 5.47777C13.9514 5.36349 14.0156 5.20849 14.0156 5.04688V2.60938C14.0156 2.44776 13.9514 2.29276 13.8371 2.17848C13.7229 2.0642 13.5679 2 13.4062 2H9.14062C9.06301 2.00003 8.9861 2.01471 8.91394 2.04327L5.86706 3.26202C5.754 3.30733 5.65712 3.38548 5.5889 3.48638C5.52069 3.58729 5.48428 3.70632 5.48438 3.82812V8.09375H4.875C4.73452 8.09372 4.59835 8.14223 4.48952 8.23107C4.3807 8.3199 4.30591 8.44361 4.27781 8.58125L3.66844 11.6281C3.65996 11.6682 3.65587 11.7091 3.65625 11.75V15.4062H3.04688C2.88526 15.4062 2.73026 15.4705 2.61598 15.5847C2.5017 15.699 2.4375 15.854 2.4375 16.0156V36.7344C2.4375 37.2192 2.63011 37.6842 2.97295 38.0271C3.31579 38.3699 3.78078 38.5625 4.26562 38.5625H12.7969C13.2817 38.5625 13.7467 38.3699 14.0896 38.0271C14.4324 37.6842 14.625 37.2192 14.625 36.7344V35.7862C14.7313 36.4191 15.0096 37.0106 15.4294 37.4961C15.7012 37.8222 16.04 38.0862 16.4226 38.2702C16.8053 38.4542 17.223 38.5538 17.6475 38.5625H32.8819C33.3064 38.5538 33.7241 38.4542 34.1068 38.2702C34.4894 38.0862 34.8281 37.8222 35.1 37.4961C35.4164 37.136 35.6534 36.7133 35.7956 36.2556C35.9378 35.7978 35.9819 35.3152 35.9251 34.8392L35.3157 29.3548ZM6.70312 4.24067L9.25763 3.21875H12.7969V4.4375H10.9688C10.8071 4.4375 10.6521 4.5017 10.5379 4.61598C10.4236 4.73026 10.3594 4.88526 10.3594 5.04688V8.09375H6.70312V4.24067ZM4.875 11.8109L5.37469 9.3125H11.6878L12.1875 11.8109V15.4062H4.875V11.8109ZM13.4062 36.7344C13.4062 36.896 13.342 37.051 13.2278 37.1653C13.1135 37.2795 12.9585 37.3438 12.7969 37.3438H4.26562C4.10401 37.3438 3.94901 37.2795 3.83473 37.1653C3.72045 37.051 3.65625 36.896 3.65625 36.7344V19.0625H13.4062V36.7344ZM13.4062 17.8438H3.65625V16.625H13.4062V17.8438ZM18.8906 25.7656C18.8906 25.604 18.9548 25.449 19.0691 25.3347C19.1834 25.2205 19.3384 25.1562 19.5 25.1562H22.5469V23.9375H20.1094V23.3281C20.1094 23.1665 20.1736 23.0115 20.2879 22.8972C20.4021 22.783 20.5571 22.7188 20.7188 22.7188H23.4609C24.188 22.7179 24.885 22.4288 25.3991 21.9147C25.9132 21.4006 26.2023 20.7036 26.2031 19.9766V18.4531H26.4316C26.6942 18.4534 26.9459 18.5579 27.1315 18.7435C27.3171 18.9291 27.4216 19.1808 27.4219 19.4434V19.8242C27.4222 20.2686 27.5989 20.6946 27.9131 21.0088C28.2273 21.323 28.6533 21.4997 29.0977 21.5H29.4023C29.5235 21.5002 29.6397 21.5484 29.7253 21.634C29.811 21.7197 29.8592 21.8359 29.8594 21.957V23.9375H25.5938V25.1562H30.4688C30.6304 25.1562 30.7854 25.2205 30.8996 25.3347C31.0139 25.449 31.0781 25.604 31.0781 25.7656V26.375H18.8906V25.7656ZM17.6719 27.5938H32.2969V28.8125H17.6719V27.5938ZM34.1792 36.6972C34.0227 36.8925 33.8256 37.0514 33.6016 37.163C33.3776 37.2746 33.132 37.3363 32.8819 37.3438H17.6475C17.3974 37.3365 17.1518 37.2749 16.9278 37.1634C16.7038 37.0519 16.5067 36.893 16.3501 36.6978C16.1438 36.4647 15.9894 36.1904 15.8973 35.8931C15.8052 35.5957 15.7773 35.2822 15.8157 34.9733L16.3642 30.0312H34.164L34.7155 34.9928C34.7515 35.2986 34.7224 35.6087 34.63 35.9024C34.5375 36.1962 34.3839 36.4671 34.1792 36.6972Z" fill="black"/>
<path d="M33.4791 32.3469L32.2841 32.5857L32.7478 34.9062H31.0781V36.125H32.7478C32.9281 36.1249 33.1062 36.0848 33.2691 36.0076C33.432 35.9304 33.5758 35.818 33.6901 35.6785C33.8043 35.539 33.8862 35.3759 33.9298 35.2009C33.9734 35.026 33.9776 34.8435 33.9422 34.6668L33.4791 32.3469Z" fill="black"/>
<path d="M5.48438 34.9062H7.92188C8.08349 34.9062 8.23849 34.842 8.35277 34.7278C8.46705 34.6135 8.53125 34.4585 8.53125 34.2969V20.8906C8.53125 20.729 8.46705 20.574 8.35277 20.4597C8.23849 20.3455 8.08349 20.2813 7.92188 20.2812H5.48438C5.32276 20.2812 5.16776 20.3455 5.05348 20.4597C4.9392 20.574 4.875 20.729 4.875 20.8906V34.2969C4.875 34.4585 4.9392 34.6135 5.05348 34.7278C5.16776 34.842 5.32276 34.9062 5.48438 34.9062ZM6.09375 21.5H7.3125V33.6875H6.09375V21.5Z" fill="black"/>
<path d="M12.1875 20.2812H10.9688V21.5H12.1875V20.2812Z" fill="black"/>
<path d="M12.1875 22.7188H10.9688V23.9375H12.1875V22.7188Z" fill="black"/>
<path d="M6.09375 11.1406V13.5781H7.3125V11.75H8.53125V10.5312H6.70312C6.54151 10.5312 6.38651 10.5955 6.27223 10.7097C6.15795 10.824 6.09375 10.979 6.09375 11.1406Z" fill="black"/>
</svg>
