<svg width="39" height="39" viewBox="0 0 39 39" fill="none" xmlns="http://www.w3.org/2000/svg">
<path d="M3.04688 18.8906C3.04686 18.9176 3.04864 18.9445 3.05221 18.9712L5.34871 36.1947C5.4084 36.6334 5.62473 37.0356 5.95777 37.3272C6.29082 37.6188 6.71811 37.7801 7.16077 37.7813H32.9062C33.3909 37.7807 33.8556 37.5879 34.1983 37.2452C34.5411 36.9025 34.7338 36.4378 34.7344 35.9531V33.556L37.1665 15.315C37.1665 15.3123 37.1665 15.3097 37.1672 15.3074C37.1686 15.295 37.1694 15.2825 37.1701 15.27C37.1707 15.2608 37.1713 15.2518 37.1715 15.2426C37.1715 15.2399 37.1715 15.2374 37.1715 15.235V12.7969C37.1715 12.6353 37.1073 12.4803 36.993 12.366C36.8787 12.2517 36.7237 12.1875 36.5621 12.1875H24.375C24.2134 12.1875 24.0584 12.2517 23.9441 12.366C23.8298 12.4803 23.7656 12.6353 23.7656 12.7969V15.2344C23.7656 15.2371 23.7656 15.2397 23.7656 15.242C23.7656 15.2511 23.7665 15.2602 23.767 15.2693C23.7678 15.2819 23.7685 15.2944 23.77 15.3067C23.77 15.3093 23.77 15.3119 23.7706 15.3144L24.894 23.7401C23.6689 23.647 23.2902 23.3155 23.1793 23.16C23.1398 23.1041 23.1133 23.04 23.102 22.9725C23.0906 22.9051 23.0946 22.8359 23.1137 22.7701C23.1548 22.6799 23.1722 22.5806 23.1642 22.4817C23.1562 22.3828 23.1231 22.2876 23.068 22.2052C23.0107 22.1202 22.9329 22.0511 22.8418 22.0043C22.7507 21.9575 22.6493 21.9345 22.5469 21.9375C21.3344 21.9375 20.4 22.1736 19.6303 22.5245L20.104 18.9712C20.1076 18.9445 20.1094 18.9176 20.1094 18.8906C20.1082 17.4305 19.704 15.999 18.9411 14.7539C18.1783 13.5089 17.0866 12.4986 15.7862 11.8345C15.8382 11.7233 15.8554 11.599 15.8354 11.478L15.2261 7.82172C15.2024 7.67943 15.1289 7.55017 15.0189 7.45693C14.9088 7.36369 14.7692 7.31251 14.625 7.31251H14.0156V4.87501H18.2812C18.4429 4.87501 18.5979 4.81081 18.7121 4.69653C18.8264 4.58225 18.8906 4.42725 18.8906 4.26563V1.82813C18.8906 1.7447 18.8735 1.66215 18.8403 1.58561C18.8071 1.50907 18.7585 1.44016 18.6976 1.38316C18.6366 1.32616 18.5646 1.28227 18.4861 1.25423C18.4075 1.22619 18.324 1.21458 18.2407 1.22013L9.1001 1.8295C8.9794 1.83755 8.86383 1.88135 8.7681 1.9553C8.67237 2.02926 8.60082 2.13003 8.56256 2.24479L7.95318 4.07292C7.92265 4.16452 7.91431 4.26206 7.92887 4.35751C7.94343 4.45297 7.98046 4.54359 8.03692 4.62192C8.09337 4.70025 8.16763 4.76405 8.25358 4.80805C8.33952 4.85205 8.43469 4.875 8.53125 4.87501H9.14062V7.31251H8.53125C8.387 7.31251 8.24743 7.36369 8.13737 7.45693C8.02731 7.55017 7.95389 7.67943 7.93018 7.82172L7.3208 11.478C7.30088 11.599 7.31803 11.7233 7.37001 11.8345C6.06966 12.4986 4.97791 13.5089 4.2151 14.7539C3.45229 15.999 3.04803 17.4305 3.04688 18.8906ZM28.0312 36.5625H13.3276C13.1869 36.5624 13.052 36.5064 12.9525 36.4069C12.853 36.3074 12.797 36.1725 12.7969 36.0318V29.7807C12.797 29.64 12.853 29.5051 12.9525 29.4056C13.052 29.3061 13.1869 29.2501 13.3276 29.25H28.1099C28.2506 29.2501 28.3855 29.3061 28.485 29.4056C28.5845 29.5051 28.6405 29.64 28.6406 29.7807V36.0318C28.6405 36.1725 28.5845 36.3074 28.485 36.4069C28.3855 36.5064 28.2506 36.5624 28.1099 36.5625H28.0312ZM14.625 26.8125H26.8125V28.0313H14.625V26.8125ZM33.5156 35.9531C33.5154 36.1147 33.4512 36.2696 33.3369 36.3838C33.2227 36.4981 33.0678 36.5623 32.9062 36.5625H29.7769C29.8316 36.3909 29.8594 36.2119 29.8594 36.0318V34.125H33.5156V35.9531ZM33.5918 32.9063H29.8594V29.7807C29.8589 29.3169 29.6744 28.8722 29.3464 28.5442C29.0184 28.2163 28.5738 28.0318 28.1099 28.0313H28.0312V26.2031C28.0312 26.1861 28.0301 26.1693 28.0287 26.1526C28.0287 26.1502 28.0281 26.1459 28.0277 26.142V26.14C27.9819 25.7406 27.8611 25.3534 27.6718 24.9988C27.5191 24.7008 27.3019 24.4405 27.036 24.237C26.7701 24.0335 26.4621 23.8918 26.1346 23.8223L25.071 15.8438H35.8665L33.5918 32.9063ZM24.9844 13.4063H35.9531V14.625H24.9844V13.4063ZM22.1598 23.8283C22.6751 24.5954 23.8304 24.9844 25.5938 24.9844C26.0508 24.9844 26.3656 25.1648 26.5855 25.5524C26.5931 25.5662 26.6007 25.58 26.6077 25.5938H17.445C17.705 25.3945 17.9526 25.1852 18.1981 24.9775C19.1904 24.1379 20.1334 23.3398 21.9006 23.1838C21.9398 23.4147 22.0282 23.6345 22.1598 23.8283ZM9.58935 3.01832L17.6719 2.47948V3.65626H9.37676L9.58935 3.01832ZM10.3594 4.87501H12.7969V7.31251H10.3594V4.87501ZM8.64124 10.9688L9.04747 8.53126H14.1088L14.515 10.9688H8.64124ZM10.9688 12.1875H12.1875C13.9578 12.1895 15.6557 12.8909 16.9112 14.139C18.1667 15.3871 18.8782 17.0807 18.8906 18.851L18.2931 23.3315C17.9795 23.5661 17.6906 23.8103 17.4108 24.047C16.4303 24.8771 15.5832 25.5938 14.0156 25.5938C13.854 25.5938 13.699 25.658 13.5847 25.7722C13.4705 25.8865 13.4062 26.0415 13.4062 26.2031V28.0313H13.3276C12.8637 28.0318 12.4191 28.2163 12.0911 28.5442C11.7631 28.8722 11.5786 29.3169 11.5781 29.7807V36.0318C11.5781 36.2119 11.6059 36.3909 11.6606 36.5625H7.16077C7.01321 36.5621 6.87078 36.5083 6.75977 36.4111C6.64875 36.3139 6.57663 36.1799 6.55672 36.0336L4.26563 18.851C4.27808 17.0807 4.98956 15.3871 6.24507 14.139C7.50059 12.8909 9.19842 12.1895 10.9688 12.1875Z" fill="black"/>
<path d="M20.7188 30.4688C20.2367 30.4688 19.7654 30.6117 19.3645 30.8795C18.9637 31.1474 18.6513 31.5281 18.4668 31.9735C18.2823 32.4189 18.234 32.909 18.3281 33.3818C18.4221 33.8546 18.6543 34.2889 18.9952 34.6298C19.3361 34.9707 19.7704 35.2029 20.2432 35.2969C20.716 35.391 21.2061 35.3427 21.6515 35.1582C22.0969 34.9737 22.4776 34.6613 22.7455 34.2605C23.0133 33.8596 23.1563 33.3883 23.1563 32.9062C23.1555 32.26 22.8985 31.6404 22.4415 31.1835C21.9846 30.7265 21.365 30.4695 20.7188 30.4688ZM20.7188 34.125C20.4777 34.125 20.2421 34.0535 20.0416 33.9196C19.8412 33.7857 19.685 33.5953 19.5928 33.3726C19.5005 33.1499 19.4764 32.9049 19.5234 32.6685C19.5704 32.4321 19.6865 32.2149 19.857 32.0445C20.0274 31.874 20.2446 31.7579 20.481 31.7109C20.7174 31.6639 20.9624 31.688 21.1851 31.7803C21.4078 31.8725 21.5982 32.0287 21.7321 32.2291C21.866 32.4296 21.9375 32.6652 21.9375 32.9062C21.9371 33.2294 21.8086 33.5391 21.5801 33.7676C21.3516 33.9961 21.0419 34.1246 20.7188 34.125Z" fill="black"/>
<path d="M30.4688 21.9375C32.2055 21.9375 33.5156 21.1516 33.5156 20.1094C33.5156 19.0671 32.2055 18.2812 30.4688 18.2812C28.732 18.2812 27.4219 19.0671 27.4219 20.1094C27.4219 21.1516 28.732 21.9375 30.4688 21.9375ZM30.4688 19.5C31.6485 19.5 32.2969 19.9577 32.2969 20.1094C32.2969 20.261 31.6485 20.7188 30.4688 20.7188C29.289 20.7188 28.6406 20.261 28.6406 20.1094C28.6406 19.9577 29.289 19.5 30.4688 19.5Z" fill="black"/>
<path d="M7.92188 21.3281H15.2344C15.396 21.3281 15.551 21.2639 15.6653 21.1496C15.7795 21.0354 15.8438 20.8804 15.8438 20.7188V17.0625C15.8438 16.9009 15.7795 16.7459 15.6653 16.6316C15.551 16.5173 15.396 16.4531 15.2344 16.4531H7.92188C7.76026 16.4531 7.60526 16.5173 7.49098 16.6316C7.3767 16.7459 7.3125 16.9009 7.3125 17.0625V20.7188C7.3125 20.8804 7.3767 21.0354 7.49098 21.1496C7.60526 21.2639 7.76026 21.3281 7.92188 21.3281ZM8.53125 17.6719H14.625V20.1094H8.53125V17.6719Z" fill="black"/>
</svg>
