<svg width="39" height="39" viewBox="0 0 39 39" fill="none" xmlns="http://www.w3.org/2000/svg">
<path d="M18.7259 1.41146C18.6689 1.35063 18.6001 1.30214 18.5236 1.269C18.4471 1.23585 18.3646 1.21875 18.2812 1.21875H4.875C4.79163 1.21875 4.70915 1.23586 4.63266 1.26901C4.55617 1.30216 4.48729 1.35066 4.4303 1.4115C4.3733 1.47234 4.32939 1.54423 4.30129 1.62271C4.27319 1.7012 4.26149 1.78462 4.26692 1.86781L6.09375 29.8791V34.7344C6.09466 35.5422 6.41596 36.3166 6.98716 36.8878C7.55836 37.459 8.33282 37.7803 9.14062 37.7812H31.6875C32.4953 37.7803 33.2698 37.459 33.841 36.8878C34.4122 36.3166 34.7335 35.5422 34.7344 34.7344V26.2031C34.7337 25.6105 34.5605 25.0309 34.2358 24.5352C33.9112 24.0394 33.4492 23.6489 32.9062 23.4114V21.3281C32.9062 19.2809 32.0984 17.4775 30.5699 16.1128C29.8837 15.4949 29.0937 15.0032 28.2362 14.6605C28.092 14.6032 27.931 14.6053 27.7883 14.6662C27.6456 14.7272 27.5328 14.8421 27.4745 14.9859C27.4445 15.0427 27.1596 15.5474 26.2822 16.0512C25.3978 16.5589 23.7281 17.164 20.7957 17.164C19.6742 17.164 18.6988 17.278 17.8695 17.506L18.8893 1.86796C18.8948 1.78474 18.8831 1.70129 18.855 1.62276C18.8269 1.54424 18.783 1.47232 18.7259 1.41146ZM17.6308 2.4375L17.5514 3.65625H5.60488L5.52543 2.4375H17.6308ZM14.0156 34.125V26.8125H33.5156V34.125H14.0156ZM10.3594 34.125V33.5156C10.3596 33.3541 10.4238 33.1992 10.5381 33.0849C10.6523 32.9707 10.8072 32.9064 10.9687 32.9062H12.1875C12.3491 32.9064 12.504 32.9707 12.6182 33.0849C12.7324 33.1992 12.7967 33.3541 12.7969 33.5156V34.125H10.3594ZM12.7969 31.7923C12.6012 31.7229 12.3951 31.6874 12.1875 31.6875H10.9687C10.4841 31.688 10.0194 31.8808 9.67667 32.2235C9.33395 32.5663 9.14117 33.0309 9.14062 33.5156V34.125H7.3125V30.4688H12.7969V31.7923ZM7.41731 35.3438H12.8582C12.9486 35.7858 13.1364 36.2022 13.4079 36.5625H9.14062C8.76272 36.562 8.39423 36.4446 8.08569 36.2264C7.77716 36.0082 7.54369 35.6999 7.41731 35.3438ZM31.6875 36.5625H15.8437C15.4658 36.562 15.0974 36.4446 14.7888 36.2264C14.4803 36.0082 14.2468 35.6999 14.1204 35.3438H33.4108C33.2844 35.6999 33.051 36.0082 32.7424 36.2264C32.4339 36.4446 32.0654 36.562 31.6875 36.5625ZM33.4108 25.5938H14.1204C14.2468 25.2376 14.4803 24.9293 14.7888 24.7111C15.0974 24.4929 15.4658 24.3755 15.8437 24.375H31.6875C32.0654 24.3755 32.4339 24.4929 32.7424 24.7111C33.051 24.9293 33.2844 25.2376 33.4108 25.5938ZM15.8437 23.1562V21.9375H31.6875V23.1562H15.8437ZM27.0307 17.0244C27.4916 16.7532 27.9036 16.4064 28.2495 15.9986C28.8075 16.2793 29.3257 16.6332 29.7902 17.0508C30.8957 18.051 31.5223 19.2827 31.6587 20.7188H15.8771C15.9478 20.345 16.1176 19.9971 16.3689 19.7115C17.123 18.8423 18.654 18.3829 20.7957 18.3829C23.4533 18.3828 25.5508 17.9258 27.0307 17.0244ZM15.4221 18.9429C14.8746 19.5827 14.5915 20.4072 14.6305 21.2484C14.6269 21.2749 14.6251 21.3015 14.625 21.3281V23.4114C14.0821 23.6489 13.6201 24.0394 13.2954 24.5352C12.9708 25.0309 12.7975 25.6105 12.7969 26.2031V29.25H7.27441L5.68432 4.875H17.4719L16.6161 17.9966C16.1622 18.234 15.7572 18.5551 15.4224 18.9428L15.4221 18.9429Z" fill="black"/>
<path d="M27.0219 28.6159C26.1422 28.239 24.9857 28.0312 23.7656 28.0312C22.5456 28.0312 21.3891 28.239 20.5094 28.6159C19.1009 29.2195 18.8906 30.0359 18.8906 30.4688C18.8906 30.9016 19.1009 31.718 20.5094 32.3216C21.3891 32.6985 22.5456 32.9062 23.7656 32.9062C24.9857 32.9062 26.1422 32.6985 27.0219 32.3216C28.4303 31.718 28.6406 30.9016 28.6406 30.4688C28.6406 30.0359 28.4303 29.2195 27.0219 28.6159ZM23.7656 31.6875C21.4975 31.6875 20.1094 30.8984 20.1094 30.4688C20.1094 30.0391 21.4975 29.25 23.7656 29.25C26.0337 29.25 27.4219 30.0391 27.4219 30.4688C27.4219 30.8984 26.0337 31.6875 23.7656 31.6875Z" fill="black"/>
<path d="M15.2344 6.09375H7.92188C7.76026 6.09375 7.60526 6.15795 7.49098 6.27223C7.3767 6.38651 7.3125 6.54151 7.3125 6.70312V10.3594C7.3125 10.521 7.3767 10.676 7.49098 10.7903C7.60526 10.9045 7.76026 10.9688 7.92188 10.9688H15.2344C15.396 10.9688 15.551 10.9045 15.6653 10.7903C15.7795 10.676 15.8438 10.521 15.8438 10.3594V6.70312C15.8438 6.54151 15.7795 6.38651 15.6653 6.27223C15.551 6.15795 15.396 6.09375 15.2344 6.09375ZM14.625 9.75H8.53125V7.3125H14.625V9.75Z" fill="black"/>
<path d="M14.0156 12.1875H9.14062C8.97901 12.1875 8.82401 12.2517 8.70973 12.366C8.59545 12.4803 8.53125 12.6353 8.53125 12.7969C8.53125 12.9585 8.59545 13.1135 8.70973 13.2278C8.82401 13.342 8.97901 13.4062 9.14062 13.4062H14.0156C14.1772 13.4062 14.3322 13.342 14.4465 13.2278C14.5608 13.1135 14.625 12.9585 14.625 12.7969C14.625 12.6353 14.5608 12.4803 14.4465 12.366C14.3322 12.2517 14.1772 12.1875 14.0156 12.1875Z" fill="black"/>
</svg>
