<svg width="39" height="39" viewBox="0 0 39 39" fill="none" xmlns="http://www.w3.org/2000/svg">
<path d="M37.8301 29.8137L25.7309 12.2606C25.3619 11.7312 24.798 11.3698 24.1628 11.2556C23.5277 11.1413 22.8732 11.2836 22.3428 11.6513L21.9741 11.8828C21.4448 12.2519 21.0833 12.8158 20.9691 13.4509C20.8549 14.086 20.9971 14.7406 21.3648 15.2709L23.9668 19.0734H23.461C23.318 18.2792 22.9015 17.5601 22.2837 17.0409C21.666 16.5216 20.886 16.235 20.079 16.2307H18.391C18.0406 14.625 16.3283 13.4063 14.2777 13.4063H10.588C9.97859 13.4063 9.57336 13.5769 9.34484 13.9181C9.24129 14.0851 9.18217 14.2758 9.17311 14.472C9.16404 14.6683 9.20533 14.8636 9.29305 15.0394L9.30828 15.0698C9.53977 15.5137 9.84941 15.9121 10.2223 16.2459H7.60203C6.79339 16.2473 6.01084 16.5322 5.39063 17.0511C4.77042 17.5699 4.35185 18.2899 4.20781 19.0856H3.78125C3.45802 19.0856 3.14802 19.214 2.91946 19.4426C2.6909 19.6712 2.5625 19.9811 2.5625 20.3044V21.3891C2.56098 21.4154 2.56098 21.4419 2.5625 21.4683C2.03958 21.6033 1.5763 21.9082 1.24542 22.335C0.914534 22.7618 0.734778 23.2865 0.734375 23.8266V31.4651C0.734375 32.1115 0.991182 32.7315 1.4483 33.1887C1.90542 33.6458 2.52541 33.9026 3.17188 33.9026H24.5C25.1465 33.9026 25.7665 33.6458 26.2236 33.1887C26.6807 32.7315 26.9375 32.1115 26.9375 31.4651V23.8113C26.9378 23.6372 26.9194 23.4636 26.8827 23.2934L33.4578 32.8331C33.6386 33.0973 33.8702 33.3228 34.1391 33.4965C34.408 33.6702 34.7088 33.7885 35.0239 33.8447C35.1706 33.8723 35.3195 33.8866 35.4688 33.8873C35.962 33.8861 36.4433 33.7352 36.849 33.4547L37.2146 33.2018C37.745 32.8337 38.1076 32.2702 38.223 31.635C38.3384 30.9998 38.1971 30.3448 37.8301 29.8137ZM7.58984 17.4495H12.4923C12.6585 17.4482 12.8184 17.3851 12.9408 17.2725C13.0631 17.16 13.1393 17.006 13.1545 16.8404C13.1697 16.6748 13.1228 16.5095 13.023 16.3766C12.9231 16.2436 12.7774 16.1526 12.6141 16.121C12.172 16.0364 11.753 15.8583 11.3852 15.5988C11.0174 15.3392 10.7092 15.0041 10.4813 14.6159H10.6154H14.2777C15.9078 14.6159 17.2362 15.6152 17.2362 16.8462V17.4555H20.079C20.562 17.4588 21.0309 17.6185 21.4154 17.9107C21.7999 18.203 22.0794 18.612 22.2118 19.0765H5.44484C5.57675 18.6089 5.85753 18.197 6.24462 17.9034C6.63171 17.6098 7.10399 17.4504 7.58984 17.4495ZM25.7127 31.4498C25.7127 31.7731 25.5843 32.0831 25.3557 32.3116C25.1271 32.5402 24.8171 32.6686 24.4939 32.6686H3.16578C2.84255 32.6686 2.53255 32.5402 2.30399 32.3116C2.07544 32.0831 1.94703 31.7731 1.94703 31.4498V23.8113C1.94703 23.4881 2.07544 23.1781 2.30399 22.9495C2.53255 22.721 2.84255 22.5926 3.16578 22.5926H16.6634C16.8251 22.5926 16.9801 22.5284 17.0943 22.4141C17.2086 22.2998 17.2728 22.1448 17.2728 21.9832C17.2728 21.8216 17.2086 21.6666 17.0943 21.5523C16.9801 21.438 16.8251 21.3738 16.6634 21.3738H3.76906V20.2891H23.8998V21.3738H20.2801C20.2416 21.3693 20.2028 21.3693 20.1643 21.3738L20.0485 21.4073C19.9664 21.4406 19.8933 21.4928 19.8352 21.5597C19.7624 21.6393 19.7121 21.7368 19.6893 21.8423C19.6665 21.9477 19.6722 22.0574 19.7056 22.1599C19.7391 22.2625 19.7992 22.3543 19.8798 22.4261C19.9604 22.4978 20.0585 22.5468 20.1643 22.5682C20.2028 22.5727 20.2416 22.5727 20.2801 22.5682H24.4939C24.8171 22.5682 25.1271 22.6966 25.3557 22.9252C25.5843 23.1537 25.7127 23.4637 25.7127 23.787V31.4498ZM25.1033 21.453C25.1048 21.4267 25.1048 21.4002 25.1033 21.3738V20.7431L25.8071 21.7669C25.5945 21.6265 25.3611 21.5206 25.1155 21.453H25.1033ZM36.5047 32.1994L36.136 32.4523C35.8708 32.6361 35.5436 32.7072 35.226 32.6501C34.9084 32.593 34.6265 32.4123 34.442 32.1476L22.355 14.5884C22.1712 14.3232 22.1 13.996 22.1572 13.6784C22.2143 13.3609 22.395 13.0789 22.6597 12.8944L23.0284 12.6415C23.2308 12.5015 23.4708 12.4261 23.717 12.4252C23.7915 12.4262 23.8659 12.4333 23.9394 12.4465C24.2571 12.5047 24.5387 12.6866 24.7224 12.9523L36.8216 30.5053C37.0054 30.7705 37.0765 31.0978 37.0194 31.4153C36.9623 31.7329 36.7816 32.0149 36.5169 32.1994H36.5047Z" fill="black"/>
</svg>
