<svg width="39" height="30" viewBox="0 0 39 30" fill="none" xmlns="http://www.w3.org/2000/svg">
<path d="M35.1 17.5H34.1575L31.733 11.14C31.369 10.175 30.199 9.5 28.8925 9.5H10.1075C8.801 9.5 7.631 10.175 7.2605 11.14L4.8425 17.5H3.9C3.5425 17.5 3.25 17.725 3.25 18V20C3.25 20.275 3.5425 20.5 3.9 20.5H35.1C35.4575 20.5 35.75 20.275 35.75 20V18C35.75 17.725 35.4575 17.5 35.1 17.5ZM8.515 11.42C8.723 10.88 9.3795 10.5 10.114 10.5H28.8925C29.627 10.5 30.2835 10.88 30.4915 11.42L32.8055 17.5H6.1945L8.515 11.42ZM34.45 19.5H4.55V18.5H5.33H33.67H34.45V19.5Z" fill="black"/>
<path d="M13.7607 11.79H10.3482C9.99074 11.79 9.69824 12.015 9.69824 12.29C9.69824 12.565 9.99074 12.79 10.3482 12.79H11.4012V15.715C11.4012 15.99 11.6937 16.215 12.0512 16.215C12.4087 16.215 12.7012 15.99 12.7012 15.715V12.79H13.7542C14.1117 12.79 14.4042 12.565 14.4042 12.29C14.4042 12.015 14.1182 11.79 13.7607 11.79Z" fill="black"/>
<path d="M18.9477 12.125C18.8567 11.925 18.6097 11.79 18.3367 11.79C18.0637 11.79 17.8167 11.925 17.7257 12.125L16.1787 15.55C16.0617 15.81 16.2372 16.095 16.5817 16.185C16.9197 16.275 17.2902 16.14 17.4072 15.875L17.5177 15.63H19.1622L19.2727 15.875C19.3637 16.08 19.6172 16.21 19.8837 16.21C19.9552 16.21 20.0267 16.2 20.0982 16.18C20.4362 16.09 20.6182 15.805 20.5012 15.545L18.9477 12.125ZM17.9662 14.63L18.3367 13.81L18.7072 14.63H17.9662Z" fill="black"/>
<path d="M25.9543 11.86C25.6488 11.715 25.2458 11.79 25.0638 12.025L24.2643 13.035L23.4648 12.025C23.2763 11.79 22.8798 11.715 22.5743 11.86C22.2688 12.005 22.1713 12.31 22.3598 12.545L23.5103 13.995L22.3598 15.445C22.1713 15.68 22.2688 15.99 22.5743 16.13C22.6783 16.18 22.7953 16.205 22.9123 16.205C23.1333 16.205 23.3478 16.12 23.4713 15.965L24.2708 14.955L25.0703 15.965C25.1938 16.12 25.4083 16.205 25.6293 16.205C25.7463 16.205 25.8633 16.18 25.9673 16.13C26.2728 15.985 26.3703 15.68 26.1818 15.445L25.0248 14L26.1753 12.55C26.3638 12.31 26.2663 12.005 25.9543 11.86Z" fill="black"/>
<path d="M28.652 11.79C28.2945 11.79 28.002 12.015 28.002 12.29V15.715C28.002 15.99 28.2945 16.215 28.652 16.215C29.0095 16.215 29.302 15.99 29.302 15.715V12.29C29.302 12.01 29.0095 11.79 28.652 11.79Z" fill="black"/>
</svg>
