<svg width="39" height="39" viewBox="0 0 39 39" fill="none" xmlns="http://www.w3.org/2000/svg">
<path d="M18.8906 3.96094H5.48438C4.99953 3.96094 4.53454 4.15354 4.1917 4.49638C3.84886 4.83922 3.65625 5.30421 3.65625 5.78906V33.2109C3.65625 33.6958 3.84886 34.1608 4.1917 34.5036C4.53454 34.8465 4.99953 35.0391 5.48438 35.0391H18.8906C19.3755 35.0391 19.8405 34.8465 20.1833 34.5036C20.5261 34.1608 20.7188 33.6958 20.7188 33.2109V5.78906C20.7188 5.30421 20.5261 4.83922 20.1833 4.49638C19.8405 4.15354 19.3755 3.96094 18.8906 3.96094ZM9.75 5.17969H14.625V5.78906C14.625 5.95068 14.5608 6.10568 14.4465 6.21996C14.3322 6.33424 14.1772 6.39844 14.0156 6.39844H10.3594C10.1978 6.39844 10.0428 6.33424 9.92848 6.21996C9.8142 6.10568 9.75 5.95068 9.75 5.78906V5.17969ZM19.5 33.2109C19.5 33.3726 19.4358 33.5276 19.3215 33.6418C19.2072 33.7561 19.0522 33.8203 18.8906 33.8203H5.48438C5.32276 33.8203 5.16776 33.7561 5.05348 33.6418C4.9392 33.5276 4.875 33.3726 4.875 33.2109V5.78906C4.875 5.62745 4.9392 5.47245 5.05348 5.35817C5.16776 5.24389 5.32276 5.17969 5.48438 5.17969H8.53125V5.78906C8.53125 6.27391 8.72386 6.7389 9.0667 7.08174C9.40953 7.42458 9.87453 7.61719 10.3594 7.61719H14.0156C14.5005 7.61719 14.9655 7.42458 15.3083 7.08174C15.6511 6.7389 15.8438 6.27391 15.8438 5.78906V5.17969H18.8906C19.0522 5.17969 19.2072 5.24389 19.3215 5.35817C19.4358 5.47245 19.5 5.62745 19.5 5.78906V33.2109Z" fill="black"/>
<path d="M29.4053 20.5085C29.5942 20.2891 34.0335 15.1216 34.0335 11.4867C34.0335 8.53429 31.8001 6.22171 28.9452 6.22171C26.0903 6.22171 23.8569 8.53124 23.8569 11.4867C23.8569 15.1216 28.2962 20.2891 28.4851 20.5085C28.5423 20.5744 28.613 20.6272 28.6924 20.6634C28.7718 20.6996 28.858 20.7183 28.9452 20.7183C29.0324 20.7183 29.1187 20.6996 29.198 20.6634C29.2774 20.6272 29.3481 20.5744 29.4053 20.5085ZM28.9452 7.44046C31.1512 7.44046 32.8147 9.18023 32.8147 11.4867C32.8147 14.0369 30.0726 17.7511 28.9452 19.1496C27.8301 17.7511 25.0757 14.0369 25.0757 11.4867C25.0757 9.18023 26.7393 7.44046 28.9452 7.44046Z" fill="black"/>
<path d="M31.459 11.4167C31.4596 10.9194 31.3127 10.4331 31.0368 10.0193C30.761 9.60553 30.3686 9.28287 29.9094 9.09215C29.4501 8.90143 28.9446 8.85122 28.4568 8.94786C27.969 9.04451 27.5208 9.28367 27.169 9.63509C26.8171 9.98652 26.5774 10.4344 26.4802 10.9221C26.3829 11.4098 26.4325 11.9153 26.6227 12.3748C26.8129 12.8343 27.135 13.2271 27.5485 13.5034C27.9619 13.7798 28.448 13.9273 28.9453 13.9273C29.6112 13.9265 30.2496 13.6618 30.7208 13.1912C31.1919 12.7207 31.4574 12.0825 31.459 11.4167ZM27.6504 11.4167C27.6498 11.1604 27.7252 10.9098 27.8671 10.6964C28.0091 10.4831 28.2111 10.3166 28.4477 10.2181C28.6842 10.1197 28.9447 10.0936 29.1961 10.1432C29.4475 10.1928 29.6785 10.3159 29.8599 10.4969C30.0413 10.6779 30.1649 10.9086 30.2151 11.1599C30.2653 11.4111 30.2399 11.6717 30.142 11.9084C30.044 12.1452 29.8781 12.3477 29.665 12.4901C29.452 12.6325 29.2016 12.7085 28.9453 12.7085C28.6026 12.7077 28.2742 12.5715 28.0316 12.3294C27.789 12.0874 27.652 11.7593 27.6504 11.4167Z" fill="black"/>
<path d="M36.4559 26.9679C36.4559 26.6632 36.398 25.9624 36.0446 25.5938C35.1853 24.7102 30.5328 23.4914 28.6955 22.9613C25.542 21.1758 23.7352 20.1094 22.5469 20.1094C22.3853 20.1094 22.2303 20.1736 22.116 20.2879C22.0017 20.4021 21.9375 20.5571 21.9375 20.7188C21.9375 20.8804 22.0017 21.0354 22.116 21.1496C22.2303 21.2639 22.3853 21.3281 22.5469 21.3281C23.461 21.3281 25.6121 22.6291 27.3945 23.6285C26.8156 23.854 23.6834 23.7321 22.6353 23.5767C22.4736 23.5533 22.3093 23.595 22.1785 23.6927C22.0476 23.7904 21.961 23.9361 21.9375 24.0977C21.9141 24.2593 21.9558 24.4237 22.0535 24.5545C22.1512 24.6854 22.2969 24.772 22.4585 24.7955C24.1059 24.9896 25.7685 25.0202 27.4219 24.8869C27.8972 24.795 28.3349 24.565 28.6803 24.2257C30.0331 24.6157 34.2164 25.7491 35.161 26.4316C35.2249 26.584 35.4443 28.7381 35.3042 29.1068C35.2255 29.2684 35.1338 29.4233 35.03 29.5699C34.6741 29.6455 34.3139 29.6984 33.9514 29.7284C34.0097 29.3199 33.9791 28.9037 33.8619 28.5082C33.7446 28.1126 33.5433 27.747 33.2718 27.4364C33.0003 27.1257 32.665 26.8773 32.2887 26.7081C31.9124 26.539 31.504 26.453 31.0915 26.4561C30.6789 26.4592 30.2719 26.5513 29.8982 26.7261C29.5244 26.9009 29.1929 27.1544 28.9261 27.4691C28.6593 27.7838 28.4635 28.1523 28.3522 28.5496C28.2409 28.9469 28.2167 29.3635 28.2811 29.771L22.5469 29.8594C22.3853 29.8594 22.2303 29.9236 22.116 30.0379C22.0017 30.1521 21.9375 30.3071 21.9375 30.4688C21.9375 30.6304 22.0017 30.7854 22.116 30.8996C22.2303 31.0139 22.3853 31.0781 22.5469 31.0781L28.7625 30.9806C29.0267 31.3547 29.3769 31.6599 29.7835 31.8706C30.1902 32.0812 30.6415 32.1912 31.0995 32.1912C31.5575 32.1912 32.0088 32.0812 32.4154 31.8706C32.8221 31.6599 33.1722 31.3547 33.4364 30.9806C34.1381 30.966 34.836 30.8741 35.5174 30.7064C35.8709 30.6089 36.2243 29.9721 36.3858 29.64C36.6783 29.055 36.5351 27.6047 36.4559 26.9679ZM31.1056 30.9715C30.779 30.9715 30.4597 30.8746 30.1881 30.6932C29.9165 30.5117 29.7049 30.2538 29.5799 29.952C29.4549 29.6503 29.4222 29.3182 29.4859 28.9979C29.5496 28.6776 29.7069 28.3833 29.9379 28.1524C30.1688 27.9214 30.4631 27.7641 30.7834 27.7004C31.1037 27.6367 31.4358 27.6694 31.7375 27.7944C32.0393 27.9194 32.2972 28.131 32.4787 28.4026C32.6601 28.6742 32.757 28.9935 32.757 29.3201C32.757 29.7581 32.583 30.1781 32.2733 30.4878C31.9636 30.7975 31.5436 30.9715 31.1056 30.9715Z" fill="black"/>
<path d="M22.5469 27.4219C22.7085 27.4219 22.8635 27.3577 22.9778 27.2434C23.092 27.1291 23.1562 26.9741 23.1562 26.8125C23.1562 26.6509 23.092 26.4959 22.9778 26.3816C22.8635 26.2673 22.7085 26.2031 22.5469 26.2031C22.3853 26.2031 22.2303 26.2673 22.116 26.3816C22.0017 26.4959 21.9375 26.6509 21.9375 26.8125C21.9375 26.9741 22.0017 27.1291 22.116 27.2434C22.2303 27.3577 22.3853 27.4219 22.5469 27.4219Z" fill="black"/>
<path d="M26.2031 26.8125C26.2031 26.6509 26.1389 26.4959 26.0246 26.3816C25.9104 26.2673 25.7554 26.2031 25.5938 26.2031C25.4732 26.2031 25.3554 26.2389 25.2552 26.3058C25.155 26.3728 25.0769 26.468 25.0308 26.5793C24.9846 26.6907 24.9726 26.8132 24.9961 26.9314C25.0196 27.0496 25.0776 27.1582 25.1629 27.2434C25.2481 27.3286 25.3567 27.3867 25.4749 27.4102C25.5931 27.4337 25.7156 27.4216 25.8269 27.3755C25.9383 27.3294 26.0335 27.2513 26.1004 27.151C26.1674 27.0508 26.2031 26.933 26.2031 26.8125Z" fill="black"/>
<path d="M24.6797 28.0312C24.6797 27.8696 24.6155 27.7146 24.5012 27.6004C24.3869 27.4861 24.2319 27.4219 24.0703 27.4219C23.9498 27.4219 23.832 27.4576 23.7318 27.5246C23.6316 27.5915 23.5534 27.6867 23.5073 27.7981C23.4612 27.9094 23.4491 28.0319 23.4726 28.1501C23.4962 28.2683 23.5542 28.3769 23.6394 28.4621C23.7246 28.5474 23.8332 28.6054 23.9514 28.6289C24.0696 28.6524 24.1922 28.6404 24.3035 28.5942C24.4149 28.5481 24.51 28.47 24.577 28.3698C24.6439 28.2696 24.6797 28.1518 24.6797 28.0312Z" fill="black"/>
<path d="M12.1875 13.781C10.9823 13.781 9.80411 14.1384 8.802 14.808C7.79988 15.4776 7.01883 16.4293 6.55761 17.5428C6.09639 18.6563 5.97571 19.8815 6.21084 21.0636C6.44597 22.2457 7.02634 23.3315 7.87857 24.1837C8.7308 25.0359 9.8166 25.6163 10.9987 25.8514C12.1807 26.0865 13.406 25.9659 14.5195 25.5046C15.633 25.0434 16.5847 24.2624 17.2543 23.2603C17.9239 22.2582 18.2813 21.08 18.2813 19.8748C18.2813 18.2586 17.6392 16.7086 16.4964 15.5658C15.3536 14.423 13.8037 13.781 12.1875 13.781ZM12.1875 24.7498C11.2233 24.7498 10.2808 24.4638 9.4791 23.9282C8.67741 23.3925 8.05257 22.6311 7.68359 21.7403C7.31461 20.8495 7.21807 19.8693 7.40617 18.9237C7.59428 17.978 8.05858 17.1094 8.74036 16.4276C9.42214 15.7458 10.2908 15.2815 11.2364 15.0934C12.1821 14.9053 13.1623 15.0019 14.0531 15.3708C14.9439 15.7398 15.7052 16.3647 16.2409 17.1664C16.7766 17.968 17.0625 18.9106 17.0625 19.8748C17.0625 21.1677 16.5489 22.4077 15.6346 23.3219C14.7204 24.2361 13.4804 24.7498 12.1875 24.7498Z" fill="black"/>
<path d="M14.1559 17.9339L11.5782 20.5207L10.2254 19.1679C10.1111 19.0535 9.95599 18.9893 9.79428 18.9893C9.63258 18.9893 9.47749 19.0535 9.36315 19.1679C9.24881 19.2822 9.18457 19.4373 9.18457 19.599C9.18457 19.7607 9.24881 19.9158 9.36315 20.0301L11.1456 21.8126C11.2022 21.8692 11.2694 21.9142 11.3434 21.9448C11.4173 21.9755 11.4966 21.9913 11.5767 21.9913C11.6568 21.9913 11.7361 21.9755 11.8101 21.9448C11.884 21.9142 11.9512 21.8692 12.0078 21.8126L15.0242 18.7962C15.0809 18.7395 15.1258 18.6723 15.1564 18.5984C15.1871 18.5244 15.2028 18.4451 15.2028 18.365C15.2028 18.285 15.1871 18.2057 15.1564 18.1317C15.1258 18.0577 15.0809 17.9905 15.0242 17.9339C14.9676 17.8773 14.9004 17.8324 14.8264 17.8017C14.7525 17.7711 14.6732 17.7553 14.5931 17.7553C14.513 17.7553 14.4338 17.7711 14.3598 17.8017C14.2858 17.8324 14.2186 17.8773 14.162 17.9339H14.1559Z" fill="black"/>
</svg>
