<svg width="39" height="39" viewBox="0 0 39 39" fill="none" xmlns="http://www.w3.org/2000/svg">
<g clip-path="url(#clip0_508_3427)">
<path d="M37.8338 24.0968V17.6705C37.8338 16.7327 36.7778 16.1811 36.0067 16.7176L35.9575 16.752C35.7379 16.9061 35.617 16.9911 35.3092 16.9911C35.1654 16.9911 35.0624 16.9726 34.971 16.9371C36.77 16.0923 38.0312 14.2896 38.0581 12.2071C38.0966 9.24461 35.7119 6.82547 32.7473 6.82547C32.4317 6.82547 32.176 7.08126 32.176 7.39676C32.176 7.71226 32.4317 7.96805 32.7473 7.96805C33.7697 7.96805 34.5923 8.80899 34.5641 9.83708C34.5374 10.8109 33.7001 11.6031 32.6976 11.6031H32.2601C31.9445 11.6031 31.6888 11.8589 31.6888 12.1744C31.6888 12.4899 31.9445 12.7457 32.2601 12.7457H32.6976C34.3131 12.7457 35.6628 11.455 35.7063 9.86839C35.7132 9.61671 35.689 9.36931 35.6353 9.13051C36.4853 9.94958 36.9306 11.044 36.9157 12.1923C36.8862 14.4603 34.9846 16.3056 32.6767 16.3056H23.1841C22.7683 16.3056 22.4301 15.9674 22.4301 15.5516C22.4301 14.0044 23.6888 12.7458 25.236 12.7458H29.5941C29.9097 12.7458 30.1654 12.49 30.1654 12.1745C30.1654 11.859 29.9097 11.6032 29.5941 11.6032H25.236C23.0588 11.6032 21.2875 13.3745 21.2875 15.5517C21.2875 15.9661 21.4211 16.3498 21.6475 16.6622C21.2856 16.8689 21.0627 17.2513 21.0627 17.6705V24.0936H19.9493C18.319 24.0936 17.6234 23.4501 13.8889 21.9959C13.6914 19.0612 13.2515 12.5231 13.0687 9.8057C12.9801 8.48975 11.8776 7.45892 10.5587 7.45892C10.4488 7.45892 10.3594 7.36949 10.3594 7.25957V6.61287C10.5706 6.51256 10.6982 6.2947 10.6846 6.06314L10.3585 0.54609C10.3406 0.244221 10.0905 0.00854492 9.78816 0.00854492H5.37987C5.07746 0.00854492 4.82739 0.244221 4.80957 0.54609L4.4834 6.06314C4.46977 6.2947 4.59743 6.51256 4.80865 6.61287V7.25957C4.80865 7.36949 4.71923 7.45892 4.60931 7.45892C3.29047 7.45892 2.18788 8.48975 2.0993 9.8057L1.36942 20.6542H0.571289C0.255709 20.6542 0 20.91 0 21.2255V25.1172C0 25.4327 0.255709 25.6884 0.571289 25.6884H1.03061L0.408738 34.9311C0.16316 35.0881 0 35.3632 0 35.6756V38.1086C0 38.5955 0.39617 38.9917 0.883213 38.9917H14.2847C14.7718 38.9917 15.168 38.5955 15.168 38.1086V35.6756C15.168 35.3632 15.0048 35.0881 14.7592 34.9311L14.2439 27.2724C17.0496 28.3389 18.016 29.1278 19.9493 29.1278H23.212C23.5276 29.1278 23.7833 28.872 23.7833 28.5565C23.7833 28.241 23.5276 27.9852 23.212 27.9852H19.9493C18.2366 27.9852 17.3741 27.2114 13.8152 25.8568C12.2542 25.2837 11.2521 24.5457 9.41896 24.5457C8.70271 24.5457 2.42577 24.5457 1.14265 24.5457V21.7966C2.14576 21.7966 7.91829 21.7966 9.41896 21.7966C10.7408 21.7966 10.8415 21.9662 17.5591 24.7591C18.3205 25.0756 19.1247 25.2361 19.9493 25.2361H37.7413C37.8054 25.2361 37.8574 25.2882 37.8574 25.3522V27.8691C37.8574 27.9331 37.8053 27.9852 37.7413 27.9852H25.8779C25.5624 27.9852 25.3067 28.241 25.3067 28.5565C25.3067 28.872 25.5624 29.1278 25.8779 29.1278H37.7413C38.4353 29.1278 38.9999 28.5631 38.9999 27.8691V25.3522C39 24.6892 38.4848 24.1444 37.8338 24.0968ZM14.0253 37.8492H1.14258V35.9351H14.0253V37.8492ZM13.0657 26.7825L13.6046 34.7924H1.56328L2.17585 25.6882H9.41896C10.9205 25.6882 11.7337 26.2923 13.0657 26.7825ZM5.91833 1.15082H9.24947L9.50815 5.52529H5.65972L5.91833 1.15082ZM9.41888 20.6539H2.51451L3.19549 10.5319H8.19244C8.50802 10.5319 8.76373 10.2761 8.76373 9.96063C8.76373 9.64513 8.50802 9.38934 8.19244 9.38934H3.36756C3.58884 8.92248 4.06537 8.60127 4.60924 8.60127C5.34917 8.60127 5.95116 7.99928 5.95116 7.25935V6.66795H9.21672V7.25935C9.21672 7.99928 9.81871 8.60127 10.5586 8.60127C11.1026 8.60127 11.579 8.92248 11.8003 9.38934H10.8585C10.5429 9.38934 10.2872 9.64513 10.2872 9.96063C10.2872 10.2761 10.5429 10.5319 10.8585 10.5319H11.9723L12.7107 21.5058C12.0897 21.2914 11.0941 20.6539 9.41888 20.6539ZM34.6822 24.0935V20.2271C34.6822 19.9116 34.4265 19.6558 34.1109 19.6558C33.7953 19.6558 33.5396 19.9116 33.5396 20.2271V24.0935H31.5746V20.2271C31.5746 19.9116 31.3189 19.6558 31.0033 19.6558C30.6877 19.6558 30.432 19.9116 30.432 20.2271V24.0935H28.467V20.2271C28.467 19.9116 28.2112 19.6558 27.8957 19.6558C27.5801 19.6558 27.3244 19.9116 27.3244 20.2271V24.0935H25.3594V20.2271C25.3594 19.9116 25.1037 19.6558 24.7881 19.6558C24.4725 19.6558 24.2168 19.9116 24.2168 20.2271V24.0935H22.2052V17.6704C22.2052 17.6538 22.2224 17.6452 22.2369 17.6552C22.6541 17.9479 22.9855 18.1336 23.5878 18.1336C24.7311 18.1336 24.8578 17.4481 25.5416 17.4481C26.2095 17.4481 26.3685 18.1336 27.4952 18.1336C28.6386 18.1336 28.7649 17.4481 29.4487 17.4481C30.1166 17.4481 30.2755 18.1336 31.4022 18.1336C32.5456 18.1336 32.6719 17.4481 33.3557 17.4481C34.0238 17.4481 34.1823 18.1336 35.3091 18.1336C35.9156 18.1336 36.25 17.9426 36.6592 17.6554C36.6736 17.6454 36.6911 17.6542 36.6911 17.6706V24.0935H34.6822Z" fill="black"/>
</g>
<defs>
<clipPath id="clip0_508_3427">
<rect width="39" height="39" fill="white"/>
</clipPath>
</defs>
</svg>
