<svg width="39" height="39" viewBox="0 0 39 39" fill="none" xmlns="http://www.w3.org/2000/svg">
<path d="M29.189 20.993V12.675C29.189 11.5437 28.7396 10.4587 27.9396 9.65874C27.1396 8.85878 26.0547 8.40937 24.9234 8.40937H22.431L23.4852 3.65625H26.264C26.2819 3.67583 26.2955 3.69897 26.304 3.72417C26.3124 3.74937 26.3153 3.77606 26.3127 3.8025V4.53375C26.3127 4.69536 26.3769 4.85036 26.4912 4.96464C26.6055 5.07892 26.7605 5.14312 26.9221 5.14312C27.0837 5.14312 27.2387 5.07892 27.353 4.96464C27.4673 4.85036 27.5315 4.69536 27.5315 4.53375V3.81469C27.5481 3.47335 27.4295 3.13922 27.2013 2.8848C26.9732 2.63039 26.6539 2.47623 26.3127 2.45578H23.1562C23.0699 2.43678 22.9804 2.43678 22.8941 2.45578H12.6566C12.3161 2.47777 11.9977 2.63239 11.7699 2.88644C11.542 3.1405 11.4228 3.47375 11.4379 3.81469V4.49109C11.4379 4.65271 11.5021 4.8077 11.6164 4.92198C11.7306 5.03626 11.8856 5.10047 12.0473 5.10047C12.2089 5.10047 12.3639 5.03626 12.4782 4.92198C12.5924 4.8077 12.6566 4.65271 12.6566 4.49109V3.81469C12.6566 3.72937 12.6932 3.68062 12.6566 3.67453H15.2952L16.4165 8.40937H14.0948C12.9634 8.40937 11.8785 8.85878 11.0785 9.65874C10.2785 10.4587 9.82913 11.5437 9.82913 12.675V20.8833C9.82584 20.9198 9.82584 20.9565 9.82913 20.993C9.82622 21.0295 9.82622 21.0661 9.82913 21.1027V25.0514C9.82913 25.6979 10.0859 26.3179 10.5431 26.775C11.0002 27.2321 11.6202 27.4889 12.2666 27.4889H14.0155L11.2612 35.7642C11.2317 35.8421 11.2184 35.9251 11.2222 36.0083C11.2261 36.0914 11.2469 36.1729 11.2834 36.2477C11.32 36.3225 11.3715 36.3891 11.4347 36.4432C11.498 36.4973 11.5716 36.5379 11.6512 36.5625C11.7139 36.5708 11.7774 36.5708 11.8401 36.5625C11.9686 36.5624 12.0938 36.5217 12.1977 36.4462C12.3017 36.3707 12.3791 36.2642 12.419 36.142L13.7048 32.2542H25.094L26.4285 36.1237C26.472 36.2487 26.5549 36.3562 26.6649 36.4298C26.7748 36.5035 26.9058 36.5394 27.0379 36.532C27.1039 36.5304 27.1695 36.5201 27.2329 36.5016C27.3855 36.4489 27.5111 36.3379 27.5819 36.1928C27.6528 36.0477 27.6631 35.8804 27.6107 35.7276L24.7466 27.4889H26.7454C27.3918 27.4889 28.0118 27.2321 28.469 26.775C28.9261 26.3179 29.1829 25.6979 29.1829 25.0514V21.0173C29.1829 21.0173 29.189 20.9991 29.189 20.993ZM11.0479 14.1131H27.9641V20.3836H11.0479V14.1131ZM16.5505 3.65625H22.236L21.1818 8.40937H17.6718L16.5505 3.65625ZM14.113 9.60984H17.1234C17.1517 9.61269 17.1803 9.61269 17.2087 9.60984H17.3366H24.9173C25.7253 9.60984 26.5003 9.93085 27.0717 10.5022C27.6431 11.0736 27.9641 11.8486 27.9641 12.6567V12.8761H11.0479V12.675C11.0479 11.8669 11.3689 11.0919 11.9403 10.5205C12.5117 9.94913 13.2867 9.62812 14.0948 9.62812L14.113 9.60984ZM24.6796 31.0355H14.1069L15.2709 27.4889H23.4548L24.6796 31.0355ZM26.7454 26.2702H12.2666C11.9434 26.2702 11.6334 26.1417 11.4048 25.9132C11.1763 25.6846 11.0479 25.3746 11.0479 25.0514V21.6023H27.9641V25.0514C27.9641 25.3746 27.8357 25.6846 27.6072 25.9132C27.3786 26.1417 27.0686 26.2702 26.7454 26.2702Z" fill="black"/>
<path d="M16.3984 11.8463H22.4922C22.6538 11.8463 22.8088 11.782 22.9231 11.6678C23.0374 11.5535 23.1016 11.3985 23.1016 11.2369C23.1016 11.0753 23.0374 10.9203 22.9231 10.806C22.8088 10.6917 22.6538 10.6275 22.4922 10.6275H16.3984C16.2368 10.6275 16.0818 10.6917 15.9675 10.806C15.8533 10.9203 15.7891 11.0753 15.7891 11.2369C15.7891 11.3985 15.8533 11.5535 15.9675 11.6678C16.0818 11.782 16.2368 11.8463 16.3984 11.8463Z" fill="black"/>
<path d="M14.9539 22.3031C14.6281 22.3067 14.3106 22.4066 14.0415 22.5903C13.7723 22.7739 13.5635 23.0331 13.4413 23.3351C13.3191 23.6372 13.289 23.9686 13.3548 24.2878C13.4206 24.6069 13.5793 24.8994 13.8109 25.1286C14.0426 25.3577 14.3369 25.5132 14.6567 25.5754C14.9765 25.6377 15.3076 25.6039 15.6083 25.4784C15.909 25.3529 16.1659 25.1412 16.3465 24.8701C16.5272 24.5989 16.6236 24.2804 16.6236 23.9545C16.6228 23.7363 16.579 23.5205 16.4945 23.3193C16.4101 23.1181 16.2868 22.9355 16.1317 22.7821C15.9766 22.6287 15.7927 22.5074 15.5906 22.4252C15.3885 22.343 15.1721 22.3015 14.9539 22.3031ZM14.9539 24.3872C14.8692 24.3836 14.7874 24.3552 14.7187 24.3055C14.65 24.2559 14.5974 24.1871 14.5675 24.1078C14.5375 24.0285 14.5315 23.9422 14.5502 23.8595C14.5689 23.7768 14.6115 23.7014 14.6727 23.6427C14.7338 23.584 14.8109 23.5446 14.8943 23.5293C14.9777 23.5141 15.0637 23.5236 15.1417 23.5568C15.2197 23.5901 15.2862 23.6455 15.333 23.7162C15.3798 23.7869 15.4048 23.8697 15.4049 23.9545C15.4001 24.0698 15.3501 24.1786 15.2657 24.2573C15.1813 24.336 15.0693 24.3783 14.9539 24.375V24.3872Z" fill="black"/>
<path d="M24.0032 22.3031C23.6774 22.3067 23.36 22.4066 23.0908 22.5903C22.8216 22.7739 22.6128 23.0331 22.4906 23.3351C22.3684 23.6372 22.3383 23.9686 22.4041 24.2878C22.4699 24.6069 22.6286 24.8994 22.8602 25.1286C23.0919 25.3577 23.3862 25.5132 23.706 25.5754C24.0258 25.6377 24.3569 25.6039 24.6576 25.4784C24.9583 25.3529 25.2152 25.1412 25.3958 24.8701C25.5765 24.5989 25.6729 24.2804 25.6729 23.9545C25.6721 23.7363 25.6283 23.5205 25.5439 23.3193C25.4594 23.1181 25.3361 22.9355 25.181 22.7821C25.0259 22.6287 24.842 22.5074 24.6399 22.4252C24.4378 22.343 24.2214 22.3015 24.0032 22.3031ZM24.0032 24.3872C23.9185 24.3836 23.8368 24.3552 23.7681 24.3055C23.6993 24.2559 23.6468 24.1871 23.6168 24.1078C23.5868 24.0285 23.5808 23.9422 23.5995 23.8595C23.6182 23.7768 23.6608 23.7014 23.722 23.6427C23.7832 23.584 23.8602 23.5446 23.9436 23.5293C24.027 23.5141 24.113 23.5236 24.191 23.5568C24.269 23.5901 24.3356 23.6455 24.3823 23.7162C24.4291 23.7869 24.4541 23.8697 24.4542 23.9545C24.4494 24.0698 24.3994 24.1786 24.315 24.2573C24.2306 24.336 24.1186 24.3783 24.0032 24.375V24.3872Z" fill="black"/>
</svg>
