<svg width="39" height="39" viewBox="0 0 39 39" fill="none" xmlns="http://www.w3.org/2000/svg">
<g clip-path="url(#clip0_505_2600)">
<path d="M38.587 9.82576L28.1496 5.75515C27.8157 5.62497 27.4398 5.79011 27.3097 6.12367C27.1796 6.45737 27.3445 6.83343 27.6782 6.96346L34.4693 9.61203C34.4687 9.62292 34.4676 9.63366 34.4676 9.64463V10.8465H11.6782C11.32 10.8465 11.0297 11.1369 11.0297 11.4951C11.0297 11.8532 11.32 12.1436 11.6782 12.1436H34.4676V13.5231H30.2257C29.8674 13.5231 29.5771 13.8134 29.5771 14.1716C29.5771 14.5297 29.8674 14.8201 30.2257 14.8201H34.4676V16.1996H4.5324V14.8201H28.0639C28.4221 14.8201 28.7124 14.5297 28.7124 14.1716C28.7124 13.8134 28.4221 13.5231 28.0639 13.5231H4.5324V12.1436H9.51647C9.8747 12.1436 10.165 11.8532 10.165 11.4951C10.165 11.1369 9.8747 10.8465 9.51647 10.8465H4.5324V9.64463C4.5324 9.63366 4.53126 9.62292 4.53072 9.61203L19.5001 3.77384L25.2088 6.00034C25.5426 6.13052 25.9186 5.96538 26.0488 5.63182C26.179 5.29812 26.0139 4.92206 25.6803 4.79203L19.7359 2.47359C19.5842 2.41448 19.4162 2.41448 19.2645 2.47359L0.413031 9.82576C0.0793987 9.95594 -0.0856654 10.332 0.0445121 10.6656C0.144449 10.9219 0.389418 11.0786 0.648859 11.0786C0.727239 11.0786 0.806915 11.0643 0.884382 11.0341L3.23519 10.1173V25.879C3.23519 26.2371 3.52548 26.5275 3.88372 26.5275C4.24196 26.5275 4.53225 26.2371 4.53225 25.879V17.4969H34.4675V35.2737H29.3144V33.772H30.2224C30.5806 33.772 30.8709 33.4817 30.8709 33.1235V31.0481C30.8709 30.69 30.5806 30.3996 30.2224 30.3996H29.7468V26.1157C29.7468 25.4155 29.3972 24.7957 28.8639 24.4205L29.3469 23.9375H30.3952C30.7535 23.9375 31.0437 23.6471 31.0437 23.289C31.0437 22.9308 30.7535 22.6404 30.3952 22.6404H29.0784C28.9064 22.6404 28.7415 22.7088 28.6197 22.8304L27.5114 23.9388L26.803 20.9371C26.5498 19.8642 25.6031 19.1149 24.5009 19.1149H14.326C13.2237 19.1149 12.277 19.8642 12.0237 20.9371L11.3484 23.7988L10.3801 22.8303C10.2585 22.7087 10.0935 22.6404 9.92147 22.6404H8.60446C8.24623 22.6404 7.95594 22.9307 7.95594 23.2889C7.95594 23.647 8.24623 23.9374 8.60446 23.9374H9.65289L10.1359 24.4204C9.60254 24.7956 9.25299 25.4154 9.25299 26.1156V30.3995H8.77737C8.41914 30.3995 8.12885 30.6899 8.12885 31.048V33.1234C8.12885 33.4816 8.41914 33.7719 8.77737 33.7719H9.68534V35.2736H4.5324V28.0408C4.5324 27.6826 4.24211 27.3923 3.88387 27.3923C3.52564 27.3923 3.23535 27.6826 3.23535 28.0408V35.2736H1.31506C0.956821 35.2736 0.66653 35.564 0.66653 35.9221C0.66653 36.2803 0.956821 36.5706 1.31506 36.5706H37.6849C38.0432 36.5706 38.3335 36.2803 38.3335 35.9221C38.3335 35.564 38.0432 35.2736 37.6849 35.2736H35.7648V10.1173L38.1158 11.0342C38.1932 11.0644 38.2729 11.0788 38.3513 11.0788C38.6107 11.0788 38.8558 10.922 38.9556 10.6657C39.0856 10.3319 38.9206 9.95586 38.587 9.82576ZM13.2861 21.2349C13.4005 20.7503 13.8281 20.412 14.3259 20.412H24.5009C24.9988 20.412 25.4262 20.7504 25.5406 21.2349L26.2035 24.0438H12.6232L13.2861 21.2349ZM9.42575 32.4749V31.6966H13.6668C14.0251 31.6966 14.3154 31.4063 14.3154 31.0481C14.3154 30.69 14.0251 30.3996 13.6668 30.3996H10.5499V26.1157C10.5499 25.6885 10.8975 25.3409 11.3247 25.3409H27.675C28.1021 25.3409 28.4498 25.6885 28.4498 26.1157V30.3996H15.8287C15.4704 30.3996 15.1801 30.69 15.1801 31.0481C15.1801 31.4063 15.4704 31.6966 15.8287 31.6966H29.5739V32.4749H9.42575ZM12.9712 35.2737H10.9823V33.772H12.9712V35.2737ZM24.7315 35.2737H14.2683V33.772H24.7315V35.2737ZM28.0174 35.2737H26.0286V33.772H28.0174V35.2737Z" fill="black"/>
<path d="M13.1874 25.7732C12.0192 25.7732 11.0688 26.7236 11.0688 27.8918C11.0688 29.06 12.0192 30.0104 13.1874 30.0104C14.3557 30.0104 15.306 29.06 15.306 27.8918C15.306 26.7236 14.3557 25.7732 13.1874 25.7732ZM13.1874 28.7133C12.7345 28.7133 12.3659 28.3448 12.3659 27.8918C12.3659 27.4388 12.7344 27.0703 13.1874 27.0703C13.6403 27.0703 14.0089 27.4388 14.0089 27.8918C14.0089 28.3448 13.6404 28.7133 13.1874 28.7133Z" fill="black"/>
<path d="M25.8124 25.7732C24.6442 25.7732 23.6938 26.7236 23.6938 27.8918C23.6938 29.06 24.6442 30.0104 25.8124 30.0104C26.9807 30.0104 27.931 29.06 27.931 27.8918C27.931 26.7236 26.9807 25.7732 25.8124 25.7732ZM25.8124 28.7133C25.3595 28.7133 24.9909 28.3448 24.9909 27.8918C24.9909 27.4388 25.3594 27.0703 25.8124 27.0703C26.2654 27.0703 26.6339 27.4388 26.6339 27.8918C26.6339 28.3448 26.2654 28.7133 25.8124 28.7133Z" fill="black"/>
</g>
<defs>
<clipPath id="clip0_505_2600">
<rect width="39" height="39" fill="white"/>
</clipPath>
</defs>
</svg>
