<svg width="39" height="39" viewBox="0 0 39 39" fill="none" xmlns="http://www.w3.org/2000/svg">
<path d="M33.263 3.89999H27.6872C27.0971 3.89999 26.5769 4.18473 26.2407 4.6187C25.9043 4.18473 25.384 3.89999 24.7938 3.89999H5.73679C4.72408 3.89999 3.8999 4.72417 3.8999 5.73688V17.6368C3.8999 18.6495 4.72408 19.4733 5.73679 19.4733H16.092C14.3951 20.5396 11.5875 22.2812 8.26417 24.2535C7.63918 24.6245 7.25146 25.3169 7.25185 26.0599V27.9475C7.25185 28.064 7.30402 28.1748 7.39429 28.2487C7.46475 28.3066 7.55234 28.3375 7.64185 28.3375C7.66698 28.3375 7.69212 28.3352 7.71726 28.3302L17.0557 26.489L17.2373 30.0326L14.6493 31.4472C14.1085 31.6932 13.7588 32.2363 13.7588 32.8305V34.71C13.7588 34.8277 13.8121 34.9393 13.9039 35.0135C13.9953 35.0874 14.1165 35.1152 14.2307 35.0912L19.4999 33.9574L24.7569 35.0912C24.7843 35.0969 24.8117 35.1 24.8392 35.1C24.9275 35.1 25.014 35.0699 25.0841 35.0135C25.1758 34.9393 25.2292 34.8277 25.2292 34.71V32.8293C25.2292 32.2329 24.8776 31.6894 24.3536 31.454L21.5731 30.0079L21.7896 26.4585L31.2826 28.3302C31.3077 28.3352 31.3328 28.3375 31.358 28.3375C31.4475 28.3375 31.5354 28.3066 31.6055 28.2487C31.6958 28.1748 31.748 28.064 31.748 27.9475V26.0603C31.7483 25.3169 31.3606 24.6245 30.7356 24.2535C27.4124 22.2812 24.6047 20.5396 22.9078 19.4733H24.7938C25.384 19.4733 25.9043 19.1887 26.2407 18.7548C26.5769 19.1887 27.0971 19.4733 27.6872 19.4733H33.263C34.2757 19.4733 35.0999 18.6495 35.0999 17.6368V5.73688C35.0999 4.72417 34.2757 3.89999 33.263 3.89999ZM4.6799 17.6368V16.5575H16.5468L16.6563 18.6933H5.73679C5.15407 18.6933 4.6799 18.2195 4.6799 17.6368ZM8.03185 27.4729V26.0595C8.03147 25.5903 8.27331 25.1554 8.66255 24.9246C12.1393 22.8611 15.0514 21.05 16.7231 19.9974L17.0154 25.7017L8.03185 27.4729ZM24.4492 32.8293V34.2271L19.5822 33.177C19.5281 33.1656 19.4721 33.1656 19.418 33.177L14.5388 34.2271V32.8305C14.5388 32.5414 14.7091 32.2771 14.9978 32.1445L17.8264 30.5998C17.8443 30.59 17.8556 30.574 17.8713 30.562C17.8937 30.5448 17.9171 30.5297 17.9353 30.5082C17.9517 30.4888 17.9616 30.4663 17.9738 30.4443C17.9861 30.4224 18.0001 30.4023 18.008 30.3782C18.0168 30.3513 18.0176 30.3234 18.0204 30.2952C18.0224 30.2757 18.0301 30.2578 18.029 30.2376L17.3145 16.2939C17.2368 14.6299 17.7799 13.0067 18.8422 11.7248L18.8837 11.6752C19.0341 11.4932 19.2562 11.3888 19.4923 11.3888C19.7284 11.3888 19.9508 11.4932 20.102 11.6752C21.1898 12.9881 21.7306 14.6475 21.6247 16.3491L20.7792 30.2132C20.778 30.233 20.7854 30.2505 20.787 30.2697C20.7897 30.3001 20.7899 30.3306 20.7995 30.3594C20.8082 30.3854 20.8243 30.4069 20.838 30.4303C20.8496 30.4502 20.8576 30.4716 20.8728 30.4894C20.8963 30.5168 20.9265 30.5368 20.9567 30.5569C20.9684 30.5646 20.976 30.5761 20.9887 30.5826L20.9938 30.5853C20.9946 30.5857 20.9955 30.5861 20.9963 30.5866L24.0135 32.1556C24.2782 32.2748 24.4492 32.5391 24.4492 32.8293ZM30.968 26.0599V27.4729L21.8375 25.6727L22.1871 19.9409C23.843 20.9844 26.7979 22.8239 30.3373 24.9246C30.7265 25.1554 30.9683 25.5903 30.968 26.0599ZM33.263 18.6933H27.6872C27.1045 18.6933 26.6307 18.2195 26.6307 17.6368C26.6307 17.4213 26.4563 17.2468 26.2407 17.2468C26.0252 17.2468 25.8507 17.4213 25.8507 17.6368C25.8507 18.2195 25.3766 18.6933 24.7938 18.6933H22.2632L22.3934 16.5575H24.587C24.8026 16.5575 24.977 16.383 24.977 16.1675C24.977 15.9519 24.8026 15.7775 24.587 15.7775H22.4125C22.3971 15.0204 22.2687 14.2773 22.0316 13.5693H22.2528C22.4683 13.5693 22.6428 13.3948 22.6428 13.1793C22.6428 12.9637 22.4683 12.7893 22.2528 12.7893H21.7156C21.4486 12.2173 21.1136 11.6739 20.7023 11.1775C20.4029 10.816 19.9619 10.6088 19.4927 10.6088C19.0234 10.6088 18.582 10.8164 18.2838 11.1767L18.2427 11.2262C17.8437 11.7076 17.5165 12.2347 17.253 12.7893H15.606C15.3904 12.7893 15.216 12.9637 15.216 13.1793C15.216 13.3948 15.3904 13.5693 15.606 13.5693H16.9304C16.6882 14.2765 16.5559 15.0201 16.5352 15.7775H4.6799V7.59623H24.587C24.8026 7.59623 24.977 7.4218 24.977 7.20623C24.977 6.99067 24.8026 6.81623 24.587 6.81623H4.6799V5.73688C4.6799 5.15416 5.15407 4.67999 5.73679 4.67999H24.7938C25.3766 4.67999 25.8507 5.15416 25.8507 5.73688C25.8507 5.95245 26.0252 6.12688 26.2407 6.12688C26.4563 6.12688 26.6307 5.95245 26.6307 5.73688C26.6307 5.15416 27.1045 4.67999 27.6872 4.67999H33.263C33.8457 4.67999 34.3199 5.15416 34.3199 5.73688V6.81623H27.9915C27.776 6.81623 27.6015 6.99067 27.6015 7.20623C27.6015 7.4218 27.776 7.59623 27.9915 7.59623H34.3199V15.7775H27.9915C27.776 15.7775 27.6015 15.9519 27.6015 16.1675C27.6015 16.383 27.776 16.5575 27.9915 16.5575H34.3199V17.6368C34.3199 18.2195 33.8457 18.6933 33.263 18.6933Z" fill="black"/>
<path d="M26.2406 14.2202C26.025 14.2202 25.8506 14.3946 25.8506 14.6102V16.1675C25.8506 16.3831 26.025 16.5575 26.2406 16.5575C26.4562 16.5575 26.6306 16.3831 26.6306 16.1675V14.6102C26.6306 14.3946 26.4562 14.2202 26.2406 14.2202Z" fill="black"/>
<path d="M26.2406 10.3232C26.025 10.3232 25.8506 10.4976 25.8506 10.7132V12.6605C25.8506 12.8761 26.025 13.0505 26.2406 13.0505C26.4562 13.0505 26.6306 12.8761 26.6306 12.6605V10.7132C26.6306 10.4976 26.4562 10.3232 26.2406 10.3232Z" fill="black"/>
<path d="M26.2406 6.81625C26.025 6.81625 25.8506 6.99069 25.8506 7.20625V8.76359C25.8506 8.97915 26.025 9.15359 26.2406 9.15359C26.4562 9.15359 26.6306 8.97915 26.6306 8.76359V7.20625C26.6306 6.99069 26.4562 6.81625 26.2406 6.81625Z" fill="black"/>
<path d="M22.2531 9.80447H15.6063C15.3907 9.80447 15.2163 9.97891 15.2163 10.1945C15.2163 10.41 15.3907 10.5845 15.6063 10.5845H22.2531C22.4686 10.5845 22.6431 10.41 22.6431 10.1945C22.6431 9.97891 22.4686 9.80447 22.2531 9.80447Z" fill="black"/>
<path d="M13.4015 12.7892H6.75475C6.53918 12.7892 6.36475 12.9637 6.36475 13.1792C6.36475 13.3948 6.53918 13.5692 6.75475 13.5692H13.4015C13.6171 13.5692 13.7915 13.3948 13.7915 13.1792C13.7915 12.9637 13.6171 12.7892 13.4015 12.7892Z" fill="black"/>
<path d="M13.4015 9.80447H6.75475C6.53918 9.80447 6.36475 9.97891 6.36475 10.1945C6.36475 10.41 6.53918 10.5845 6.75475 10.5845H13.4015C13.6171 10.5845 13.7915 10.41 13.7915 10.1945C13.7915 9.97891 13.6171 9.80447 13.4015 9.80447Z" fill="black"/>
<path d="M30.4754 14.2948C31.9135 14.2948 33.0835 13.1248 33.0835 11.6867C33.0835 10.2489 31.9135 9.07892 30.4754 9.07892C29.0377 9.07892 27.8677 10.2489 27.8677 11.6867C27.8677 13.1248 29.0377 14.2948 30.4754 14.2948ZM30.4754 9.85892C31.4836 9.85892 32.3035 10.6789 32.3035 11.6867C32.3035 12.6948 31.4836 13.5148 30.4754 13.5148C29.4677 13.5148 28.6477 12.6948 28.6477 11.6867C28.6477 10.6789 29.4677 9.85892 30.4754 9.85892Z" fill="black"/>
</svg>
