<svg width="25" height="39" viewBox="0 0 25 39" fill="none" xmlns="http://www.w3.org/2000/svg">
<path d="M24.5249 6.38404V0.613031C24.5249 0.274447 24.2504 0 23.9118 0C22.0974 0 20.5129 1.00242 19.6827 2.48252C19.1598 1.54248 18.3271 0.788684 17.2924 0.364482C17.197 0.149906 16.9823 0 16.7323 0C14.9158 0 13.3296 1.00478 12.5003 2.48785C11.6709 1.00478 10.0847 0 8.26812 0C8.01805 0 7.8034 0.149906 7.70803 0.364482C6.67339 0.788684 5.84068 1.54256 5.31768 2.48252C4.48763 1.00242 2.90303 0 1.08862 0C0.750033 0 0.475586 0.274523 0.475586 0.613031V6.38404C0.475586 8.8479 2.32466 10.8866 4.70762 11.189V13.2018H1.08862C0.879297 13.2018 0.684373 13.3087 0.571867 13.485C0.459285 13.6615 0.444432 13.8832 0.532639 14.0731L11.9442 38.6452C12.0446 38.8617 12.2616 39 12.5002 39C12.7387 39 12.9557 38.8616 13.0561 38.6452L24.4677 14.0731C24.5559 13.8832 24.541 13.6616 24.4284 13.4851C24.3158 13.3086 24.121 13.2019 23.9117 13.2019H20.2927V11.189C22.6758 10.8866 24.5249 8.84782 24.5249 6.38404ZM19.0667 11.1909V13.2019H13.1133V11.189C14.2864 11.0402 15.3304 10.4716 16.0877 9.63719C16.8622 10.4963 17.9125 11.0464 19.0667 11.1909ZM8.88123 1.27801C10.5859 1.57005 11.8871 3.05838 11.8871 4.84499C11.8871 5.18357 12.1616 5.45802 12.5002 5.45802C12.8387 5.45802 13.1132 5.18357 13.1132 4.84499C13.1132 3.05838 14.4145 1.57005 16.1191 1.27801V6.38404C16.1191 8.37959 14.4956 10.003 12.5001 10.003C10.5045 10.003 8.88108 8.37959 8.88108 6.38404V1.27801H8.88123ZM8.91276 9.63711C9.67006 10.4715 10.7141 11.0401 11.8872 11.189V13.2018H5.93376V11.1908C7.08807 11.0464 8.13825 10.4963 8.91276 9.63711ZM1.70165 6.38404V1.27801C3.4063 1.57005 4.70754 3.05838 4.70754 4.84499C4.70754 5.18357 4.98207 5.45802 5.32057 5.45802C5.65916 5.45802 5.93361 5.18357 5.93361 4.84499C5.93361 3.56111 6.5995 2.40711 7.65501 1.76056V6.38396C7.65501 7.17813 7.84834 7.92759 8.18837 8.58967C7.50534 9.48005 6.45904 10.003 5.32057 10.003C3.3251 10.0031 1.70165 8.37959 1.70165 6.38404ZM12.5003 36.9315L2.0493 14.4279H14.6691L18.8102 23.3446L12.5003 36.9315ZM22.9512 14.4279L19.4862 21.8891L16.0211 14.4279H22.9512ZM19.6798 10.0031C18.5413 10.0031 17.495 9.4802 16.812 8.58983C17.1521 7.92774 17.3454 7.17828 17.3454 6.38412V1.76071C18.4008 2.40718 19.0668 3.56119 19.0668 4.84514C19.0668 5.18372 19.3413 5.45817 19.6798 5.45817C20.0183 5.45817 20.2928 5.18365 20.2928 4.84514C20.2928 3.05853 21.5942 1.57021 23.2987 1.27816V6.38419C23.2988 8.37959 21.6754 10.0031 19.6798 10.0031Z" fill="black"/>
</svg>
