<svg width="34" height="23" viewBox="0 0 34 23" fill="none" xmlns="http://www.w3.org/2000/svg">
<path d="M31.5029 8.28778V6.66278H2.25293V8.28778H31.5029ZM31.5029 9.91278H2.25293V18.8503C2.25293 20.1965 3.34424 21.2878 4.69043 21.2878H29.0654C30.4116 21.2878 31.5029 20.1965 31.5029 18.8503V9.91278ZM31.5029 5.03778V4.22528C31.5029 2.87909 30.4116 1.78778 29.0654 1.78778H4.69043C3.34424 1.78778 2.25293 2.87909 2.25293 4.22528V5.03778H31.5029ZM25.0031 19.2281C23.7511 19.9525 22.135 19.766 21.0798 18.7109C19.8106 17.4417 19.8106 15.3839 21.0798 14.1147C22.1332 13.0613 23.7488 12.8718 25.0031 13.5975C25.4811 13.321 26.036 13.1628 26.6279 13.1628C28.4229 13.1628 29.8779 14.6179 29.8779 16.4128C29.8779 18.2077 28.4229 19.6628 26.6279 19.6628C26.0361 19.6628 25.4811 19.5046 25.0031 19.2281ZM23.7839 17.9869C23.5252 17.5205 23.3779 16.9839 23.3779 16.4128C23.3779 15.8417 23.5252 15.305 23.7839 14.8386C23.2428 14.6997 22.647 14.8456 22.2289 15.2637C21.5943 15.8983 21.5943 16.9272 22.2289 17.5618C22.6476 17.9805 23.2434 18.1256 23.7839 17.9869ZM0.62793 4.22528C0.62793 1.98162 2.44677 0.162781 4.69043 0.162781H29.0654C31.3091 0.162781 33.1279 1.98162 33.1279 4.22528V18.8503C33.1279 21.0939 31.3091 22.9128 29.0654 22.9128H4.69043C2.44677 22.9128 0.62793 21.0939 0.62793 18.8503V4.22528ZM26.6279 18.0378C27.5254 18.0378 28.2529 17.3102 28.2529 16.4128C28.2529 15.5153 27.5254 14.7878 26.6279 14.7878C25.7305 14.7878 25.0029 15.5153 25.0029 16.4128C25.0029 17.3102 25.7305 18.0378 26.6279 18.0378Z" fill="black"/>
</svg>
