<svg width="35" height="35" viewBox="0 0 35 35" fill="none" xmlns="http://www.w3.org/2000/svg">
<path d="M32.0571 26.4203L31.306 21.2653C31.2358 20.7835 30.9962 20.3425 30.6302 20.0213L28.7 5.00476H28.81C29.0801 5.00476 29.3475 4.95157 29.5971 4.84821C29.8466 4.74485 30.0733 4.59336 30.2643 4.40239C30.4553 4.21141 30.6067 3.98469 30.7101 3.73516C30.8135 3.48564 30.8667 3.2182 30.8667 2.94812C30.8667 2.67804 30.8135 2.4106 30.7101 2.16108C30.6067 1.91156 30.4553 1.68483 30.2643 1.49386C30.0733 1.30288 29.8466 1.15139 29.5971 1.04803C29.3475 0.944677 29.0801 0.891481 28.81 0.891481H23.9771C23.5711 0.489481 23.0554 0.216589 22.4946 0.107173C21.9339 -0.0022416 21.3534 0.0567144 20.8261 0.276616C20.2988 0.496518 19.8484 0.86753 19.5316 1.34292C19.2148 1.81832 19.0457 2.37683 19.0457 2.94812C19.0457 3.51941 19.2148 4.07793 19.5316 4.55332C19.8484 5.02871 20.2988 5.39973 20.8261 5.61963C21.3534 5.83953 21.9339 5.89848 22.4946 5.78907C23.0554 5.67965 23.5711 5.40676 23.9771 5.00476H25.47L27.473 20.5655C27.255 20.9586 27.1718 21.4124 27.2363 21.8573L27.9813 26.9968C27.5139 27.3372 27.1178 27.7658 26.8152 28.2585H9.37035L6.45022 25.321C6.25871 25.1285 6.03114 24.9756 5.78051 24.871C5.52988 24.7665 5.26111 24.7123 4.98955 24.7116H2.09806C1.68093 24.7111 1.27353 24.8376 0.930018 25.0742C0.586505 25.3109 0.323159 25.6465 0.174993 26.0364C0.0268271 26.4263 0.000861213 26.8521 0.100548 27.2571C0.200234 27.6622 0.420851 28.0273 0.733064 28.3039C0.427328 28.8171 0.229471 29.3873 0.151587 29.9796C0.0737021 30.5719 0.117426 31.1739 0.280086 31.7487C0.442746 32.3236 0.720925 32.8592 1.09762 33.3229C1.47431 33.7865 1.94161 34.1685 2.47094 34.4454C3.00027 34.7224 3.58052 34.8885 4.17622 34.9335C4.77191 34.9786 5.37054 34.9017 5.93552 34.7076C6.50049 34.5134 7.01994 34.2061 7.4621 33.8044C7.90427 33.4027 8.25987 32.915 8.50716 32.3712H8.51478H26.5648C26.8647 33.0311 27.3233 33.6066 27.8997 34.0464C28.476 34.4861 29.1522 34.7764 29.8679 34.8914C30.5837 35.0065 31.3168 34.9426 32.0018 34.7056C32.6869 34.4686 33.3027 34.0657 33.7944 33.533C34.286 33.0003 34.6382 32.3542 34.8196 31.6523C35.001 30.9504 35.0059 30.2146 34.8339 29.5103C34.6619 28.8061 34.3183 28.1554 33.8338 27.6161C33.3493 27.0769 32.7389 26.6659 32.0571 26.4197V26.4203ZM29.8003 2.94812C29.8007 3.07828 29.7754 3.20725 29.7258 3.32759C29.6762 3.44793 29.6032 3.55727 29.5112 3.64931C29.4192 3.74135 29.3098 3.81427 29.1895 3.86388C29.0691 3.91349 28.9402 3.9388 28.81 3.93836H24.6602C24.8978 3.29959 24.8978 2.59665 24.6602 1.95789H28.81C29.0725 1.95821 29.3242 2.06264 29.5099 2.24828C29.6955 2.43391 29.7999 2.68559 29.8003 2.94812ZM20.1112 2.94812C20.1112 2.58655 20.2184 2.2331 20.4193 1.93247C20.6202 1.63184 20.9057 1.39752 21.2397 1.25915C21.5738 1.12079 21.9413 1.08458 22.296 1.15512C22.6506 1.22566 22.9763 1.39977 23.232 1.65544C23.4877 1.91111 23.6618 2.23685 23.7323 2.59147C23.8029 2.94609 23.7666 3.31367 23.6283 3.64771C23.4899 3.98176 23.2556 4.26727 22.955 4.46815C22.6543 4.66903 22.3009 4.77625 21.9393 4.77625C21.4549 4.77504 20.9907 4.58202 20.6483 4.23941C20.3059 3.89681 20.1131 3.43252 20.1121 2.94812H20.1112ZM27.6248 5.00476L29.4907 19.5198C29.3195 19.5004 29.1465 19.5023 28.9758 19.5253C28.7893 19.5527 28.6076 19.606 28.4359 19.6837L26.5462 5.00476H27.6248ZM28.2927 21.7047C28.2739 21.5761 28.2806 21.4451 28.3124 21.3192C28.3443 21.1932 28.4006 21.0747 28.4782 20.9706C28.5559 20.8664 28.6532 20.7785 28.7648 20.7119C28.8764 20.6454 29 20.6015 29.1286 20.5827C29.2571 20.5639 29.3881 20.5706 29.5141 20.6024C29.6401 20.6343 29.7585 20.6906 29.8627 20.7682C29.9669 20.8459 30.0548 20.9433 30.1213 21.0548C30.1879 21.1664 30.2318 21.29 30.2506 21.4186L30.9434 26.1717C30.2764 26.1106 29.6044 26.2063 28.9809 26.4511L28.2927 21.7047ZM4.50814 33.88C3.62523 33.8789 2.77878 33.5277 2.15447 32.9034C1.53016 32.2791 1.17896 31.4327 1.17791 30.5498C1.17649 29.9243 1.35307 29.3114 1.68704 28.7826C2.03499 28.8539 2.13828 28.813 3.57824 28.8249C3.29369 28.978 3.05141 29.199 2.87298 29.4684C2.69455 29.7378 2.58552 30.0471 2.55558 30.3688C2.52564 30.6905 2.57573 31.0146 2.70139 31.3123C2.82705 31.6099 3.02438 31.8719 3.2758 32.0748C3.52723 32.2778 3.82493 32.4153 4.14241 32.4754C4.45989 32.5354 4.78728 32.5159 5.09542 32.4188C5.40357 32.3216 5.6829 32.1497 5.90854 31.9185C6.13418 31.6872 6.29912 31.4038 6.38867 31.0933L7.0532 31.7618C7.17637 31.8852 7.31493 31.9922 7.46544 32.0802C7.18547 32.623 6.76135 33.0781 6.23966 33.3956C5.71796 33.7131 5.11886 33.8807 4.50814 33.88ZM4.50814 29.6567C4.6849 29.6567 4.85771 29.709 5.00471 29.8072C5.15171 29.9053 5.2663 30.0449 5.33398 30.2082C5.40167 30.3715 5.41941 30.5512 5.38496 30.7245C5.35051 30.8979 5.26543 31.0572 5.14046 31.1822C5.01549 31.3072 4.85626 31.3923 4.6829 31.4268C4.50954 31.4613 4.32984 31.4437 4.16653 31.376C4.00322 31.3084 3.86363 31.1939 3.76543 31.0469C3.66722 30.8999 3.6148 30.7271 3.6148 30.5504C3.61512 30.3137 3.70922 30.0868 3.87648 29.9194C4.04375 29.7519 4.27056 29.6576 4.50723 29.657L4.50814 29.6567ZM8.28627 31.2767C8.10639 31.2351 7.942 31.1433 7.81217 31.012L4.73361 27.916C4.68408 27.8662 4.62516 27.8266 4.56027 27.7996C4.49537 27.7727 4.42578 27.7588 4.35549 27.7588H2.09806C1.95799 27.7584 1.81955 27.7287 1.69161 27.6717C1.48498 27.5787 1.31646 27.4178 1.21419 27.2156C1.11191 27.0134 1.08206 26.7823 1.12962 26.5607C1.17718 26.3392 1.29926 26.1407 1.47551 25.9983C1.65175 25.8559 1.87149 25.7783 2.09806 25.7784H4.98955C5.25372 25.7791 5.50678 25.8848 5.69307 26.0721L8.77041 29.1674C8.81991 29.2173 8.87882 29.2569 8.94371 29.284C9.00861 29.311 9.07823 29.3249 9.14853 29.3249H26.342C26.1503 29.9673 26.1134 30.646 26.2345 31.3054C7.33808 31.295 8.5093 31.3307 8.28535 31.2767H8.28627ZM30.5629 33.8812C29.904 33.8816 29.2597 33.6865 28.7117 33.3207C28.1636 32.9549 27.7364 32.4347 27.484 31.826C27.2316 31.2174 27.1654 30.5475 27.2937 29.9012C27.4221 29.2549 27.7392 28.6612 28.205 28.1951C28.6709 27.7291 29.2644 27.4117 29.9107 27.283C30.5569 27.1544 31.2268 27.2203 31.8356 27.4724C32.4444 27.7245 32.9648 28.1515 33.3308 28.6994C33.6969 29.2473 33.8923 29.8914 33.8922 30.5504C33.8912 31.4333 33.54 32.2799 32.9157 32.9043C32.2914 33.5287 31.4449 33.88 30.562 33.8812H30.5629Z" fill="black"/>
</svg>
