<svg width="39" height="39" viewBox="0 0 39 39" fill="none" xmlns="http://www.w3.org/2000/svg">
<path d="M37.8727 27.2695L36.9891 26.6906L37.05 26.325C37.3852 24.6492 35.2523 23.5219 33.8203 24.5578L33.5766 24.7406C32.8758 23.7656 31.3523 23.5828 30.4078 24.4969L30.0727 24.8016C30.4992 22.4859 31.2 20.2008 32.2055 18.068C33.9117 19.3172 36.3188 18.9516 37.568 17.2453C38.8781 15.4781 38.4211 12.9492 36.593 11.7609C37.2328 8.53124 34.2773 5.69765 31.0781 6.48983C29.0063 3.44296 24.4664 3.41249 22.3945 6.48983C19.1953 5.69765 16.2398 8.53124 16.8797 11.7609C16.118 12.2484 15.5695 13.0101 15.3258 13.8633C14.2289 12.8883 12.9187 12.157 11.4867 11.7914C12.2789 10.8773 13.132 10.4508 13.2234 10.3898C13.4672 10.2375 13.5586 9.90233 13.4062 9.65858L11.8828 7.03827C11.7305 6.79452 11.3953 6.70312 11.1516 6.85546C10.9992 7.0078 8.59219 7.92187 8.01328 11.6391C3.35156 12.4312 0.0609375 16.5141 0 20.8101C0 23.3391 1.24922 25.4719 3.50391 26.782C0.517969 27.6961 0 28.5492 0 29.2805C0 30.3469 1.12734 31.718 10.0242 33.15C16.6664 34.2164 21.9984 34.4906 26.0508 34.8258C27.3914 34.9476 28.6711 34.125 29.1281 32.8453L30.3773 34.0641C30.9562 34.6125 31.8094 34.7953 32.5711 34.5211C32.9672 34.3992 33.3023 34.125 33.5766 33.7898C33.6375 33.8203 34.8258 34.9476 36.2273 34.0336C36.8672 33.668 37.1719 32.9367 37.05 32.2055L36.9891 31.8398L37.8727 31.2609C39.3656 30.3469 39.3656 28.1836 37.8727 27.2695ZM28.9148 25.2281C28.3359 24.2226 27.2086 23.6437 26.0508 23.7047L24.3141 23.8266C23.9484 22.1508 23.4609 20.5055 22.8211 18.8906C23.5523 19.2258 24.3445 19.4391 25.1367 19.5914C25.4414 20.5664 25.7156 21.0539 25.8984 22.1508C25.9594 22.6383 26.4164 22.943 26.9039 22.882C27.2695 22.8211 27.5742 22.5469 27.6352 22.1508C27.818 21.0539 28.0617 20.5664 28.3969 19.5914C29.1891 19.4695 29.9813 19.2258 30.7125 18.8906C29.8289 20.9625 29.25 23.0648 28.9148 25.2281ZM17.6414 24.4359C18.3117 23.3391 18.6773 22.0898 18.6469 20.8101C18.6469 20.1094 18.5555 19.4086 18.3727 18.7383C19.3781 18.9211 20.4445 18.6773 21.2672 18.068C22.1203 19.957 22.7906 21.9375 23.2172 23.9484C19.8352 24.2226 19.6523 24.2226 17.6414 24.4359ZM26.2945 19.7437C26.8125 19.7742 26.6602 19.7742 27.1781 19.7437C26.9953 20.2312 26.8734 20.6273 26.7516 21.0844C26.6297 20.6578 26.4773 20.2617 26.2945 19.7437ZM17.7328 12.4922C17.9461 12.3703 18.068 12.1266 18.007 11.8828C17.1844 9.14061 19.8047 6.70312 22.4555 7.61718C22.6992 7.70858 22.9734 7.58671 23.0953 7.37343C24.7102 4.53983 28.793 4.5703 30.4078 7.37343C30.5297 7.58671 30.8039 7.70858 31.0477 7.61718C33.7289 6.70312 36.2883 9.20155 35.4961 11.8828C35.4352 12.1266 35.5266 12.4008 35.7703 12.4922C37.1414 13.193 37.6594 14.8687 36.9891 16.2398C36.2883 17.6109 34.6125 18.1289 33.2414 17.4586C32.9977 17.3367 32.7539 17.1539 32.5711 16.9711C32.3578 16.7578 32.0227 16.7578 31.8398 16.9711C31.7484 17.0625 31.657 17.1539 31.5352 17.2453C28.9453 19.1953 24.7102 19.2562 22.0594 17.2453C21.968 17.1539 21.8461 17.0625 21.7547 16.9711C21.5414 16.7578 21.2062 16.7578 21.0234 16.9711C20.2313 17.7633 19.043 17.9766 18.0375 17.55C17.6109 16.5445 17.032 15.6 16.3008 14.7773C16.3008 13.8023 16.8797 12.9187 17.7328 12.4922ZM8.53125 12.6141C8.775 12.5836 8.98828 12.4008 9.01875 12.157C9.23203 10.268 9.99375 8.89686 11.243 8.04374L12.218 9.74999C11.3648 10.2984 10.6336 11.0297 10.1156 11.8828C9.93281 12.218 10.1461 12.6141 10.5117 12.675C12.4312 13.0101 14.2289 14.0156 15.6 15.6609L13.9242 15.5391C13.8023 15.5391 13.6805 15.5695 13.5586 15.6305L11.7609 16.9711L9.59766 15.6305C9.41484 15.5086 9.20156 15.5086 9.04922 15.6305L6.88594 16.9711L5.08828 15.6305C4.99688 15.5391 4.84453 15.5086 4.72266 15.5391L3.04688 15.6609C4.44844 13.9851 6.39844 12.8883 8.53125 12.6141ZM5.02734 26.3859C2.49844 25.2891 1.06641 23.2781 1.06641 20.8101C1.09687 19.3781 1.49297 17.9766 2.25469 16.7883L4.60078 16.6359L6.52031 18.0984C6.70312 18.2203 6.94688 18.2508 7.12969 18.1289L9.32344 16.7578L11.5172 18.1289C11.7 18.2508 11.9437 18.2203 12.1266 18.0984L14.0461 16.6359L16.3922 16.7883C17.1539 18.007 17.55 19.3781 17.5805 20.8101C17.6109 22.2117 17.1234 23.5523 16.1789 24.5883C12.9187 24.9539 8.50078 25.5328 5.02734 26.3859ZM28.275 31.7789C28.275 32.9367 27.3 33.8203 26.1422 33.7289L22.3945 33.4242V28.9148C22.3945 28.6101 22.1508 28.3969 21.8766 28.3969C21.5719 28.3969 21.3586 28.6406 21.3586 28.9148V33.3633C20.2922 33.2719 18.2508 33.15 14.0461 32.632V29.8898C14.0461 29.5851 13.8023 29.3719 13.5281 29.3719C13.2539 29.3719 13.0102 29.6156 13.0102 29.8898V32.4797C12.1266 32.3578 11.182 32.2359 10.268 32.0836C1.24922 30.6516 1.15781 29.3109 1.15781 29.2805C1.15781 29.25 1.24922 27.9094 10.268 26.4773C13.0406 26.0508 15.8133 25.7156 17.6719 25.5328V28.4578C17.6719 28.7625 17.9156 28.9758 18.1898 28.9758C18.4641 28.9758 18.7078 28.732 18.7078 28.4578V25.4414C19.7742 25.35 24.9539 24.9234 24.9844 24.9234V28.4578C24.9844 28.7625 25.2281 28.9758 25.5023 28.9758C25.7766 28.9758 26.0203 28.732 26.0203 28.4578V24.8016C27.2086 24.6187 28.3055 25.5328 28.275 26.7516V31.7789ZM37.2938 30.3773L36.1055 31.1695C35.9227 31.2914 35.8312 31.5047 35.8617 31.718L36.0141 32.4492C36.1359 33.15 35.1305 33.6375 34.4602 33.1195L33.668 32.5406C33.3328 32.2969 32.8758 32.5101 32.8148 32.9062C32.6625 33.607 31.718 33.8203 31.1391 33.3023L29.3414 31.5351V29.7984H33.9727C34.2773 29.7984 34.4906 29.5547 34.4906 29.2805C34.4906 29.0062 34.2469 28.7625 33.9727 28.7625H29.3414V27.0258L31.1391 25.2586C31.6875 24.7406 32.6625 24.9539 32.8148 25.6547C32.8758 26.0508 33.3328 26.2336 33.668 26.0203L34.4602 25.4414C35.1609 24.9539 36.1664 25.4109 36.0141 26.1117L35.8617 26.843C35.8312 27.0562 35.9227 27.2695 36.1055 27.3914L37.2938 28.1836C38.1469 28.6406 38.1164 29.8898 37.2938 30.3773Z" fill="black"/>
</svg>
